%TF.GenerationSoftware,Altium Limited,Altium Designer,23.4.1 (23)*%
G04 Layer_Physical_Order=4*
G04 Layer_Color=16711680*
%FSLAX45Y45*%
%MOMM*%
%TF.SameCoordinates,C80D94D6-ACD9-4930-820E-424AA932BAC3*%
%TF.FilePolarity,Positive*%
%TF.FileFunction,Copper,L4,Bot,Signal*%
%TF.Part,Single*%
G01*
G75*
%TA.AperFunction,ComponentPad*%
%ADD48C,0.65000*%
%ADD49O,2.10000X1.00000*%
G04:AMPARAMS|DCode=50|XSize=1.8mm|YSize=1mm|CornerRadius=0.25mm|HoleSize=0mm|Usage=FLASHONLY|Rotation=0.000|XOffset=0mm|YOffset=0mm|HoleType=Round|Shape=RoundedRectangle|*
%AMROUNDEDRECTD50*
21,1,1.80000,0.50000,0,0,0.0*
21,1,1.30000,1.00000,0,0,0.0*
1,1,0.50000,0.65000,-0.25000*
1,1,0.50000,-0.65000,-0.25000*
1,1,0.50000,-0.65000,0.25000*
1,1,0.50000,0.65000,0.25000*
%
%ADD50ROUNDEDRECTD50*%
G04:AMPARAMS|DCode=51|XSize=1.2mm|YSize=2.8mm|CornerRadius=0.6mm|HoleSize=0mm|Usage=FLASHONLY|Rotation=90.000|XOffset=0mm|YOffset=0mm|HoleType=Round|Shape=RoundedRectangle|*
%AMROUNDEDRECTD51*
21,1,1.20000,1.60000,0,0,90.0*
21,1,0.00000,2.80000,0,0,90.0*
1,1,1.20000,0.80000,0.00000*
1,1,1.20000,0.80000,0.00000*
1,1,1.20000,-0.80000,0.00000*
1,1,1.20000,-0.80000,0.00000*
%
%ADD51ROUNDEDRECTD51*%
G04:AMPARAMS|DCode=52|XSize=1.2mm|YSize=2.3mm|CornerRadius=0.6mm|HoleSize=0mm|Usage=FLASHONLY|Rotation=90.000|XOffset=0mm|YOffset=0mm|HoleType=Round|Shape=RoundedRectangle|*
%AMROUNDEDRECTD52*
21,1,1.20000,1.10000,0,0,90.0*
21,1,0.00000,2.30000,0,0,90.0*
1,1,1.20000,0.55000,0.00000*
1,1,1.20000,0.55000,0.00000*
1,1,1.20000,-0.55000,0.00000*
1,1,1.20000,-0.55000,0.00000*
%
%ADD52ROUNDEDRECTD52*%
%ADD53C,1.40000*%
%TA.AperFunction,ViaPad*%
%ADD54C,0.50000*%
%ADD55C,0.30000*%
%ADD56C,0.40000*%
%ADD57C,5.00000*%
%TA.AperFunction,NonConductor*%
%ADD58C,0.25400*%
G36*
X17756854Y10670413D02*
Y5179587D01*
X17246133Y4668866D01*
X17245000Y4670000D01*
X9382731D01*
X8883145Y5169587D01*
Y10610413D01*
X9319587Y11046855D01*
X17380412D01*
X17756854Y10670413D01*
D02*
G37*
%LPC*%
G36*
X14852699Y10679292D02*
Y10642700D01*
X14889291D01*
X14882727Y10658549D01*
X14868549Y10672727D01*
X14852699Y10679292D01*
D02*
G37*
G36*
X14827299D02*
X14811452Y10672727D01*
X14797273Y10658549D01*
X14790707Y10642700D01*
X14827299D01*
Y10679292D01*
D02*
G37*
G36*
X12721100Y10676392D02*
Y10639800D01*
X12757692D01*
X12751127Y10655649D01*
X12736949Y10669827D01*
X12721100Y10676392D01*
D02*
G37*
G36*
X12695700D02*
X12679850Y10669827D01*
X12665673Y10655649D01*
X12659108Y10639800D01*
X12695700D01*
Y10676392D01*
D02*
G37*
G36*
X14889291Y10617300D02*
X14852699D01*
Y10580708D01*
X14868549Y10587273D01*
X14882727Y10601451D01*
X14889291Y10617300D01*
D02*
G37*
G36*
X14827299D02*
X14790707D01*
X14797273Y10601451D01*
X14811452Y10587273D01*
X14827299Y10580708D01*
Y10617300D01*
D02*
G37*
G36*
X12757692Y10614400D02*
X12721100D01*
Y10577808D01*
X12736949Y10584373D01*
X12751127Y10598551D01*
X12757692Y10614400D01*
D02*
G37*
G36*
X12695700D02*
X12659108D01*
X12665673Y10598551D01*
X12679850Y10584373D01*
X12695700Y10577808D01*
Y10614400D01*
D02*
G37*
G36*
X10840000Y10526392D02*
Y10489800D01*
X10876592D01*
X10870027Y10505649D01*
X10855849Y10519827D01*
X10840000Y10526392D01*
D02*
G37*
G36*
X10814600D02*
X10798750Y10519827D01*
X10784573Y10505649D01*
X10778008Y10489800D01*
X10814600D01*
Y10526392D01*
D02*
G37*
G36*
X12299269Y10489292D02*
Y10452700D01*
X12335861D01*
X12329295Y10468549D01*
X12315118Y10482727D01*
X12299269Y10489292D01*
D02*
G37*
G36*
X12273869D02*
X12258019Y10482727D01*
X12243842Y10468549D01*
X12237277Y10452700D01*
X12273869D01*
Y10489292D01*
D02*
G37*
G36*
X10876592Y10464400D02*
X10840000D01*
Y10427808D01*
X10855849Y10434373D01*
X10870027Y10448551D01*
X10876592Y10464400D01*
D02*
G37*
G36*
X10814600D02*
X10778008D01*
X10784573Y10448551D01*
X10798750Y10434373D01*
X10814600Y10427808D01*
Y10464400D01*
D02*
G37*
G36*
X12335861Y10427300D02*
X12299269D01*
Y10390708D01*
X12315118Y10397273D01*
X12329295Y10411451D01*
X12335861Y10427300D01*
D02*
G37*
G36*
X12273869D02*
X12237277D01*
X12243842Y10411451D01*
X12258019Y10397273D01*
X12273869Y10390708D01*
Y10427300D01*
D02*
G37*
G36*
X17185608Y10800000D02*
X17134392D01*
X17084161Y10790008D01*
X17036844Y10770409D01*
X16994260Y10741955D01*
X16958044Y10705740D01*
X16929591Y10663156D01*
X16909991Y10615839D01*
X16900000Y10565608D01*
Y10514392D01*
X16909991Y10464161D01*
X16929591Y10416844D01*
X16958044Y10374260D01*
X16994260Y10338045D01*
X17036844Y10309591D01*
X17084161Y10289992D01*
X17134392Y10280000D01*
X17185608D01*
X17235838Y10289992D01*
X17283156Y10309591D01*
X17325740Y10338045D01*
X17361955Y10374260D01*
X17390408Y10416844D01*
X17410008Y10464161D01*
X17420000Y10514392D01*
Y10565608D01*
X17410008Y10615839D01*
X17390408Y10663156D01*
X17361955Y10705740D01*
X17325740Y10741955D01*
X17283156Y10770409D01*
X17235838Y10790008D01*
X17185608Y10800000D01*
D02*
G37*
G36*
X9535608Y10750000D02*
X9484392D01*
X9434161Y10740008D01*
X9386844Y10720409D01*
X9344260Y10691955D01*
X9308045Y10655740D01*
X9279591Y10613156D01*
X9259992Y10565839D01*
X9250000Y10515608D01*
Y10464392D01*
X9259992Y10414161D01*
X9279591Y10366844D01*
X9308045Y10324260D01*
X9344260Y10288045D01*
X9386844Y10259591D01*
X9434161Y10239992D01*
X9484392Y10230000D01*
X9535608D01*
X9585839Y10239992D01*
X9633156Y10259591D01*
X9675740Y10288045D01*
X9711955Y10324260D01*
X9740409Y10366844D01*
X9760008Y10414161D01*
X9770000Y10464392D01*
Y10515608D01*
X9760008Y10565839D01*
X9740409Y10613156D01*
X9711955Y10655740D01*
X9675740Y10691955D01*
X9633156Y10720409D01*
X9585839Y10740008D01*
X9535608Y10750000D01*
D02*
G37*
G36*
X17622701Y9989292D02*
Y9952700D01*
X17659293D01*
X17652727Y9968549D01*
X17638548Y9982727D01*
X17622701Y9989292D01*
D02*
G37*
G36*
X17597301D02*
X17581451Y9982727D01*
X17567273Y9968549D01*
X17560709Y9952700D01*
X17597301D01*
Y9989292D01*
D02*
G37*
G36*
X17659293Y9927300D02*
X17622701D01*
Y9890708D01*
X17638548Y9897273D01*
X17652727Y9911451D01*
X17659293Y9927300D01*
D02*
G37*
G36*
X17597301D02*
X17560709D01*
X17567273Y9911451D01*
X17581451Y9897273D01*
X17597301Y9890708D01*
Y9927300D01*
D02*
G37*
G36*
X12502700Y9839292D02*
Y9802700D01*
X12539292D01*
X12532727Y9818549D01*
X12518549Y9832727D01*
X12502700Y9839292D01*
D02*
G37*
G36*
X12477300D02*
X12461451Y9832727D01*
X12447273Y9818549D01*
X12440708Y9802700D01*
X12477300D01*
Y9839292D01*
D02*
G37*
G36*
X17482500Y9845824D02*
X17102499D01*
X17094846Y9842654D01*
X17091676Y9835000D01*
Y9775000D01*
X17094846Y9767346D01*
X17102499Y9764176D01*
X17482500D01*
X17490154Y9767346D01*
X17493324Y9775000D01*
Y9835000D01*
X17490154Y9842654D01*
X17482500Y9845824D01*
D02*
G37*
G36*
X13462700Y9799292D02*
Y9762700D01*
X13499292D01*
X13492728Y9778549D01*
X13478549Y9792727D01*
X13462700Y9799292D01*
D02*
G37*
G36*
X13437300D02*
X13421451Y9792727D01*
X13407272Y9778549D01*
X13400708Y9762700D01*
X13437300D01*
Y9799292D01*
D02*
G37*
G36*
X12539292Y9777300D02*
X12502700D01*
Y9740708D01*
X12518549Y9747273D01*
X12532727Y9761451D01*
X12539292Y9777300D01*
D02*
G37*
G36*
X12477300D02*
X12440708D01*
X12447273Y9761451D01*
X12461451Y9747273D01*
X12477300Y9740708D01*
Y9777300D01*
D02*
G37*
G36*
X13499292Y9737300D02*
X13462700D01*
Y9700708D01*
X13478549Y9707273D01*
X13492728Y9721451D01*
X13499292Y9737300D01*
D02*
G37*
G36*
X13437300D02*
X13400708D01*
X13407272Y9721451D01*
X13421451Y9707273D01*
X13437300Y9700708D01*
Y9737300D01*
D02*
G37*
G36*
X15152699Y9649292D02*
Y9612700D01*
X15189291D01*
X15182727Y9628549D01*
X15168549Y9642727D01*
X15152699Y9649292D01*
D02*
G37*
G36*
X15127299D02*
X15111452Y9642727D01*
X15097273Y9628549D01*
X15090707Y9612700D01*
X15127299D01*
Y9649292D01*
D02*
G37*
G36*
X16482700Y9639292D02*
Y9602700D01*
X16519292D01*
X16512727Y9618549D01*
X16498549Y9632727D01*
X16482700Y9639292D01*
D02*
G37*
G36*
X16457300D02*
X16441451Y9632727D01*
X16427274Y9618549D01*
X16420708Y9602700D01*
X16457300D01*
Y9639292D01*
D02*
G37*
G36*
X10442700Y9629292D02*
Y9592700D01*
X10479292D01*
X10472727Y9608549D01*
X10458549Y9622727D01*
X10442700Y9629292D01*
D02*
G37*
G36*
X10417300D02*
X10401451Y9622727D01*
X10387273Y9608549D01*
X10380708Y9592700D01*
X10417300D01*
Y9629292D01*
D02*
G37*
G36*
X15189291Y9587300D02*
X15152699D01*
Y9550708D01*
X15168549Y9557273D01*
X15182727Y9571451D01*
X15189291Y9587300D01*
D02*
G37*
G36*
X15127299D02*
X15090707D01*
X15097273Y9571451D01*
X15111452Y9557273D01*
X15127299Y9550708D01*
Y9587300D01*
D02*
G37*
G36*
X16519292Y9577300D02*
X16482700D01*
Y9540708D01*
X16498549Y9547273D01*
X16512727Y9561451D01*
X16519292Y9577300D01*
D02*
G37*
G36*
X16457300D02*
X16420708D01*
X16427274Y9561451D01*
X16441451Y9547273D01*
X16457300Y9540708D01*
Y9577300D01*
D02*
G37*
G36*
X10479292Y9567300D02*
X10442700D01*
Y9530708D01*
X10458549Y9537273D01*
X10472727Y9551451D01*
X10479292Y9567300D01*
D02*
G37*
G36*
X10417300D02*
X10380708D01*
X10387273Y9551451D01*
X10401451Y9537273D01*
X10417300Y9530708D01*
Y9567300D01*
D02*
G37*
G36*
X15442700Y9539292D02*
Y9502700D01*
X15479292D01*
X15472726Y9518549D01*
X15458549Y9532727D01*
X15442700Y9539292D01*
D02*
G37*
G36*
X15417300D02*
X15401451Y9532727D01*
X15387273Y9518549D01*
X15380708Y9502700D01*
X15417300D01*
Y9539292D01*
D02*
G37*
G36*
X15479292Y9477300D02*
X15442700D01*
Y9440708D01*
X15458549Y9447273D01*
X15472726Y9461451D01*
X15479292Y9477300D01*
D02*
G37*
G36*
X15417300D02*
X15380708D01*
X15387273Y9461451D01*
X15401451Y9447273D01*
X15417300Y9440708D01*
Y9477300D01*
D02*
G37*
G36*
X11612700Y9249292D02*
Y9212700D01*
X11649292D01*
X11642727Y9228549D01*
X11628549Y9242727D01*
X11612700Y9249292D01*
D02*
G37*
G36*
X11587300D02*
X11571451Y9242727D01*
X11557273Y9228549D01*
X11550708Y9212700D01*
X11587300D01*
Y9249292D01*
D02*
G37*
G36*
X10532700Y9209292D02*
Y9172700D01*
X10569292D01*
X10562727Y9188549D01*
X10548549Y9202727D01*
X10532700Y9209292D01*
D02*
G37*
G36*
X10507300D02*
X10491451Y9202727D01*
X10477273Y9188549D01*
X10470708Y9172700D01*
X10507300D01*
Y9209292D01*
D02*
G37*
G36*
X11649292Y9187300D02*
X11612700D01*
Y9150708D01*
X11628549Y9157273D01*
X11642727Y9171451D01*
X11649292Y9187300D01*
D02*
G37*
G36*
X11587300D02*
X11550708D01*
X11557273Y9171451D01*
X11571451Y9157273D01*
X11587300Y9150708D01*
Y9187300D01*
D02*
G37*
G36*
X10569292Y9147300D02*
X10532700D01*
Y9110708D01*
X10548549Y9117273D01*
X10562727Y9131451D01*
X10569292Y9147300D01*
D02*
G37*
G36*
X10507300D02*
X10470708D01*
X10477273Y9131451D01*
X10491451Y9117273D01*
X10507300Y9110708D01*
Y9147300D01*
D02*
G37*
G36*
X12232700Y8968468D02*
Y8942700D01*
X12258468D01*
X12254249Y8952885D01*
X12242885Y8964249D01*
X12232700Y8968468D01*
D02*
G37*
G36*
X12207300D02*
X12197115Y8964249D01*
X12185751Y8952885D01*
X12181532Y8942700D01*
X12207300D01*
Y8968468D01*
D02*
G37*
G36*
X17542700Y8929292D02*
Y8892700D01*
X17579292D01*
X17572726Y8908549D01*
X17558549Y8922727D01*
X17542700Y8929292D01*
D02*
G37*
G36*
X17517300D02*
X17501451Y8922727D01*
X17487273Y8908549D01*
X17480708Y8892700D01*
X17517300D01*
Y8929292D01*
D02*
G37*
G36*
X12258468Y8917300D02*
X12232700D01*
Y8891532D01*
X12242885Y8895751D01*
X12254249Y8907115D01*
X12258468Y8917300D01*
D02*
G37*
G36*
X12207300D02*
X12181532D01*
X12185751Y8907115D01*
X12197115Y8895751D01*
X12207300Y8891532D01*
Y8917300D01*
D02*
G37*
G36*
X12722700Y8898468D02*
Y8872700D01*
X12748468D01*
X12744249Y8882885D01*
X12732885Y8894249D01*
X12722700Y8898468D01*
D02*
G37*
G36*
X12697300D02*
X12687115Y8894249D01*
X12675751Y8882885D01*
X12671532Y8872700D01*
X12697300D01*
Y8898468D01*
D02*
G37*
G36*
X12482700D02*
Y8872700D01*
X12508468D01*
X12504249Y8882885D01*
X12492885Y8894249D01*
X12482700Y8898468D01*
D02*
G37*
G36*
X12457300D02*
X12447115Y8894249D01*
X12435751Y8882885D01*
X12431532Y8872700D01*
X12457300D01*
Y8898468D01*
D02*
G37*
G36*
X17579292Y8867300D02*
X17542700D01*
Y8830708D01*
X17558549Y8837273D01*
X17572726Y8851451D01*
X17579292Y8867300D01*
D02*
G37*
G36*
X17517300D02*
X17480708D01*
X17487273Y8851451D01*
X17501451Y8837273D01*
X17517300Y8830708D01*
Y8867300D01*
D02*
G37*
G36*
X12508468Y8847300D02*
X12482700D01*
Y8821532D01*
X12492885Y8825751D01*
X12504249Y8837115D01*
X12508468Y8847300D01*
D02*
G37*
G36*
X12457300D02*
X12431532D01*
X12435751Y8837115D01*
X12447115Y8825751D01*
X12457300Y8821532D01*
Y8847300D01*
D02*
G37*
G36*
X12857300Y8818468D02*
X12847115Y8814249D01*
X12837338Y8804472D01*
X12830000Y8803582D01*
X12822662Y8804472D01*
X12812885Y8814249D01*
X12802699Y8818468D01*
Y8780000D01*
Y8741532D01*
X12812885Y8745751D01*
X12822662Y8755528D01*
X12830000Y8756418D01*
X12837338Y8755528D01*
X12847115Y8745751D01*
X12857300Y8741532D01*
Y8780000D01*
Y8818468D01*
D02*
G37*
G36*
X16512700Y8839292D02*
Y8802700D01*
X16549292D01*
X16542728Y8818549D01*
X16528549Y8832727D01*
X16512700Y8839292D01*
D02*
G37*
G36*
X16487300D02*
X16471451Y8832727D01*
X16457272Y8818549D01*
X16450708Y8802700D01*
X16487300D01*
Y8839292D01*
D02*
G37*
G36*
X13442700Y8818468D02*
Y8792700D01*
X13468468D01*
X13464249Y8802885D01*
X13452885Y8814249D01*
X13442700Y8818468D01*
D02*
G37*
G36*
X13417300D02*
X13407115Y8814249D01*
X13395750Y8802885D01*
X13391531Y8792700D01*
X13417300D01*
Y8818468D01*
D02*
G37*
G36*
X13282700D02*
Y8792700D01*
X13308469D01*
X13304250Y8802885D01*
X13292885Y8814249D01*
X13282700Y8818468D01*
D02*
G37*
G36*
X13257300D02*
X13247115Y8814249D01*
X13235751Y8802885D01*
X13231532Y8792700D01*
X13257300D01*
Y8818468D01*
D02*
G37*
G36*
X12882700D02*
Y8792700D01*
X12908469D01*
X12904250Y8802885D01*
X12892885Y8814249D01*
X12882700Y8818468D01*
D02*
G37*
G36*
X12402700D02*
Y8792700D01*
X12428468D01*
X12424249Y8802885D01*
X12412885Y8814249D01*
X12402700Y8818468D01*
D02*
G37*
G36*
X12377300D02*
X12367115Y8814249D01*
X12355751Y8802885D01*
X12351532Y8792700D01*
X12377300D01*
Y8818468D01*
D02*
G37*
G36*
X12162700D02*
Y8792700D01*
X12188468D01*
X12184249Y8802885D01*
X12172885Y8814249D01*
X12162700Y8818468D01*
D02*
G37*
G36*
X12137300D02*
X12127115Y8814249D01*
X12115751Y8802885D01*
X12111532Y8792700D01*
X12137300D01*
Y8818468D01*
D02*
G37*
G36*
X9525300Y8853051D02*
X9483000D01*
X9463316Y8850459D01*
X9444975Y8842862D01*
X9429224Y8830776D01*
X9417138Y8815025D01*
X9409540Y8796683D01*
X9408621Y8789700D01*
X9525300D01*
Y8853051D01*
D02*
G37*
G36*
X9185000Y8853387D02*
X9132700D01*
Y8789700D01*
X9236387D01*
Y8802000D01*
X9232476Y8821665D01*
X9221336Y8838336D01*
X9204665Y8849476D01*
X9185000Y8853387D01*
D02*
G37*
G36*
X9107300D02*
X9055000D01*
X9035335Y8849476D01*
X9018664Y8838336D01*
X9007525Y8821665D01*
X9003613Y8802000D01*
Y8789700D01*
X9107300D01*
Y8853387D01*
D02*
G37*
G36*
X15932700Y8809292D02*
Y8772700D01*
X15969292D01*
X15962727Y8788549D01*
X15948549Y8802727D01*
X15932700Y8809292D01*
D02*
G37*
G36*
X15907300D02*
X15891451Y8802727D01*
X15877274Y8788549D01*
X15870708Y8772700D01*
X15907300D01*
Y8809292D01*
D02*
G37*
G36*
X9722700Y8779292D02*
Y8742700D01*
X9759292D01*
X9752727Y8758549D01*
X9738549Y8772727D01*
X9722700Y8779292D01*
D02*
G37*
G36*
X13468468Y8767300D02*
X13442700D01*
Y8741532D01*
X13452885Y8745751D01*
X13464249Y8757115D01*
X13468468Y8767300D01*
D02*
G37*
G36*
X13417300D02*
X13391531D01*
X13395750Y8757115D01*
X13407115Y8745751D01*
X13417300Y8741532D01*
Y8767300D01*
D02*
G37*
G36*
X13308469D02*
X13282700D01*
Y8741532D01*
X13292885Y8745751D01*
X13304250Y8757115D01*
X13308469Y8767300D01*
D02*
G37*
G36*
X13257300D02*
X13231532D01*
X13235751Y8757115D01*
X13247115Y8745751D01*
X13257300Y8741532D01*
Y8767300D01*
D02*
G37*
G36*
X12908469D02*
X12882700D01*
Y8741532D01*
X12892885Y8745751D01*
X12904250Y8757115D01*
X12908469Y8767300D01*
D02*
G37*
G36*
X12748468Y8847300D02*
X12671532D01*
X12675751Y8837115D01*
X12685528Y8827338D01*
X12686418Y8820000D01*
X12685528Y8812662D01*
X12675751Y8802885D01*
X12671532Y8792700D01*
X12710000D01*
Y8780000D01*
X12722700D01*
Y8741532D01*
X12732885Y8745751D01*
X12742662Y8755528D01*
X12750000Y8756418D01*
X12757338Y8755528D01*
X12767115Y8745751D01*
X12777300Y8741532D01*
Y8780000D01*
Y8818468D01*
X12767115Y8814249D01*
X12757338Y8804472D01*
X12750000Y8803582D01*
X12742662Y8804472D01*
X12734472Y8812662D01*
X12733582Y8820000D01*
X12734472Y8827338D01*
X12744249Y8837115D01*
X12748468Y8847300D01*
D02*
G37*
G36*
X12697300Y8767300D02*
X12671532D01*
X12675751Y8757115D01*
X12687115Y8745751D01*
X12697300Y8741532D01*
Y8767300D01*
D02*
G37*
G36*
X12428468D02*
X12402700D01*
Y8741532D01*
X12412885Y8745751D01*
X12424249Y8757115D01*
X12428468Y8767300D01*
D02*
G37*
G36*
X12377300D02*
X12351532D01*
X12355751Y8757115D01*
X12367115Y8745751D01*
X12377300Y8741532D01*
Y8767300D01*
D02*
G37*
G36*
X12188468D02*
X12162700D01*
Y8741532D01*
X12172885Y8745751D01*
X12184249Y8757115D01*
X12188468Y8767300D01*
D02*
G37*
G36*
X12137300D02*
X12111532D01*
X12115751Y8757115D01*
X12127115Y8745751D01*
X12137300Y8741532D01*
Y8767300D01*
D02*
G37*
G36*
X16549292Y8777300D02*
X16512700D01*
Y8740708D01*
X16528549Y8747273D01*
X16542728Y8761451D01*
X16549292Y8777300D01*
D02*
G37*
G36*
X16487300D02*
X16450708D01*
X16457272Y8761451D01*
X16471451Y8747273D01*
X16487300Y8740708D01*
Y8777300D01*
D02*
G37*
G36*
X13042700Y8738468D02*
Y8712700D01*
X13068468D01*
X13064249Y8722885D01*
X13052885Y8734249D01*
X13042700Y8738468D01*
D02*
G37*
G36*
X13017300D02*
X13007115Y8734249D01*
X12995750Y8722885D01*
X12991531Y8712700D01*
X13017300D01*
Y8738468D01*
D02*
G37*
G36*
X15969292Y8747300D02*
X15932700D01*
Y8710708D01*
X15948549Y8717273D01*
X15962727Y8731451D01*
X15969292Y8747300D01*
D02*
G37*
G36*
X15907300D02*
X15870708D01*
X15877274Y8731451D01*
X15891451Y8717273D01*
X15907300Y8710708D01*
Y8747300D01*
D02*
G37*
G36*
X9525300Y8764300D02*
X9408621D01*
X9409540Y8757316D01*
X9417138Y8738975D01*
X9429224Y8723224D01*
X9444975Y8711138D01*
X9463316Y8703541D01*
X9483000Y8700949D01*
X9525300D01*
Y8764300D01*
D02*
G37*
G36*
X9236387D02*
X9132700D01*
Y8700613D01*
X9185000D01*
X9204665Y8704524D01*
X9221336Y8715664D01*
X9232476Y8732335D01*
X9236387Y8752000D01*
Y8764300D01*
D02*
G37*
G36*
X9107300D02*
X9003613D01*
Y8752000D01*
X9007525Y8732335D01*
X9018664Y8715664D01*
X9035335Y8704524D01*
X9055000Y8700613D01*
X9107300D01*
Y8764300D01*
D02*
G37*
G36*
X9759292Y8717300D02*
X9722700D01*
Y8680708D01*
X9738549Y8687273D01*
X9752727Y8701451D01*
X9759292Y8717300D01*
D02*
G37*
G36*
X9593000Y8853051D02*
X9550700D01*
Y8777000D01*
Y8700949D01*
X9593000D01*
X9612684Y8703541D01*
X9631025Y8711138D01*
X9646776Y8723224D01*
X9646900Y8723385D01*
X9656790Y8720729D01*
X9659842Y8719390D01*
X9667273Y8701451D01*
X9681451Y8687273D01*
X9697300Y8680708D01*
Y8730000D01*
Y8779292D01*
X9681451Y8772727D01*
X9681275Y8772551D01*
X9672245Y8775838D01*
X9668901Y8778138D01*
X9666459Y8796683D01*
X9658862Y8815025D01*
X9646776Y8830776D01*
X9631025Y8842862D01*
X9612684Y8850459D01*
X9593000Y8853051D01*
D02*
G37*
G36*
X12297300Y8658468D02*
X12287115Y8654249D01*
X12277338Y8644472D01*
X12270000Y8643582D01*
X12262662Y8644472D01*
X12252885Y8654249D01*
X12242700Y8658468D01*
Y8620000D01*
Y8581532D01*
X12252885Y8585751D01*
X12262662Y8595528D01*
X12270000Y8596418D01*
X12277338Y8595528D01*
X12287115Y8585751D01*
X12297300Y8581532D01*
Y8620000D01*
Y8658468D01*
D02*
G37*
G36*
X14512700Y8679292D02*
Y8642700D01*
X14549292D01*
X14542728Y8658549D01*
X14528549Y8672727D01*
X14512700Y8679292D01*
D02*
G37*
G36*
X14487300D02*
X14471451Y8672727D01*
X14457272Y8658549D01*
X14450708Y8642700D01*
X14487300D01*
Y8679292D01*
D02*
G37*
G36*
X13282700Y8658468D02*
Y8632700D01*
X13308469D01*
X13304250Y8642885D01*
X13292885Y8654249D01*
X13282700Y8658468D01*
D02*
G37*
G36*
X13257300D02*
X13247115Y8654249D01*
X13235751Y8642885D01*
X13231532Y8632700D01*
X13257300D01*
Y8658468D01*
D02*
G37*
G36*
X13068468Y8687300D02*
X12991531D01*
X12995750Y8677115D01*
X13005528Y8667338D01*
X13006418Y8660000D01*
X13005528Y8652662D01*
X12995750Y8642885D01*
X12991531Y8632700D01*
X13068468D01*
X13064249Y8642885D01*
X13054472Y8652662D01*
X13053581Y8660000D01*
X13054472Y8667338D01*
X13064249Y8677115D01*
X13068468Y8687300D01*
D02*
G37*
G36*
X12322700Y8658468D02*
Y8632700D01*
X12348468D01*
X12344249Y8642885D01*
X12332885Y8654249D01*
X12322700Y8658468D01*
D02*
G37*
G36*
X12217300D02*
X12207115Y8654249D01*
X12195751Y8642885D01*
X12191532Y8632700D01*
X12217300D01*
Y8658468D01*
D02*
G37*
G36*
X9496454Y8676500D02*
X9479546D01*
X9463926Y8670030D01*
X9451970Y8658074D01*
X9445500Y8642454D01*
Y8625546D01*
X9451970Y8609926D01*
X9463926Y8597970D01*
X9479546Y8591500D01*
X9496454D01*
X9512074Y8597970D01*
X9524030Y8609926D01*
X9530500Y8625546D01*
Y8642454D01*
X9524030Y8658074D01*
X9512074Y8670030D01*
X9496454Y8676500D01*
D02*
G37*
G36*
X16862495Y9490819D02*
X16612495D01*
X16604842Y9487649D01*
X16601671Y9479995D01*
Y8599995D01*
X16604842Y8592341D01*
X16612495Y8589171D01*
X16862495D01*
X16870149Y8592341D01*
X16873318Y8599995D01*
Y9479995D01*
X16870149Y9487649D01*
X16862495Y9490819D01*
D02*
G37*
G36*
X13308469Y8607300D02*
X13282700D01*
Y8581532D01*
X13292885Y8585751D01*
X13304250Y8597115D01*
X13308469Y8607300D01*
D02*
G37*
G36*
X13257300D02*
X13231532D01*
X13235751Y8597115D01*
X13247115Y8585751D01*
X13257300Y8581532D01*
Y8607300D01*
D02*
G37*
G36*
X13068468D02*
X13042700D01*
Y8581532D01*
X13052885Y8585751D01*
X13064249Y8597115D01*
X13068468Y8607300D01*
D02*
G37*
G36*
X13017300D02*
X12991531D01*
X12995750Y8597115D01*
X13007115Y8585751D01*
X13017300Y8581532D01*
Y8607300D01*
D02*
G37*
G36*
X12348468D02*
X12322700D01*
Y8581532D01*
X12332885Y8585751D01*
X12344249Y8597115D01*
X12348468Y8607300D01*
D02*
G37*
G36*
X12217300D02*
X12191532D01*
X12195751Y8597115D01*
X12207115Y8585751D01*
X12217300Y8581532D01*
Y8607300D01*
D02*
G37*
G36*
X14549292Y8617300D02*
X14512700D01*
Y8580708D01*
X14528549Y8587273D01*
X14542728Y8601451D01*
X14549292Y8617300D01*
D02*
G37*
G36*
X14487300D02*
X14450708D01*
X14457272Y8601451D01*
X14471451Y8587273D01*
X14487300Y8580708D01*
Y8617300D01*
D02*
G37*
G36*
X13442700Y8578468D02*
Y8552700D01*
X13468468D01*
X13464249Y8562885D01*
X13452885Y8574249D01*
X13442700Y8578468D01*
D02*
G37*
G36*
X13417300D02*
X13407115Y8574249D01*
X13395750Y8562885D01*
X13391531Y8552700D01*
X13417300D01*
Y8578468D01*
D02*
G37*
G36*
X12402700D02*
Y8552700D01*
X12428468D01*
X12424249Y8562885D01*
X12412885Y8574249D01*
X12402700Y8578468D01*
D02*
G37*
G36*
X12377300D02*
X12367115Y8574249D01*
X12355751Y8562885D01*
X12351532Y8552700D01*
X12377300D01*
Y8578468D01*
D02*
G37*
G36*
X13133965Y8567203D02*
Y8541435D01*
X13159734D01*
X13155515Y8551619D01*
X13144148Y8562984D01*
X13133965Y8567203D01*
D02*
G37*
G36*
X13108565D02*
X13098380Y8562984D01*
X13087015Y8551619D01*
X13082797Y8541435D01*
X13108565D01*
Y8567203D01*
D02*
G37*
G36*
X13468468Y8527300D02*
X13442700D01*
Y8501532D01*
X13452885Y8505751D01*
X13464249Y8517115D01*
X13468468Y8527300D01*
D02*
G37*
G36*
X13417300D02*
X13391531D01*
X13395750Y8517115D01*
X13407115Y8505751D01*
X13417300Y8501532D01*
Y8527300D01*
D02*
G37*
G36*
X12428468D02*
X12402700D01*
Y8501532D01*
X12412885Y8505751D01*
X12424249Y8517115D01*
X12428468Y8527300D01*
D02*
G37*
G36*
X12377300D02*
X12351532D01*
X12355751Y8517115D01*
X12367115Y8505751D01*
X12377300Y8501532D01*
Y8527300D01*
D02*
G37*
G36*
X13159734Y8516035D02*
X13133965D01*
Y8490267D01*
X13144148Y8494485D01*
X13155515Y8505850D01*
X13159734Y8516035D01*
D02*
G37*
G36*
X13108565D02*
X13082797D01*
X13087015Y8505850D01*
X13098380Y8494485D01*
X13108565Y8490267D01*
Y8516035D01*
D02*
G37*
G36*
X12242700Y8498468D02*
Y8472700D01*
X12268468D01*
X12264249Y8482885D01*
X12252885Y8494249D01*
X12242700Y8498468D01*
D02*
G37*
G36*
X12217300D02*
X12207115Y8494249D01*
X12195751Y8482885D01*
X12191532Y8472700D01*
X12217300D01*
Y8498468D01*
D02*
G37*
G36*
X12641459Y8477179D02*
Y8451411D01*
X12667227D01*
X12663008Y8461595D01*
X12651643Y8472960D01*
X12641459Y8477179D01*
D02*
G37*
G36*
X12616059D02*
X12605874Y8472960D01*
X12594509Y8461595D01*
X12590291Y8451411D01*
X12616059D01*
Y8477179D01*
D02*
G37*
G36*
X12268468Y8447300D02*
X12242700D01*
Y8421532D01*
X12252885Y8425751D01*
X12264249Y8437115D01*
X12268468Y8447300D01*
D02*
G37*
G36*
X12217300D02*
X12191532D01*
X12195751Y8437115D01*
X12207115Y8425751D01*
X12217300Y8421532D01*
Y8447300D01*
D02*
G37*
G36*
X17482510Y8485814D02*
X17102510D01*
X17094856Y8482644D01*
X17091685Y8474990D01*
Y8414990D01*
X17094856Y8407336D01*
X17102510Y8404166D01*
X17482510D01*
X17490164Y8407336D01*
X17493333Y8414990D01*
Y8474990D01*
X17490164Y8482644D01*
X17482510Y8485814D01*
D02*
G37*
G36*
X13017300Y8418468D02*
X13007115Y8414249D01*
X12997337Y8404472D01*
X12989999Y8403582D01*
X12982661Y8404472D01*
X12972885Y8414249D01*
X12962700Y8418468D01*
Y8380000D01*
Y8341532D01*
X12972885Y8345751D01*
X12982661Y8355528D01*
X12989999Y8356418D01*
X12997337Y8355528D01*
X13007115Y8345751D01*
X13017300Y8341532D01*
Y8380000D01*
Y8418468D01*
D02*
G37*
G36*
X12667227Y8426011D02*
X12641459D01*
Y8400243D01*
X12651643Y8404461D01*
X12663008Y8415826D01*
X12667227Y8426011D01*
D02*
G37*
G36*
X12616059D02*
X12590291D01*
X12594509Y8415826D01*
X12605874Y8404461D01*
X12616059Y8400243D01*
Y8426011D01*
D02*
G37*
G36*
X13042700Y8418468D02*
Y8392700D01*
X13068468D01*
X13064249Y8402885D01*
X13052885Y8414249D01*
X13042700Y8418468D01*
D02*
G37*
G36*
X12937300D02*
X12927115Y8414249D01*
X12915752Y8402885D01*
X12911533Y8392700D01*
X12937300D01*
Y8418468D01*
D02*
G37*
G36*
X12482700D02*
Y8392700D01*
X12508468D01*
X12504249Y8402885D01*
X12492885Y8414249D01*
X12482700Y8418468D01*
D02*
G37*
G36*
X12457300D02*
X12447115Y8414249D01*
X12435751Y8402885D01*
X12431532Y8392700D01*
X12457300D01*
Y8418468D01*
D02*
G37*
G36*
X17632700Y8399292D02*
Y8362700D01*
X17669292D01*
X17662727Y8378549D01*
X17648549Y8392727D01*
X17632700Y8399292D01*
D02*
G37*
G36*
X17607300D02*
X17591451Y8392727D01*
X17577274Y8378549D01*
X17570708Y8362700D01*
X17607300D01*
Y8399292D01*
D02*
G37*
G36*
X15302699Y8389292D02*
Y8352700D01*
X15339291D01*
X15332727Y8368549D01*
X15318549Y8382727D01*
X15302699Y8389292D01*
D02*
G37*
G36*
X15277299D02*
X15261452Y8382727D01*
X15247273Y8368549D01*
X15240707Y8352700D01*
X15277299D01*
Y8389292D01*
D02*
G37*
G36*
X13068468Y8367300D02*
X13042700D01*
Y8341532D01*
X13052885Y8345751D01*
X13064249Y8357115D01*
X13068468Y8367300D01*
D02*
G37*
G36*
X12937300D02*
X12911533D01*
X12915752Y8357115D01*
X12927115Y8345751D01*
X12937300Y8341532D01*
Y8367300D01*
D02*
G37*
G36*
X12508468D02*
X12482700D01*
Y8341532D01*
X12492885Y8345751D01*
X12504249Y8357115D01*
X12508468Y8367300D01*
D02*
G37*
G36*
X12457300D02*
X12431532D01*
X12435751Y8357115D01*
X12447115Y8345751D01*
X12457300Y8341532D01*
Y8367300D01*
D02*
G37*
G36*
X13442700Y8338468D02*
Y8312700D01*
X13468468D01*
X13464249Y8322885D01*
X13452885Y8334249D01*
X13442700Y8338468D01*
D02*
G37*
G36*
X13417300D02*
X13407115Y8334249D01*
X13395750Y8322885D01*
X13391531Y8312700D01*
X13417300D01*
Y8338468D01*
D02*
G37*
G36*
X13122701D02*
Y8312700D01*
X13148468D01*
X13144249Y8322885D01*
X13132886Y8334249D01*
X13122701Y8338468D01*
D02*
G37*
G36*
X13097301D02*
X13087115Y8334249D01*
X13075751Y8322885D01*
X13071532Y8312700D01*
X13097301D01*
Y8338468D01*
D02*
G37*
G36*
X12562700D02*
Y8312700D01*
X12588468D01*
X12584249Y8322885D01*
X12572885Y8334249D01*
X12562700Y8338468D01*
D02*
G37*
G36*
X12537300D02*
X12527115Y8334249D01*
X12515751Y8322885D01*
X12511532Y8312700D01*
X12537300D01*
Y8338468D01*
D02*
G37*
G36*
X12402700D02*
Y8312700D01*
X12428468D01*
X12424249Y8322885D01*
X12412885Y8334249D01*
X12402700Y8338468D01*
D02*
G37*
G36*
X12377300D02*
X12367115Y8334249D01*
X12355751Y8322885D01*
X12351532Y8312700D01*
X12377300D01*
Y8338468D01*
D02*
G37*
G36*
X17669292Y8337300D02*
X17632700D01*
Y8300708D01*
X17648549Y8307273D01*
X17662727Y8321451D01*
X17669292Y8337300D01*
D02*
G37*
G36*
X17607300D02*
X17570708D01*
X17577274Y8321451D01*
X17591451Y8307273D01*
X17607300Y8300708D01*
Y8337300D01*
D02*
G37*
G36*
X11182700Y8329292D02*
Y8292700D01*
X11219292D01*
X11212727Y8308549D01*
X11198549Y8322727D01*
X11182700Y8329292D01*
D02*
G37*
G36*
X11157300D02*
X11141451Y8322727D01*
X11127273Y8308549D01*
X11120708Y8292700D01*
X11157300D01*
Y8329292D01*
D02*
G37*
G36*
X15339291Y8327300D02*
X15302699D01*
Y8290708D01*
X15318549Y8297273D01*
X15332727Y8311451D01*
X15339291Y8327300D01*
D02*
G37*
G36*
X15277299D02*
X15240707D01*
X15247273Y8311451D01*
X15261452Y8297273D01*
X15277299Y8290708D01*
Y8327300D01*
D02*
G37*
G36*
X13148468Y8287300D02*
X13122701D01*
Y8261532D01*
X13132886Y8265751D01*
X13144249Y8277115D01*
X13148468Y8287300D01*
D02*
G37*
G36*
X13097301D02*
X13071532D01*
X13075751Y8277115D01*
X13087115Y8265751D01*
X13097301Y8261532D01*
Y8287300D01*
D02*
G37*
G36*
X12588468D02*
X12562700D01*
Y8261532D01*
X12572885Y8265751D01*
X12584249Y8277115D01*
X12588468Y8287300D01*
D02*
G37*
G36*
X12537300D02*
X12511532D01*
X12515751Y8277115D01*
X12527115Y8265751D01*
X12537300Y8261532D01*
Y8287300D01*
D02*
G37*
G36*
X12428468D02*
X12402700D01*
Y8261532D01*
X12412885Y8265751D01*
X12424249Y8277115D01*
X12428468Y8287300D01*
D02*
G37*
G36*
X12377300D02*
X12351532D01*
X12355751Y8277115D01*
X12367115Y8265751D01*
X12377300Y8261532D01*
Y8287300D01*
D02*
G37*
G36*
X12244358Y8260126D02*
Y8234358D01*
X12270126D01*
X12265907Y8244543D01*
X12254543Y8255907D01*
X12244358Y8260126D01*
D02*
G37*
G36*
X12218958D02*
X12208773Y8255907D01*
X12197409Y8244543D01*
X12193190Y8234358D01*
X12218958D01*
Y8260126D01*
D02*
G37*
G36*
X13468468Y8287300D02*
X13391531D01*
X13395750Y8277115D01*
X13405528Y8267338D01*
X13406418Y8260000D01*
X13405528Y8252662D01*
X13395750Y8242885D01*
X13391531Y8232700D01*
X13468468D01*
X13464249Y8242885D01*
X13454472Y8252662D01*
X13453581Y8260000D01*
X13454472Y8267338D01*
X13464249Y8277115D01*
X13468468Y8287300D01*
D02*
G37*
G36*
X13042700Y8258468D02*
Y8232700D01*
X13068468D01*
X13064249Y8242885D01*
X13052885Y8254249D01*
X13042700Y8258468D01*
D02*
G37*
G36*
X13017300D02*
X13007115Y8254249D01*
X12995750Y8242885D01*
X12991531Y8232700D01*
X13017300D01*
Y8258468D01*
D02*
G37*
G36*
X12802699D02*
Y8232700D01*
X12828468D01*
X12824249Y8242885D01*
X12812885Y8254249D01*
X12802699Y8258468D01*
D02*
G37*
G36*
X12777300D02*
X12767115Y8254249D01*
X12755751Y8242885D01*
X12751532Y8232700D01*
X12777300D01*
Y8258468D01*
D02*
G37*
G36*
X12482700D02*
Y8232700D01*
X12508468D01*
X12504249Y8242885D01*
X12492885Y8254249D01*
X12482700Y8258468D01*
D02*
G37*
G36*
X12457300D02*
X12447115Y8254249D01*
X12435751Y8242885D01*
X12431532Y8232700D01*
X12457300D01*
Y8258468D01*
D02*
G37*
G36*
X11219292Y8267300D02*
X11182700D01*
Y8230708D01*
X11198549Y8237273D01*
X11212727Y8251451D01*
X11219292Y8267300D01*
D02*
G37*
G36*
X11157300D02*
X11120708D01*
X11127273Y8251451D01*
X11141451Y8237273D01*
X11157300Y8230708D01*
Y8267300D01*
D02*
G37*
G36*
X13862700Y8248468D02*
Y8222700D01*
X13888467D01*
X13884248Y8232885D01*
X13872885Y8244249D01*
X13862700Y8248468D01*
D02*
G37*
G36*
X13837300D02*
X13827115Y8244249D01*
X13815752Y8232885D01*
X13811533Y8222700D01*
X13837300D01*
Y8248468D01*
D02*
G37*
G36*
X12270126Y8208958D02*
X12244358D01*
Y8183190D01*
X12254543Y8187409D01*
X12265907Y8198773D01*
X12270126Y8208958D01*
D02*
G37*
G36*
X12218958D02*
X12193190D01*
X12197409Y8198773D01*
X12208773Y8187409D01*
X12218958Y8183190D01*
Y8208958D01*
D02*
G37*
G36*
X13468468Y8207300D02*
X13442700D01*
Y8181532D01*
X13452885Y8185751D01*
X13464249Y8197115D01*
X13468468Y8207300D01*
D02*
G37*
G36*
X13417300D02*
X13391531D01*
X13395750Y8197115D01*
X13407115Y8185751D01*
X13417300Y8181532D01*
Y8207300D01*
D02*
G37*
G36*
X12828468D02*
X12802699D01*
Y8181532D01*
X12812885Y8185751D01*
X12824249Y8197115D01*
X12828468Y8207300D01*
D02*
G37*
G36*
X12777300D02*
X12751532D01*
X12755751Y8197115D01*
X12767115Y8185751D01*
X12777300Y8181532D01*
Y8207300D01*
D02*
G37*
G36*
X12508468D02*
X12482700D01*
Y8181532D01*
X12492885Y8185751D01*
X12504249Y8197115D01*
X12508468Y8207300D01*
D02*
G37*
G36*
X12457300D02*
X12431532D01*
X12435751Y8197115D01*
X12447115Y8185751D01*
X12457300Y8181532D01*
Y8207300D01*
D02*
G37*
G36*
X13888467Y8197300D02*
X13862700D01*
Y8171532D01*
X13872885Y8175751D01*
X13884248Y8187115D01*
X13888467Y8197300D01*
D02*
G37*
G36*
X13837300D02*
X13811533D01*
X13815752Y8187115D01*
X13827115Y8175751D01*
X13837300Y8171532D01*
Y8197300D01*
D02*
G37*
G36*
X13068468Y8207300D02*
X12991531D01*
X12995750Y8197115D01*
X13005528Y8187338D01*
X13006418Y8180000D01*
X13005528Y8172662D01*
X12995750Y8162885D01*
X12991531Y8152700D01*
X13068468D01*
X13064249Y8162885D01*
X13054472Y8172662D01*
X13053581Y8180000D01*
X13054472Y8187338D01*
X13064249Y8197115D01*
X13068468Y8207300D01*
D02*
G37*
G36*
X12722700Y8178468D02*
Y8152700D01*
X12748468D01*
X12744249Y8162885D01*
X12732885Y8174249D01*
X12722700Y8178468D01*
D02*
G37*
G36*
X12697300D02*
X12687115Y8174249D01*
X12675751Y8162885D01*
X12671532Y8152700D01*
X12697300D01*
Y8178468D01*
D02*
G37*
G36*
X12876042Y8171810D02*
Y8146042D01*
X12901810D01*
X12897591Y8156227D01*
X12886227Y8167591D01*
X12876042Y8171810D01*
D02*
G37*
G36*
X12850642D02*
X12840457Y8167591D01*
X12829092Y8156227D01*
X12824873Y8146042D01*
X12850642D01*
Y8171810D01*
D02*
G37*
G36*
X13068468Y8127300D02*
X13042700D01*
Y8101532D01*
X13052885Y8105751D01*
X13064249Y8117115D01*
X13068468Y8127300D01*
D02*
G37*
G36*
X13017300D02*
X12991531D01*
X12995750Y8117115D01*
X13007115Y8105751D01*
X13017300Y8101532D01*
Y8127300D01*
D02*
G37*
G36*
X12748468D02*
X12722700D01*
Y8101532D01*
X12732885Y8105751D01*
X12744249Y8117115D01*
X12748468Y8127300D01*
D02*
G37*
G36*
X12697300D02*
X12671532D01*
X12675751Y8117115D01*
X12687115Y8105751D01*
X12697300Y8101532D01*
Y8127300D01*
D02*
G37*
G36*
X12901810Y8120642D02*
X12876042D01*
Y8094874D01*
X12886227Y8099093D01*
X12897591Y8110457D01*
X12901810Y8120642D01*
D02*
G37*
G36*
X12850642D02*
X12824873D01*
X12829092Y8110457D01*
X12840457Y8099093D01*
X12850642Y8094874D01*
Y8120642D01*
D02*
G37*
G36*
X12562700Y8098468D02*
Y8072700D01*
X12588468D01*
X12584249Y8082885D01*
X12572885Y8094249D01*
X12562700Y8098468D01*
D02*
G37*
G36*
X12537300D02*
X12527115Y8094249D01*
X12515751Y8082885D01*
X12511532Y8072700D01*
X12537300D01*
Y8098468D01*
D02*
G37*
G36*
X12588468Y8047300D02*
X12562700D01*
Y8021532D01*
X12572885Y8025751D01*
X12584249Y8037115D01*
X12588468Y8047300D01*
D02*
G37*
G36*
X12537300D02*
X12511532D01*
X12515751Y8037115D01*
X12527115Y8025751D01*
X12537300Y8021532D01*
Y8047300D01*
D02*
G37*
G36*
X9496454Y8098500D02*
X9479546D01*
X9463926Y8092030D01*
X9451970Y8080075D01*
X9445500Y8064454D01*
Y8047546D01*
X9451970Y8031926D01*
X9463926Y8019970D01*
X9479546Y8013500D01*
X9496454D01*
X9512074Y8019970D01*
X9524030Y8031926D01*
X9530500Y8047546D01*
Y8064454D01*
X9524030Y8080075D01*
X9512074Y8092030D01*
X9496454Y8098500D01*
D02*
G37*
G36*
X9712700Y8039292D02*
Y8002700D01*
X9749292D01*
X9742727Y8018549D01*
X9728549Y8032727D01*
X9712700Y8039292D01*
D02*
G37*
G36*
X9687300D02*
X9671451Y8032727D01*
X9657273Y8018549D01*
X9650708Y8002700D01*
X9687300D01*
Y8039292D01*
D02*
G37*
G36*
X12377300Y8018468D02*
X12367116Y8014250D01*
X12355751Y8002885D01*
X12351532Y7992700D01*
X12377300D01*
Y8018468D01*
D02*
G37*
G36*
X12962700Y8018468D02*
Y7992700D01*
X12988467D01*
X12984248Y8002885D01*
X12972885Y8014249D01*
X12962700Y8018468D01*
D02*
G37*
G36*
X12937300D02*
X12927115Y8014249D01*
X12915752Y8002885D01*
X12911533Y7992700D01*
X12937300D01*
Y8018468D01*
D02*
G37*
G36*
X12802699D02*
Y7992700D01*
X12828468D01*
X12824249Y8002885D01*
X12812885Y8014249D01*
X12802699Y8018468D01*
D02*
G37*
G36*
X12777300D02*
X12767115Y8014249D01*
X12755751Y8002885D01*
X12751532Y7992700D01*
X12777300D01*
Y8018468D01*
D02*
G37*
G36*
X12482700D02*
Y7992700D01*
X12508468D01*
X12504249Y8002885D01*
X12492885Y8014249D01*
X12482700Y8018468D01*
D02*
G37*
G36*
X12162700D02*
Y7992700D01*
X12188468D01*
X12184249Y8002885D01*
X12172885Y8014249D01*
X12162700Y8018468D01*
D02*
G37*
G36*
X12137300D02*
X12127115Y8014249D01*
X12115751Y8002885D01*
X12111532Y7992700D01*
X12137300D01*
Y8018468D01*
D02*
G37*
G36*
X12377300Y7967300D02*
X12351532D01*
X12355751Y7957116D01*
X12367116Y7945751D01*
X12377300Y7941532D01*
Y7967300D01*
D02*
G37*
G36*
X12988467Y7967300D02*
X12962700D01*
Y7941532D01*
X12972885Y7945751D01*
X12984248Y7957115D01*
X12988467Y7967300D01*
D02*
G37*
G36*
X12937300D02*
X12911533D01*
X12915752Y7957115D01*
X12927115Y7945751D01*
X12937300Y7941532D01*
Y7967300D01*
D02*
G37*
G36*
X12828468D02*
X12802699D01*
Y7941532D01*
X12812885Y7945751D01*
X12824249Y7957115D01*
X12828468Y7967300D01*
D02*
G37*
G36*
X12777300D02*
X12751532D01*
X12755751Y7957115D01*
X12767115Y7945751D01*
X12777300Y7941532D01*
Y7967300D01*
D02*
G37*
G36*
X12508468D02*
X12482700D01*
Y7941532D01*
X12492885Y7945751D01*
X12504249Y7957115D01*
X12508468Y7967300D01*
D02*
G37*
G36*
X12402700Y8018468D02*
Y7980000D01*
Y7941532D01*
X12412885Y7945751D01*
X12422662Y7955528D01*
X12430001Y7956418D01*
X12437338Y7955528D01*
X12447115Y7945751D01*
X12457300Y7941532D01*
Y7980000D01*
Y8018468D01*
X12447115Y8014249D01*
X12437339Y8004473D01*
X12430000Y8003582D01*
X12422662Y8004473D01*
X12412885Y8014250D01*
X12402700Y8018468D01*
D02*
G37*
G36*
X12188468Y7967300D02*
X12162700D01*
Y7941532D01*
X12172885Y7945751D01*
X12184249Y7957115D01*
X12188468Y7967300D01*
D02*
G37*
G36*
X12137300D02*
X12111532D01*
X12115751Y7957115D01*
X12127115Y7945751D01*
X12137300Y7941532D01*
Y7967300D01*
D02*
G37*
G36*
X9749292Y7977300D02*
X9712700D01*
Y7940708D01*
X9728549Y7947273D01*
X9742727Y7961451D01*
X9749292Y7977300D01*
D02*
G37*
G36*
X9593000Y7989051D02*
X9550700D01*
Y7925700D01*
X9667379D01*
X9666459Y7932684D01*
X9664481Y7937460D01*
X9665167Y7938426D01*
X9674724Y7945917D01*
X9687300Y7940708D01*
Y7977300D01*
X9645501D01*
X9638779Y7972912D01*
X9631025Y7978862D01*
X9612684Y7986460D01*
X9593000Y7989051D01*
D02*
G37*
G36*
X9525300D02*
X9483000D01*
X9463316Y7986460D01*
X9444975Y7978862D01*
X9429224Y7966776D01*
X9417138Y7951025D01*
X9409540Y7932684D01*
X9408621Y7925700D01*
X9525300D01*
Y7989051D01*
D02*
G37*
G36*
X9185000Y7989387D02*
X9132700D01*
Y7925700D01*
X9236387D01*
Y7938000D01*
X9232476Y7957665D01*
X9221336Y7974336D01*
X9204665Y7985476D01*
X9185000Y7989387D01*
D02*
G37*
G36*
X9107300D02*
X9055000D01*
X9035335Y7985476D01*
X9018664Y7974336D01*
X9007525Y7957665D01*
X9003613Y7938000D01*
Y7925700D01*
X9107300D01*
Y7989387D01*
D02*
G37*
G36*
X13042700Y7938468D02*
Y7912700D01*
X13068468D01*
X13064249Y7922885D01*
X13052885Y7934249D01*
X13042700Y7938468D01*
D02*
G37*
G36*
X13017300D02*
X13007115Y7934249D01*
X12995750Y7922885D01*
X12991531Y7912700D01*
X13017300D01*
Y7938468D01*
D02*
G37*
G36*
X9667379Y7900300D02*
X9550700D01*
Y7836950D01*
X9593000D01*
X9612684Y7839541D01*
X9631025Y7847138D01*
X9646776Y7859224D01*
X9658862Y7874975D01*
X9666459Y7893317D01*
X9667379Y7900300D01*
D02*
G37*
G36*
X9525300D02*
X9408621D01*
X9409540Y7893317D01*
X9417138Y7874975D01*
X9429224Y7859224D01*
X9444975Y7847138D01*
X9463316Y7839541D01*
X9483000Y7836950D01*
X9525300D01*
Y7900300D01*
D02*
G37*
G36*
X9236387D02*
X9132700D01*
Y7836613D01*
X9185000D01*
X9204665Y7840525D01*
X9221336Y7851664D01*
X9232476Y7868335D01*
X9236387Y7888000D01*
Y7900300D01*
D02*
G37*
G36*
X9107300D02*
X9003613D01*
Y7888000D01*
X9007525Y7868335D01*
X9018664Y7851664D01*
X9035335Y7840525D01*
X9055000Y7836613D01*
X9107300D01*
Y7900300D01*
D02*
G37*
G36*
X13442700Y7858468D02*
Y7832700D01*
X13468468D01*
X13464249Y7842885D01*
X13452884Y7854249D01*
X13442700Y7858468D01*
D02*
G37*
G36*
X13417300D02*
X13407115Y7854249D01*
X13395750Y7842885D01*
X13391531Y7832700D01*
X13417300D01*
Y7858468D01*
D02*
G37*
G36*
X13122701D02*
Y7832700D01*
X13148468D01*
X13144249Y7842885D01*
X13132886Y7854249D01*
X13122701Y7858468D01*
D02*
G37*
G36*
X12242700D02*
Y7832700D01*
X12268468D01*
X12264249Y7842885D01*
X12252885Y7854249D01*
X12242700Y7858468D01*
D02*
G37*
G36*
X12217300D02*
X12207115Y7854249D01*
X12195751Y7842885D01*
X12191532Y7832700D01*
X12217300D01*
Y7858468D01*
D02*
G37*
G36*
X14612700Y7843880D02*
Y7812700D01*
X14643880D01*
X14638487Y7825717D01*
X14625717Y7838488D01*
X14612700Y7843880D01*
D02*
G37*
G36*
X14587300D02*
X14574283Y7838488D01*
X14561513Y7825717D01*
X14556120Y7812700D01*
X14587300D01*
Y7843880D01*
D02*
G37*
G36*
X13468468Y7807300D02*
X13442700D01*
Y7781532D01*
X13452884Y7785751D01*
X13464249Y7797115D01*
X13468468Y7807300D01*
D02*
G37*
G36*
X13417300D02*
X13391531D01*
X13395750Y7797115D01*
X13407115Y7785751D01*
X13417300Y7781532D01*
Y7807300D01*
D02*
G37*
G36*
X13148468D02*
X13122701D01*
Y7781532D01*
X13132886Y7785751D01*
X13144249Y7797115D01*
X13148468Y7807300D01*
D02*
G37*
G36*
X13068468Y7887300D02*
X12991531D01*
X12995750Y7877115D01*
X13005528Y7867338D01*
X13006418Y7860000D01*
X13005528Y7852662D01*
X12995750Y7842885D01*
X12991531Y7832700D01*
X13030000D01*
Y7820000D01*
X13042700D01*
Y7781532D01*
X13052885Y7785751D01*
X13062662Y7795528D01*
X13070000Y7796418D01*
X13077338Y7795528D01*
X13087115Y7785751D01*
X13097301Y7781532D01*
Y7820000D01*
Y7858468D01*
X13087115Y7854249D01*
X13077338Y7844473D01*
X13070000Y7843582D01*
X13062662Y7844473D01*
X13054472Y7852662D01*
X13053581Y7860000D01*
X13054472Y7867338D01*
X13064249Y7877115D01*
X13068468Y7887300D01*
D02*
G37*
G36*
X13017300Y7807300D02*
X12991531D01*
X12995750Y7797115D01*
X13007115Y7785751D01*
X13017300Y7781532D01*
Y7807300D01*
D02*
G37*
G36*
X12268468D02*
X12242700D01*
Y7781532D01*
X12252885Y7785751D01*
X12264249Y7797115D01*
X12268468Y7807300D01*
D02*
G37*
G36*
X12217300D02*
X12191532D01*
X12195751Y7797115D01*
X12207115Y7785751D01*
X12217300Y7781532D01*
Y7807300D01*
D02*
G37*
G36*
X14643880Y7787300D02*
X14612700D01*
Y7756120D01*
X14625717Y7761512D01*
X14638487Y7774283D01*
X14643880Y7787300D01*
D02*
G37*
G36*
X14587300D02*
X14556120D01*
X14561513Y7774283D01*
X14574283Y7761512D01*
X14587300Y7756120D01*
Y7787300D01*
D02*
G37*
G36*
X12722700Y7698468D02*
Y7672700D01*
X12748468D01*
X12744249Y7682885D01*
X12732885Y7694249D01*
X12722700Y7698468D01*
D02*
G37*
G36*
X12697300D02*
X12687115Y7694249D01*
X12675751Y7682885D01*
X12671532Y7672700D01*
X12697300D01*
Y7698468D01*
D02*
G37*
G36*
X16751500Y7711137D02*
X16684200D01*
Y7637699D01*
X16835965D01*
X16834702Y7647294D01*
X16826097Y7668068D01*
X16812408Y7685908D01*
X16794568Y7699596D01*
X16773795Y7708202D01*
X16751500Y7711137D01*
D02*
G37*
G36*
X16658800D02*
X16591499D01*
X16569206Y7708202D01*
X16548431Y7699596D01*
X16530592Y7685908D01*
X16516904Y7668068D01*
X16508298Y7647294D01*
X16507034Y7637699D01*
X16658800D01*
Y7711137D01*
D02*
G37*
G36*
X17404500D02*
X17362199D01*
Y7637699D01*
X17488965D01*
X17487701Y7647294D01*
X17479097Y7668068D01*
X17465408Y7685908D01*
X17447569Y7699596D01*
X17426794Y7708202D01*
X17404500Y7711137D01*
D02*
G37*
G36*
X17336800D02*
X17294501D01*
X17272206Y7708202D01*
X17251431Y7699596D01*
X17233592Y7685908D01*
X17219904Y7668068D01*
X17211298Y7647294D01*
X17210036Y7637699D01*
X17336800D01*
Y7711137D01*
D02*
G37*
G36*
X12012700Y7658468D02*
Y7632700D01*
X12038468D01*
X12034249Y7642885D01*
X12022885Y7654249D01*
X12012700Y7658468D01*
D02*
G37*
G36*
X11987300D02*
X11977115Y7654249D01*
X11965751Y7642885D01*
X11961532Y7632700D01*
X11987300D01*
Y7658468D01*
D02*
G37*
G36*
X12748468Y7647300D02*
X12722700D01*
Y7621532D01*
X12732885Y7625751D01*
X12744249Y7637115D01*
X12748468Y7647300D01*
D02*
G37*
G36*
X12697300D02*
X12671532D01*
X12675751Y7637115D01*
X12687115Y7625751D01*
X12697300Y7621532D01*
Y7647300D01*
D02*
G37*
G36*
X12038468Y7607300D02*
X12012700D01*
Y7581532D01*
X12022885Y7585751D01*
X12034249Y7597115D01*
X12038468Y7607300D01*
D02*
G37*
G36*
X11987300D02*
X11961532D01*
X11965751Y7597115D01*
X11977115Y7585751D01*
X11987300Y7581532D01*
Y7607300D01*
D02*
G37*
G36*
X17488965Y7612299D02*
X17362199D01*
Y7538863D01*
X17404500D01*
X17426794Y7541798D01*
X17447569Y7550403D01*
X17465408Y7564092D01*
X17479097Y7581932D01*
X17487701Y7602706D01*
X17488965Y7612299D01*
D02*
G37*
G36*
X17336800D02*
X17210036D01*
X17211298Y7602706D01*
X17219904Y7581932D01*
X17233592Y7564092D01*
X17251431Y7550403D01*
X17272206Y7541798D01*
X17294501Y7538863D01*
X17336800D01*
Y7612299D01*
D02*
G37*
G36*
X16835965Y7612299D02*
X16684200D01*
Y7538863D01*
X16751500D01*
X16773795Y7541798D01*
X16794568Y7550403D01*
X16812408Y7564092D01*
X16826097Y7581931D01*
X16834702Y7602706D01*
X16835965Y7612299D01*
D02*
G37*
G36*
X16658800D02*
X16507034D01*
X16508298Y7602706D01*
X16516904Y7581931D01*
X16530592Y7564092D01*
X16548431Y7550403D01*
X16569206Y7541798D01*
X16591499Y7538863D01*
X16658800D01*
Y7612299D01*
D02*
G37*
G36*
X13122701Y7538468D02*
Y7512700D01*
X13148468D01*
X13144250Y7522885D01*
X13132886Y7534249D01*
X13122701Y7538468D01*
D02*
G37*
G36*
X13097301D02*
X13087115Y7534249D01*
X13075751Y7522885D01*
X13071532Y7512700D01*
X13097301D01*
Y7538468D01*
D02*
G37*
G36*
X12482700D02*
Y7512700D01*
X12508468D01*
X12504249Y7522885D01*
X12492885Y7534249D01*
X12482700Y7538468D01*
D02*
G37*
G36*
X12457300D02*
X12447115Y7534249D01*
X12435751Y7522885D01*
X12431532Y7512700D01*
X12457300D01*
Y7538468D01*
D02*
G37*
G36*
X10165200Y7541792D02*
Y7505200D01*
X10201792D01*
X10195226Y7521049D01*
X10181049Y7535226D01*
X10165200Y7541792D01*
D02*
G37*
G36*
X10139800D02*
X10123950Y7535226D01*
X10109773Y7521049D01*
X10103208Y7505200D01*
X10139800D01*
Y7541792D01*
D02*
G37*
G36*
X16392700Y7518468D02*
Y7492700D01*
X16418468D01*
X16414249Y7502885D01*
X16402885Y7514249D01*
X16392700Y7518468D01*
D02*
G37*
G36*
X16367300D02*
X16357115Y7514249D01*
X16345750Y7502885D01*
X16341531Y7492700D01*
X16367300D01*
Y7518468D01*
D02*
G37*
G36*
X13148468Y7487300D02*
X13122701D01*
Y7461532D01*
X13132886Y7465751D01*
X13144250Y7477115D01*
X13148468Y7487300D01*
D02*
G37*
G36*
X13097301D02*
X13071532D01*
X13075751Y7477115D01*
X13087115Y7465751D01*
X13097301Y7461532D01*
Y7487300D01*
D02*
G37*
G36*
X12508468D02*
X12482700D01*
Y7461532D01*
X12492885Y7465751D01*
X12504249Y7477115D01*
X12508468Y7487300D01*
D02*
G37*
G36*
X12457300D02*
X12431532D01*
X12435751Y7477115D01*
X12447115Y7465751D01*
X12457300Y7461532D01*
Y7487300D01*
D02*
G37*
G36*
X10201792Y7479800D02*
X10165200D01*
Y7443208D01*
X10181049Y7449773D01*
X10195226Y7463950D01*
X10201792Y7479800D01*
D02*
G37*
G36*
X10139800D02*
X10103208D01*
X10109773Y7463950D01*
X10123950Y7449773D01*
X10139800Y7443208D01*
Y7479800D01*
D02*
G37*
G36*
X16418468Y7467300D02*
X16392700D01*
Y7441532D01*
X16402885Y7445751D01*
X16414249Y7457115D01*
X16418468Y7467300D01*
D02*
G37*
G36*
X16367300D02*
X16341531D01*
X16345750Y7457115D01*
X16357115Y7445751D01*
X16367300Y7441532D01*
Y7467300D01*
D02*
G37*
G36*
X12962700Y7458468D02*
Y7432700D01*
X12988467D01*
X12984248Y7442885D01*
X12972885Y7454249D01*
X12962700Y7458468D01*
D02*
G37*
G36*
X12937300D02*
X12927115Y7454249D01*
X12915752Y7442885D01*
X12911533Y7432700D01*
X12937300D01*
Y7458468D01*
D02*
G37*
G36*
X12402700D02*
Y7432700D01*
X12428468D01*
X12424249Y7442885D01*
X12412885Y7454249D01*
X12402700Y7458468D01*
D02*
G37*
G36*
X12377300D02*
X12367115Y7454249D01*
X12355751Y7442885D01*
X12351532Y7432700D01*
X12377300D01*
Y7458468D01*
D02*
G37*
G36*
X11582700Y7438468D02*
Y7412700D01*
X11608468D01*
X11604249Y7422885D01*
X11592885Y7434249D01*
X11582700Y7438468D01*
D02*
G37*
G36*
X11557300D02*
X11547115Y7434249D01*
X11535751Y7422885D01*
X11531532Y7412700D01*
X11557300D01*
Y7438468D01*
D02*
G37*
G36*
X12988467Y7407300D02*
X12962700D01*
Y7381532D01*
X12972885Y7385751D01*
X12984248Y7397115D01*
X12988467Y7407300D01*
D02*
G37*
G36*
X12937300D02*
X12911533D01*
X12915752Y7397115D01*
X12927115Y7385751D01*
X12937300Y7381532D01*
Y7407300D01*
D02*
G37*
G36*
X12428468D02*
X12402700D01*
Y7381532D01*
X12412885Y7385751D01*
X12424249Y7397115D01*
X12428468Y7407300D01*
D02*
G37*
G36*
X12377300D02*
X12351532D01*
X12355751Y7397115D01*
X12367115Y7385751D01*
X12377300Y7381532D01*
Y7407300D01*
D02*
G37*
G36*
X11608468Y7387300D02*
X11582700D01*
Y7361532D01*
X11592885Y7365751D01*
X11604249Y7377115D01*
X11608468Y7387300D01*
D02*
G37*
G36*
X11557300D02*
X11531532D01*
X11535751Y7377115D01*
X11547115Y7365751D01*
X11557300Y7361532D01*
Y7387300D01*
D02*
G37*
G36*
X9590500Y7375551D02*
X9548200D01*
Y7312200D01*
X9664879D01*
X9663959Y7319183D01*
X9656362Y7337525D01*
X9644276Y7353276D01*
X9628525Y7365362D01*
X9610183Y7372959D01*
X9590500Y7375551D01*
D02*
G37*
G36*
X9522800D02*
X9480500D01*
X9460816Y7372959D01*
X9442474Y7365362D01*
X9426724Y7353276D01*
X9414638Y7337525D01*
X9407040Y7319183D01*
X9406121Y7312200D01*
X9522800D01*
Y7375551D01*
D02*
G37*
G36*
X9182500Y7375887D02*
X9130200D01*
Y7312200D01*
X9233887D01*
Y7324500D01*
X9229975Y7344165D01*
X9218836Y7360836D01*
X9202165Y7371976D01*
X9182500Y7375887D01*
D02*
G37*
G36*
X9104800D02*
X9052500D01*
X9032835Y7371976D01*
X9016164Y7360836D01*
X9005024Y7344165D01*
X9001113Y7324500D01*
Y7312200D01*
X9104800D01*
Y7375887D01*
D02*
G37*
G36*
X13542700Y7319292D02*
Y7282700D01*
X13579292D01*
X13572726Y7298549D01*
X13558549Y7312727D01*
X13542700Y7319292D01*
D02*
G37*
G36*
X13517300D02*
X13501451Y7312727D01*
X13487273Y7298549D01*
X13480708Y7282700D01*
X13517300D01*
Y7319292D01*
D02*
G37*
G36*
X9772700D02*
Y7282700D01*
X9809292D01*
X9802727Y7298549D01*
X9788549Y7312727D01*
X9772700Y7319292D01*
D02*
G37*
G36*
X9747300D02*
X9731451Y7312727D01*
X9717273Y7298549D01*
X9710708Y7282700D01*
X9747300D01*
Y7319292D01*
D02*
G37*
G36*
X9664879Y7286800D02*
X9548200D01*
Y7223449D01*
X9590500D01*
X9610183Y7226041D01*
X9628525Y7233638D01*
X9644276Y7245724D01*
X9656362Y7261475D01*
X9663959Y7279817D01*
X9664879Y7286800D01*
D02*
G37*
G36*
X9522800D02*
X9406121D01*
X9407040Y7279817D01*
X9414638Y7261475D01*
X9426724Y7245724D01*
X9442474Y7233638D01*
X9460816Y7226041D01*
X9480500Y7223449D01*
X9522800D01*
Y7286800D01*
D02*
G37*
G36*
X9233887D02*
X9130200D01*
Y7223113D01*
X9182500D01*
X9202165Y7227024D01*
X9218836Y7238164D01*
X9229975Y7254835D01*
X9233887Y7274500D01*
Y7286800D01*
D02*
G37*
G36*
X9104800D02*
X9001113D01*
Y7274500D01*
X9005024Y7254835D01*
X9016164Y7238164D01*
X9032835Y7227024D01*
X9052500Y7223113D01*
X9104800D01*
Y7286800D01*
D02*
G37*
G36*
X13579292Y7257300D02*
X13542700D01*
Y7220708D01*
X13558549Y7227273D01*
X13572726Y7241451D01*
X13579292Y7257300D01*
D02*
G37*
G36*
X13517300D02*
X13480708D01*
X13487273Y7241451D01*
X13501451Y7227273D01*
X13517300Y7220708D01*
Y7257300D01*
D02*
G37*
G36*
X9809292D02*
X9772700D01*
Y7220708D01*
X9788549Y7227273D01*
X9802727Y7241451D01*
X9809292Y7257300D01*
D02*
G37*
G36*
X9747300D02*
X9710708D01*
X9717273Y7241451D01*
X9731451Y7227273D01*
X9747300Y7220708D01*
Y7257300D01*
D02*
G37*
G36*
X14862700Y7233880D02*
Y7202700D01*
X14893880D01*
X14888487Y7215717D01*
X14875717Y7228488D01*
X14862700Y7233880D01*
D02*
G37*
G36*
X14837300D02*
X14824283Y7228488D01*
X14811513Y7215717D01*
X14806120Y7202700D01*
X14837300D01*
Y7233880D01*
D02*
G37*
G36*
X14893880Y7177300D02*
X14862700D01*
Y7146120D01*
X14875717Y7151512D01*
X14888487Y7164283D01*
X14893880Y7177300D01*
D02*
G37*
G36*
X14837300D02*
X14806120D01*
X14811513Y7164283D01*
X14824283Y7151512D01*
X14837300Y7146120D01*
Y7177300D01*
D02*
G37*
G36*
X9493954Y7199000D02*
X9477046D01*
X9461426Y7192530D01*
X9449470Y7180574D01*
X9443000Y7164954D01*
Y7148046D01*
X9449470Y7132426D01*
X9461426Y7120470D01*
X9477046Y7114000D01*
X9493954D01*
X9509574Y7120470D01*
X9521530Y7132426D01*
X9528000Y7148046D01*
Y7164954D01*
X9521530Y7180574D01*
X9509574Y7192530D01*
X9493954Y7199000D01*
D02*
G37*
G36*
X16182700Y7038468D02*
Y7012700D01*
X16208469D01*
X16204250Y7022885D01*
X16192885Y7034250D01*
X16182700Y7038468D01*
D02*
G37*
G36*
X16157300D02*
X16147116Y7034250D01*
X16135751Y7022885D01*
X16131532Y7012700D01*
X16157300D01*
Y7038468D01*
D02*
G37*
G36*
X16208469Y6987300D02*
X16182700D01*
Y6961532D01*
X16192885Y6965751D01*
X16204250Y6977116D01*
X16208469Y6987300D01*
D02*
G37*
G36*
X16157300D02*
X16131532D01*
X16135751Y6977116D01*
X16147116Y6965751D01*
X16157300Y6961532D01*
Y6987300D01*
D02*
G37*
G36*
X12492700Y6869292D02*
Y6832700D01*
X12529292D01*
X12522727Y6848549D01*
X12508549Y6862727D01*
X12492700Y6869292D01*
D02*
G37*
G36*
X12467300D02*
X12451451Y6862727D01*
X12437273Y6848549D01*
X12430708Y6832700D01*
X12467300D01*
Y6869292D01*
D02*
G37*
G36*
X15582700Y6819292D02*
Y6782700D01*
X15619292D01*
X15612727Y6798549D01*
X15598549Y6812727D01*
X15582700Y6819292D01*
D02*
G37*
G36*
X15557300D02*
X15541451Y6812727D01*
X15527274Y6798549D01*
X15520708Y6782700D01*
X15557300D01*
Y6819292D01*
D02*
G37*
G36*
X12529292Y6807300D02*
X12492700D01*
Y6770708D01*
X12508549Y6777273D01*
X12522727Y6791451D01*
X12529292Y6807300D01*
D02*
G37*
G36*
X12467300D02*
X12430708D01*
X12437273Y6791451D01*
X12451451Y6777273D01*
X12467300Y6770708D01*
Y6807300D01*
D02*
G37*
G36*
X15619292Y6757300D02*
X15582700D01*
Y6720708D01*
X15598549Y6727273D01*
X15612727Y6741451D01*
X15619292Y6757300D01*
D02*
G37*
G36*
X15557300D02*
X15520708D01*
X15527274Y6741451D01*
X15541451Y6727273D01*
X15557300Y6720708D01*
Y6757300D01*
D02*
G37*
G36*
X17450032Y6880000D02*
X17428967D01*
X17408621Y6874548D01*
X17390379Y6864016D01*
X17375484Y6849121D01*
X17364952Y6830879D01*
X17359500Y6810532D01*
Y6789468D01*
X17364952Y6769121D01*
X17375484Y6750879D01*
X17390379Y6735984D01*
X17408621Y6725452D01*
X17428967Y6720000D01*
X17450032D01*
X17470380Y6725452D01*
X17488622Y6735984D01*
X17503516Y6750879D01*
X17514047Y6769121D01*
X17519501Y6789468D01*
Y6810532D01*
X17514047Y6830879D01*
X17503516Y6849121D01*
X17488622Y6864016D01*
X17470380Y6874548D01*
X17450032Y6880000D01*
D02*
G37*
G36*
X16232700Y6618468D02*
Y6592700D01*
X16258469D01*
X16254250Y6602885D01*
X16242885Y6614249D01*
X16232700Y6618468D01*
D02*
G37*
G36*
X16207300D02*
X16197115Y6614249D01*
X16185751Y6602885D01*
X16181532Y6592700D01*
X16207300D01*
Y6618468D01*
D02*
G37*
G36*
X16258469Y6567300D02*
X16232700D01*
Y6541532D01*
X16242885Y6545751D01*
X16254250Y6557115D01*
X16258469Y6567300D01*
D02*
G37*
G36*
X16207300D02*
X16181532D01*
X16185751Y6557115D01*
X16197115Y6545751D01*
X16207300Y6541532D01*
Y6567300D01*
D02*
G37*
G36*
X9493954Y6621000D02*
X9477046D01*
X9461426Y6614530D01*
X9449470Y6602575D01*
X9443000Y6586954D01*
Y6570046D01*
X9449470Y6554426D01*
X9461426Y6542470D01*
X9477046Y6536000D01*
X9493954D01*
X9509574Y6542470D01*
X9521530Y6554426D01*
X9528000Y6570046D01*
Y6586954D01*
X9521530Y6602575D01*
X9509574Y6614530D01*
X9493954Y6621000D01*
D02*
G37*
G36*
X9590500Y6511551D02*
X9548200D01*
Y6448200D01*
X9664879D01*
X9663959Y6455184D01*
X9656362Y6473526D01*
X9644276Y6489276D01*
X9628525Y6501362D01*
X9610183Y6508960D01*
X9590500Y6511551D01*
D02*
G37*
G36*
X9522800D02*
X9480500D01*
X9460816Y6508960D01*
X9442474Y6501362D01*
X9426724Y6489276D01*
X9414638Y6473526D01*
X9407040Y6455184D01*
X9406121Y6448200D01*
X9522800D01*
Y6511551D01*
D02*
G37*
G36*
X9182500Y6511887D02*
X9130200D01*
Y6448200D01*
X9233887D01*
Y6460500D01*
X9229975Y6480165D01*
X9218836Y6496836D01*
X9202165Y6507976D01*
X9182500Y6511887D01*
D02*
G37*
G36*
X9104800D02*
X9052500D01*
X9032835Y6507976D01*
X9016164Y6496836D01*
X9005024Y6480165D01*
X9001113Y6460500D01*
Y6448200D01*
X9104800D01*
Y6511887D01*
D02*
G37*
G36*
X14552699Y6399292D02*
Y6362700D01*
X14589291D01*
X14582727Y6378549D01*
X14568549Y6392727D01*
X14552699Y6399292D01*
D02*
G37*
G36*
X14527299D02*
X14511452Y6392727D01*
X14497273Y6378549D01*
X14490707Y6362700D01*
X14527299D01*
Y6399292D01*
D02*
G37*
G36*
X9664879Y6422800D02*
X9548200D01*
Y6359450D01*
X9590500D01*
X9610183Y6362041D01*
X9628525Y6369639D01*
X9644276Y6381724D01*
X9656362Y6397475D01*
X9663959Y6415817D01*
X9664879Y6422800D01*
D02*
G37*
G36*
X9522800D02*
X9406121D01*
X9407040Y6415817D01*
X9414638Y6397475D01*
X9426724Y6381724D01*
X9442474Y6369639D01*
X9460816Y6362041D01*
X9480500Y6359450D01*
X9522800D01*
Y6422800D01*
D02*
G37*
G36*
X9233887D02*
X9130200D01*
Y6359113D01*
X9182500D01*
X9202165Y6363025D01*
X9218836Y6374164D01*
X9229975Y6390835D01*
X9233887Y6410500D01*
Y6422800D01*
D02*
G37*
G36*
X9104800D02*
X9001113D01*
Y6410500D01*
X9005024Y6390835D01*
X9016164Y6374164D01*
X9032835Y6363025D01*
X9052500Y6359113D01*
X9104800D01*
Y6422800D01*
D02*
G37*
G36*
X14589291Y6337300D02*
X14552699D01*
Y6300708D01*
X14568549Y6307273D01*
X14582727Y6321451D01*
X14589291Y6337300D01*
D02*
G37*
G36*
X14527299D02*
X14490707D01*
X14497273Y6321451D01*
X14511452Y6307273D01*
X14527299Y6300708D01*
Y6337300D01*
D02*
G37*
G36*
X11882700Y6213880D02*
Y6182700D01*
X11913880D01*
X11908488Y6195717D01*
X11895717Y6208488D01*
X11882700Y6213880D01*
D02*
G37*
G36*
X11857300D02*
X11844283Y6208488D01*
X11831512Y6195717D01*
X11826120Y6182700D01*
X11857300D01*
Y6213880D01*
D02*
G37*
G36*
X13032700Y6179292D02*
Y6142700D01*
X13069292D01*
X13062727Y6158549D01*
X13048549Y6172727D01*
X13032700Y6179292D01*
D02*
G37*
G36*
X13007300D02*
X12991451Y6172727D01*
X12977274Y6158549D01*
X12970708Y6142700D01*
X13007300D01*
Y6179292D01*
D02*
G37*
G36*
X10572700Y6169292D02*
Y6132700D01*
X10609292D01*
X10602727Y6148549D01*
X10588549Y6162727D01*
X10572700Y6169292D01*
D02*
G37*
G36*
X10547300D02*
X10531451Y6162727D01*
X10517273Y6148549D01*
X10510708Y6132700D01*
X10547300D01*
Y6169292D01*
D02*
G37*
G36*
X11913880Y6157300D02*
X11882700D01*
Y6126120D01*
X11895717Y6131512D01*
X11908488Y6144283D01*
X11913880Y6157300D01*
D02*
G37*
G36*
X11857300D02*
X11826120D01*
X11831512Y6144283D01*
X11844283Y6131512D01*
X11857300Y6126120D01*
Y6157300D01*
D02*
G37*
G36*
X9732700Y6139292D02*
Y6102700D01*
X9769292D01*
X9762727Y6118549D01*
X9748549Y6132727D01*
X9732700Y6139292D01*
D02*
G37*
G36*
X9707300D02*
X9691451Y6132727D01*
X9677273Y6118549D01*
X9670708Y6102700D01*
X9707300D01*
Y6139292D01*
D02*
G37*
G36*
X13069292Y6117300D02*
X13032700D01*
Y6080708D01*
X13048549Y6087273D01*
X13062727Y6101451D01*
X13069292Y6117300D01*
D02*
G37*
G36*
X13007300D02*
X12970708D01*
X12977274Y6101451D01*
X12991451Y6087273D01*
X13007300Y6080708D01*
Y6117300D01*
D02*
G37*
G36*
X10609292Y6107300D02*
X10572700D01*
Y6070708D01*
X10588549Y6077273D01*
X10602727Y6091451D01*
X10609292Y6107300D01*
D02*
G37*
G36*
X10547300D02*
X10510708D01*
X10517273Y6091451D01*
X10531451Y6077273D01*
X10547300Y6070708D01*
Y6107300D01*
D02*
G37*
G36*
X9769292Y6077300D02*
X9732700D01*
Y6040708D01*
X9748549Y6047273D01*
X9762727Y6061451D01*
X9769292Y6077300D01*
D02*
G37*
G36*
X9707300D02*
X9670708D01*
X9677273Y6061451D01*
X9691451Y6047273D01*
X9707300Y6040708D01*
Y6077300D01*
D02*
G37*
G36*
X16751500Y6061137D02*
X16684201D01*
Y5987700D01*
X16835965D01*
X16834702Y5997294D01*
X16826097Y6018069D01*
X16812408Y6035908D01*
X16794568Y6049597D01*
X16773795Y6058202D01*
X16751500Y6061137D01*
D02*
G37*
G36*
X16658801D02*
X16591499D01*
X16569206Y6058202D01*
X16548431Y6049597D01*
X16530592Y6035908D01*
X16516904Y6018069D01*
X16508298Y5997294D01*
X16507034Y5987700D01*
X16658801D01*
Y6061137D01*
D02*
G37*
G36*
X17404500D02*
X17362201D01*
Y5987700D01*
X17488965D01*
X17487701Y5997294D01*
X17479097Y6018068D01*
X17465408Y6035908D01*
X17447569Y6049597D01*
X17426794Y6058202D01*
X17404500Y6061137D01*
D02*
G37*
G36*
X17336801D02*
X17294501D01*
X17272206Y6058202D01*
X17251431Y6049597D01*
X17233592Y6035908D01*
X17219904Y6018068D01*
X17211298Y5997294D01*
X17210036Y5987700D01*
X17336801D01*
Y6061137D01*
D02*
G37*
G36*
X17488965Y5962300D02*
X17362201D01*
Y5888864D01*
X17404500D01*
X17426794Y5891798D01*
X17447569Y5900404D01*
X17465408Y5914092D01*
X17479097Y5931932D01*
X17487701Y5952706D01*
X17488965Y5962300D01*
D02*
G37*
G36*
X17336801D02*
X17210036D01*
X17211298Y5952706D01*
X17219904Y5931932D01*
X17233592Y5914092D01*
X17251431Y5900404D01*
X17272206Y5891798D01*
X17294501Y5888864D01*
X17336801D01*
Y5962300D01*
D02*
G37*
G36*
X16835965Y5962300D02*
X16684201D01*
Y5888864D01*
X16751500D01*
X16773795Y5891798D01*
X16794568Y5900404D01*
X16812408Y5914092D01*
X16826097Y5931932D01*
X16834702Y5952706D01*
X16835965Y5962300D01*
D02*
G37*
G36*
X16658801D02*
X16507034D01*
X16508298Y5952706D01*
X16516904Y5931932D01*
X16530592Y5914092D01*
X16548431Y5900404D01*
X16569206Y5891798D01*
X16591499Y5888864D01*
X16658801D01*
Y5962300D01*
D02*
G37*
G36*
X12931700Y5710292D02*
Y5673700D01*
X12968292D01*
X12961726Y5689549D01*
X12947549Y5703727D01*
X12931700Y5710292D01*
D02*
G37*
G36*
X12906300D02*
X12890451Y5703727D01*
X12876273Y5689549D01*
X12869708Y5673700D01*
X12906300D01*
Y5710292D01*
D02*
G37*
G36*
X15292700Y5699292D02*
Y5662700D01*
X15329292D01*
X15322726Y5678549D01*
X15308549Y5692727D01*
X15292700Y5699292D01*
D02*
G37*
G36*
X15267300D02*
X15251451Y5692727D01*
X15237273Y5678549D01*
X15230708Y5662700D01*
X15267300D01*
Y5699292D01*
D02*
G37*
G36*
X12968292Y5648300D02*
X12931700D01*
Y5611708D01*
X12947549Y5618273D01*
X12961726Y5632451D01*
X12968292Y5648300D01*
D02*
G37*
G36*
X12906300D02*
X12869708D01*
X12876273Y5632451D01*
X12890451Y5618273D01*
X12906300Y5611708D01*
Y5648300D01*
D02*
G37*
G36*
X15329292Y5637300D02*
X15292700D01*
Y5600708D01*
X15308549Y5607273D01*
X15322726Y5621451D01*
X15329292Y5637300D01*
D02*
G37*
G36*
X15267300D02*
X15230708D01*
X15237273Y5621451D01*
X15251451Y5607273D01*
X15267300Y5600708D01*
Y5637300D01*
D02*
G37*
G36*
X14862700Y5249292D02*
Y5212700D01*
X14899292D01*
X14892728Y5228549D01*
X14878549Y5242727D01*
X14862700Y5249292D01*
D02*
G37*
G36*
X14837300D02*
X14821451Y5242727D01*
X14807272Y5228549D01*
X14800708Y5212700D01*
X14837300D01*
Y5249292D01*
D02*
G37*
G36*
X14899292Y5187300D02*
X14862700D01*
Y5150708D01*
X14878549Y5157273D01*
X14892728Y5171451D01*
X14899292Y5187300D01*
D02*
G37*
G36*
X14837300D02*
X14800708D01*
X14807272Y5171451D01*
X14821451Y5157273D01*
X14837300Y5150708D01*
Y5187300D01*
D02*
G37*
G36*
X12673950Y5104292D02*
Y5067700D01*
X12710542D01*
X12703977Y5083549D01*
X12689800Y5097727D01*
X12673950Y5104292D01*
D02*
G37*
G36*
X12648550D02*
X12632701Y5097727D01*
X12618523Y5083549D01*
X12611958Y5067700D01*
X12648550D01*
Y5104292D01*
D02*
G37*
G36*
X17175607Y5550000D02*
X17124393D01*
X17074161Y5540008D01*
X17026843Y5520409D01*
X16984261Y5491955D01*
X16948045Y5455740D01*
X16919591Y5413156D01*
X16899992Y5365839D01*
X16889999Y5315608D01*
Y5264392D01*
X16899992Y5214161D01*
X16919591Y5166844D01*
X16948045Y5124260D01*
X16984261Y5088045D01*
X17026843Y5059591D01*
X17074161Y5039992D01*
X17124393Y5030000D01*
X17175607D01*
X17225839Y5039992D01*
X17273157Y5059591D01*
X17315739Y5088045D01*
X17351955Y5124260D01*
X17380409Y5166844D01*
X17400008Y5214161D01*
X17410001Y5264392D01*
Y5315608D01*
X17400008Y5365839D01*
X17380409Y5413156D01*
X17351955Y5455740D01*
X17315739Y5491955D01*
X17273157Y5520409D01*
X17225839Y5540008D01*
X17175607Y5550000D01*
D02*
G37*
G36*
X12710542Y5042300D02*
X12673950D01*
Y5005708D01*
X12689800Y5012273D01*
X12703977Y5026451D01*
X12710542Y5042300D01*
D02*
G37*
G36*
X12648550D02*
X12611958D01*
X12618523Y5026451D01*
X12632701Y5012273D01*
X12648550Y5005708D01*
Y5042300D01*
D02*
G37*
G36*
X10452700Y5029292D02*
Y4992700D01*
X10489292D01*
X10482727Y5008549D01*
X10468549Y5022727D01*
X10452700Y5029292D01*
D02*
G37*
G36*
X10427300D02*
X10411451Y5022727D01*
X10397273Y5008549D01*
X10390708Y4992700D01*
X10427300D01*
Y5029292D01*
D02*
G37*
G36*
X9525608Y5470000D02*
X9474392D01*
X9424161Y5460008D01*
X9376844Y5440409D01*
X9334260Y5411955D01*
X9298045Y5375740D01*
X9269591Y5333156D01*
X9249992Y5285839D01*
X9240000Y5235608D01*
Y5184392D01*
X9249992Y5134161D01*
X9269591Y5086844D01*
X9298045Y5044260D01*
X9334260Y5008045D01*
X9376844Y4979591D01*
X9424161Y4959992D01*
X9474392Y4950000D01*
X9525608D01*
X9575839Y4959992D01*
X9623156Y4979591D01*
X9665740Y5008045D01*
X9701955Y5044260D01*
X9730409Y5086844D01*
X9750008Y5134161D01*
X9760000Y5184392D01*
Y5235608D01*
X9750008Y5285839D01*
X9730409Y5333156D01*
X9701955Y5375740D01*
X9665740Y5411955D01*
X9623156Y5440409D01*
X9575839Y5460008D01*
X9525608Y5470000D01*
D02*
G37*
G36*
X10489292Y4967300D02*
X10452700D01*
Y4930708D01*
X10468549Y4937273D01*
X10482727Y4951451D01*
X10489292Y4967300D01*
D02*
G37*
G36*
X10427300D02*
X10390708D01*
X10397273Y4951451D01*
X10411451Y4937273D01*
X10427300Y4930708D01*
Y4967300D01*
D02*
G37*
%LPD*%
D48*
X9485500Y7156500D02*
D03*
Y6578500D02*
D03*
X9488000Y8634000D02*
D03*
Y8056000D02*
D03*
D49*
X9535500Y6435500D02*
D03*
Y7299500D02*
D03*
X9538000Y7913000D02*
D03*
Y8777000D02*
D03*
D50*
X9117500Y6435500D02*
D03*
Y7299500D02*
D03*
X9120000Y7913000D02*
D03*
Y8777000D02*
D03*
D51*
X16671500Y5975000D02*
D03*
Y7625000D02*
D03*
D52*
X17349500Y5975000D02*
D03*
Y7625000D02*
D03*
D53*
X17439500Y6800000D02*
D03*
D54*
X14500000Y8630000D02*
D03*
X15920000Y8760000D02*
D03*
X12919000Y5661000D02*
D03*
X13530000Y7270000D02*
D03*
X12480000Y6820000D02*
D03*
X10560000Y6120000D02*
D03*
X15289999Y8340000D02*
D03*
X11170000Y8280000D02*
D03*
X15430000Y9490000D02*
D03*
X15139999Y9600000D02*
D03*
X16470000Y9590000D02*
D03*
X13020000Y6130000D02*
D03*
X9710000Y8730000D02*
D03*
X9700000Y7990000D02*
D03*
X15570000Y6770000D02*
D03*
X14839999Y10630000D02*
D03*
X12490000Y9790000D02*
D03*
X13450000Y9750000D02*
D03*
X14539999Y6350000D02*
D03*
X15280000Y5650000D02*
D03*
X14850000Y5200000D02*
D03*
X12661250Y5055000D02*
D03*
X10440000Y4980000D02*
D03*
X9720000Y6090000D02*
D03*
X9760000Y7270000D02*
D03*
X10152500Y7492500D02*
D03*
X10430000Y9580000D02*
D03*
X10520000Y9160000D02*
D03*
X11600000Y9200000D02*
D03*
X17530000Y8880000D02*
D03*
X16500000Y8790000D02*
D03*
X17620000Y8350000D02*
D03*
X17610001Y9940000D02*
D03*
X12286569Y10440000D02*
D03*
X10827300Y10477100D02*
D03*
X12708400Y10627100D02*
D03*
D55*
X12470000Y7980000D02*
D03*
X12550000Y8060000D02*
D03*
X12390000Y8540000D02*
D03*
X12470000Y8380000D02*
D03*
X12710000Y8140000D02*
D03*
Y7660000D02*
D03*
X12390000Y8780000D02*
D03*
X12628759Y8438711D02*
D03*
X13121265Y8528735D02*
D03*
X13030000Y8620000D02*
D03*
X12950000Y8380000D02*
D03*
X12231658Y8221658D02*
D03*
X16380000Y7480000D02*
D03*
X12710000Y8860000D02*
D03*
Y8780000D02*
D03*
X12790000D02*
D03*
X13030000Y8700000D02*
D03*
X12000000Y7620000D02*
D03*
X12470000Y7500000D02*
D03*
X13110001Y8300000D02*
D03*
X13030000Y8380000D02*
D03*
X12550000Y8300000D02*
D03*
X11570000Y7400000D02*
D03*
X13270000Y8620000D02*
D03*
X13430000Y8540000D02*
D03*
X12863342Y8133342D02*
D03*
X12790000Y8220000D02*
D03*
X13030000Y8140000D02*
D03*
X12390000Y7980000D02*
D03*
X13110001Y7500000D02*
D03*
X13110001Y7820000D02*
D03*
X13430000D02*
D03*
X13850000Y8210000D02*
D03*
X12150000Y7980000D02*
D03*
X12230000Y7820000D02*
D03*
X12950000Y7420000D02*
D03*
X12220000Y8930000D02*
D03*
X12470000Y8860000D02*
D03*
X16170000Y7000000D02*
D03*
X16220000Y6580000D02*
D03*
X13270000Y8780000D02*
D03*
X13430000D02*
D03*
X12390000Y7420000D02*
D03*
X12790000Y7980000D02*
D03*
X12950000D02*
D03*
X13030000Y8220000D02*
D03*
X12310000Y8620000D02*
D03*
X13030000Y7900000D02*
D03*
Y7820000D02*
D03*
X13430000Y8300000D02*
D03*
Y8220000D02*
D03*
X12870000Y8780000D02*
D03*
X12150000D02*
D03*
X12470000Y8220000D02*
D03*
X12390000Y8300000D02*
D03*
X12230000Y8460000D02*
D03*
Y8620000D02*
D03*
D56*
X14600000Y7800000D02*
D03*
X11870000Y6170000D02*
D03*
X14850000Y7190000D02*
D03*
D57*
X17150000Y5290000D02*
D03*
X9500000Y5210000D02*
D03*
X9510000Y10490000D02*
D03*
X17160001Y10540000D02*
D03*
D58*
X9310000Y11070000D02*
X17389999D01*
X17780000Y10680000D01*
Y5170000D02*
Y10680000D01*
X17250000Y4640000D02*
X17780000Y5170000D01*
X9380000Y4640000D02*
X17250000D01*
X8860000Y5160000D02*
X9380000Y4640000D01*
X8860000Y5160000D02*
Y10620000D01*
X9310000Y11070000D01*
%TF.MD5,902d75c1236997bde786db513ca9f03e*%
M02*
