%TF.GenerationSoftware,Altium Limited,Altium Designer,23.4.1 (23)*%
G04 Layer_Physical_Order=1*
G04 Layer_Color=255*
%FSLAX45Y45*%
%MOMM*%
%TF.SameCoordinates,C80D94D6-ACD9-4930-820E-424AA932BAC3*%
%TF.FilePolarity,Positive*%
%TF.FileFunction,Copper,L1,Top,Signal*%
%TF.Part,Single*%
G01*
G75*
%TA.AperFunction,SMDPad,CuDef*%
G04:AMPARAMS|DCode=10|XSize=1.21mm|YSize=0.59mm|CornerRadius=0.1475mm|HoleSize=0mm|Usage=FLASHONLY|Rotation=270.000|XOffset=0mm|YOffset=0mm|HoleType=Round|Shape=RoundedRectangle|*
%AMROUNDEDRECTD10*
21,1,1.21000,0.29500,0,0,270.0*
21,1,0.91500,0.59000,0,0,270.0*
1,1,0.29500,-0.14750,-0.45750*
1,1,0.29500,-0.14750,0.45750*
1,1,0.29500,0.14750,0.45750*
1,1,0.29500,0.14750,-0.45750*
%
%ADD10ROUNDEDRECTD10*%
%ADD11R,1.20000X1.45000*%
%TA.AperFunction,BGAPad,CuDef*%
%ADD12R,1.60000X1.60000*%
%TA.AperFunction,ConnectorPad*%
%ADD13R,1.15000X0.30000*%
%ADD14R,1.15000X0.60000*%
%TA.AperFunction,SMDPad,CuDef*%
%ADD15R,0.54213X1.70637*%
G04:AMPARAMS|DCode=16|XSize=1.70637mm|YSize=0.54213mm|CornerRadius=0.27107mm|HoleSize=0mm|Usage=FLASHONLY|Rotation=270.000|XOffset=0mm|YOffset=0mm|HoleType=Round|Shape=RoundedRectangle|*
%AMROUNDEDRECTD16*
21,1,1.70637,0.00000,0,0,270.0*
21,1,1.16424,0.54213,0,0,270.0*
1,1,0.54213,0.00000,-0.58212*
1,1,0.54213,0.00000,0.58212*
1,1,0.54213,0.00000,0.58212*
1,1,0.54213,0.00000,-0.58212*
%
%ADD16ROUNDEDRECTD16*%
%ADD17R,0.80000X0.80000*%
%ADD18R,1.20000X1.20000*%
%ADD19R,1.40000X2.70000*%
%ADD20R,2.00000X0.70000*%
%ADD21R,2.60000X1.50000*%
%ADD22R,2.60000X1.00000*%
%ADD23R,0.81213X0.75814*%
%ADD24R,1.30606X1.05822*%
%ADD25R,1.30000X1.10000*%
%ADD26R,0.87213X1.00429*%
G04:AMPARAMS|DCode=27|XSize=1.00429mm|YSize=0.87213mm|CornerRadius=0.43606mm|HoleSize=0mm|Usage=FLASHONLY|Rotation=270.000|XOffset=0mm|YOffset=0mm|HoleType=Round|Shape=RoundedRectangle|*
%AMROUNDEDRECTD27*
21,1,1.00429,0.00000,0,0,270.0*
21,1,0.13216,0.87213,0,0,270.0*
1,1,0.87213,0.00000,-0.06608*
1,1,0.87213,0.00000,0.06608*
1,1,0.87213,0.00000,0.06608*
1,1,0.87213,0.00000,-0.06608*
%
%ADD27ROUNDEDRECTD27*%
G04:AMPARAMS|DCode=28|XSize=1.00429mm|YSize=3.18213mm|CornerRadius=0.43687mm|HoleSize=0mm|Usage=FLASHONLY|Rotation=270.000|XOffset=0mm|YOffset=0mm|HoleType=Round|Shape=RoundedRectangle|*
%AMROUNDEDRECTD28*
21,1,1.00429,2.30840,0,0,270.0*
21,1,0.13056,3.18213,0,0,270.0*
1,1,0.87373,-1.15420,-0.06528*
1,1,0.87373,-1.15420,0.06528*
1,1,0.87373,1.15420,0.06528*
1,1,0.87373,1.15420,-0.06528*
%
%ADD28ROUNDEDRECTD28*%
%TA.AperFunction,ConnectorPad*%
%ADD29R,2.40000X0.28000*%
%TA.AperFunction,SMDPad,CuDef*%
%ADD30R,1.50000X0.55000*%
%ADD31R,0.55000X1.50000*%
%TA.AperFunction,BGAPad,CuDef*%
%ADD32C,0.45000*%
%ADD33C,0.25000*%
%TA.AperFunction,ConnectorPad*%
%ADD34R,0.60000X2.20000*%
%ADD35R,1.80000X2.60000*%
%TA.AperFunction,SMDPad,CuDef*%
%ADD36R,0.75814X0.81213*%
%ADD37R,1.05822X1.30606*%
%ADD38R,1.45000X1.20000*%
%ADD39R,1.00429X0.87213*%
G04:AMPARAMS|DCode=40|XSize=1.00429mm|YSize=0.87213mm|CornerRadius=0.43606mm|HoleSize=0mm|Usage=FLASHONLY|Rotation=0.000|XOffset=0mm|YOffset=0mm|HoleType=Round|Shape=RoundedRectangle|*
%AMROUNDEDRECTD40*
21,1,1.00429,0.00000,0,0,0.0*
21,1,0.13216,0.87213,0,0,0.0*
1,1,0.87213,0.06608,0.00000*
1,1,0.87213,-0.06608,0.00000*
1,1,0.87213,-0.06608,0.00000*
1,1,0.87213,0.06608,0.00000*
%
%ADD40ROUNDEDRECTD40*%
G04:AMPARAMS|DCode=41|XSize=1.00429mm|YSize=3.18213mm|CornerRadius=0.43687mm|HoleSize=0mm|Usage=FLASHONLY|Rotation=0.000|XOffset=0mm|YOffset=0mm|HoleType=Round|Shape=RoundedRectangle|*
%AMROUNDEDRECTD41*
21,1,1.00429,2.30840,0,0,0.0*
21,1,0.13056,3.18213,0,0,0.0*
1,1,0.87373,0.06528,-1.15420*
1,1,0.87373,-0.06528,-1.15420*
1,1,0.87373,-0.06528,1.15420*
1,1,0.87373,0.06528,1.15420*
%
%ADD41ROUNDEDRECTD41*%
%TA.AperFunction,BGAPad,CuDef*%
%ADD42R,1.60000X1.60000*%
%TA.AperFunction,Conductor*%
%ADD43C,0.40000*%
%ADD44C,0.15000*%
%ADD45C,0.30000*%
%ADD46C,0.25400*%
%ADD47C,0.20000*%
%TA.AperFunction,ComponentPad*%
%ADD48C,0.65000*%
%ADD49O,2.10000X1.00000*%
G04:AMPARAMS|DCode=50|XSize=1.8mm|YSize=1mm|CornerRadius=0.25mm|HoleSize=0mm|Usage=FLASHONLY|Rotation=0.000|XOffset=0mm|YOffset=0mm|HoleType=Round|Shape=RoundedRectangle|*
%AMROUNDEDRECTD50*
21,1,1.80000,0.50000,0,0,0.0*
21,1,1.30000,1.00000,0,0,0.0*
1,1,0.50000,0.65000,-0.25000*
1,1,0.50000,-0.65000,-0.25000*
1,1,0.50000,-0.65000,0.25000*
1,1,0.50000,0.65000,0.25000*
%
%ADD50ROUNDEDRECTD50*%
G04:AMPARAMS|DCode=51|XSize=1.2mm|YSize=2.8mm|CornerRadius=0.6mm|HoleSize=0mm|Usage=FLASHONLY|Rotation=90.000|XOffset=0mm|YOffset=0mm|HoleType=Round|Shape=RoundedRectangle|*
%AMROUNDEDRECTD51*
21,1,1.20000,1.60000,0,0,90.0*
21,1,0.00000,2.80000,0,0,90.0*
1,1,1.20000,0.80000,0.00000*
1,1,1.20000,0.80000,0.00000*
1,1,1.20000,-0.80000,0.00000*
1,1,1.20000,-0.80000,0.00000*
%
%ADD51ROUNDEDRECTD51*%
G04:AMPARAMS|DCode=52|XSize=1.2mm|YSize=2.3mm|CornerRadius=0.6mm|HoleSize=0mm|Usage=FLASHONLY|Rotation=90.000|XOffset=0mm|YOffset=0mm|HoleType=Round|Shape=RoundedRectangle|*
%AMROUNDEDRECTD52*
21,1,1.20000,1.10000,0,0,90.0*
21,1,0.00000,2.30000,0,0,90.0*
1,1,1.20000,0.55000,0.00000*
1,1,1.20000,0.55000,0.00000*
1,1,1.20000,-0.55000,0.00000*
1,1,1.20000,-0.55000,0.00000*
%
%ADD52ROUNDEDRECTD52*%
%ADD53C,1.40000*%
%TA.AperFunction,ViaPad*%
%ADD54C,0.50000*%
%ADD55C,0.30000*%
%ADD56C,0.40000*%
%ADD57C,5.00000*%
D10*
X11265000Y7924500D02*
D03*
X11075000D02*
D03*
Y8175500D02*
D03*
X11170000D02*
D03*
X11265000D02*
D03*
Y7399000D02*
D03*
X11075000D02*
D03*
Y7650000D02*
D03*
X11170000D02*
D03*
X11265000D02*
D03*
D11*
X11770000Y7290000D02*
D03*
X11570000D02*
D03*
D12*
X13164000Y9370000D02*
D03*
X12656000D02*
D03*
Y9750000D02*
D03*
X13164000D02*
D03*
X12910001Y9370000D02*
D03*
Y9750000D02*
D03*
D13*
X9593000Y7042500D02*
D03*
Y6992500D02*
D03*
Y6942500D02*
D03*
Y6692500D02*
D03*
Y6742500D02*
D03*
Y6792500D02*
D03*
Y6892500D02*
D03*
Y6842500D02*
D03*
X9595500Y8520000D02*
D03*
Y8470000D02*
D03*
Y8420000D02*
D03*
Y8170000D02*
D03*
Y8220000D02*
D03*
Y8270000D02*
D03*
Y8370000D02*
D03*
Y8320000D02*
D03*
D14*
X9593000Y6627500D02*
D03*
Y7107500D02*
D03*
Y6547500D02*
D03*
Y7187500D02*
D03*
X9595500Y8105000D02*
D03*
Y8585000D02*
D03*
Y8025000D02*
D03*
Y8665000D02*
D03*
D15*
X13450500Y6123217D02*
D03*
D16*
X13323500D02*
D03*
X13196500D02*
D03*
X13069501D02*
D03*
Y5656783D02*
D03*
X13196500D02*
D03*
X13323500D02*
D03*
X13450500D02*
D03*
D17*
X11762500Y7560000D02*
D03*
X11597500D02*
D03*
X15862500Y8650000D02*
D03*
X15697501D02*
D03*
D18*
X16382500Y9590000D02*
D03*
D19*
X16392500Y8795000D02*
D03*
Y9285000D02*
D03*
D20*
X17662500Y9425000D02*
D03*
Y9315000D02*
D03*
Y9205000D02*
D03*
Y9095000D02*
D03*
Y8985000D02*
D03*
Y8875000D02*
D03*
Y8765000D02*
D03*
Y8655000D02*
D03*
D21*
X17612500Y9780000D02*
D03*
D22*
Y8445000D02*
D03*
D23*
X12200000Y9582699D02*
D03*
Y9457301D02*
D03*
X10740000Y5994601D02*
D03*
Y6120000D02*
D03*
X10950000Y5997300D02*
D03*
Y6122699D02*
D03*
X13789999Y9537301D02*
D03*
Y9662699D02*
D03*
X13589999Y9534601D02*
D03*
Y9660000D02*
D03*
X15734700Y5900400D02*
D03*
Y5775001D02*
D03*
X15531500Y5900400D02*
D03*
Y5775001D02*
D03*
X10152500Y7706500D02*
D03*
Y7581101D02*
D03*
X9962000Y7707300D02*
D03*
Y7581902D02*
D03*
X15439400Y9298501D02*
D03*
Y9423900D02*
D03*
X15642599Y9297701D02*
D03*
Y9423100D02*
D03*
X15910001Y6980000D02*
D03*
Y6854601D02*
D03*
X15710001Y6982699D02*
D03*
Y6857300D02*
D03*
X11010000Y6917301D02*
D03*
Y7042700D02*
D03*
X11210000Y6917301D02*
D03*
Y7042700D02*
D03*
X11410000Y6917301D02*
D03*
Y7042700D02*
D03*
X11610000Y6917301D02*
D03*
Y7042700D02*
D03*
X11810000Y6917301D02*
D03*
Y7042700D02*
D03*
X10600000Y9582699D02*
D03*
Y9457301D02*
D03*
X12010000Y6917301D02*
D03*
Y7042700D02*
D03*
X10800000Y9582699D02*
D03*
Y9457301D02*
D03*
X12210000Y6917301D02*
D03*
Y7042700D02*
D03*
X11000000Y9582699D02*
D03*
Y9457301D02*
D03*
X12410000Y6917301D02*
D03*
Y7042700D02*
D03*
X11200000Y9582699D02*
D03*
Y9457301D02*
D03*
X12610000Y6917301D02*
D03*
Y7042700D02*
D03*
X11400000Y9582699D02*
D03*
Y9457301D02*
D03*
X11600000Y9582699D02*
D03*
Y9457301D02*
D03*
X11800000Y9582699D02*
D03*
Y9457301D02*
D03*
X12000000Y9585399D02*
D03*
Y9460000D02*
D03*
D24*
X15889999Y7160000D02*
D03*
X15734784D02*
D03*
X10772392Y5810000D02*
D03*
X10927608D02*
D03*
X13770000Y9350000D02*
D03*
X13614784D02*
D03*
X15710709Y6091700D02*
D03*
X15555492D02*
D03*
X9985991Y7910500D02*
D03*
X10141208D02*
D03*
X15618608Y9106400D02*
D03*
X15463393D02*
D03*
D25*
X15064999Y5757500D02*
D03*
X15275000D02*
D03*
Y5922500D02*
D03*
X15064999D02*
D03*
D26*
X11209000Y9079500D02*
D03*
X10399000Y9077000D02*
D03*
X15388200Y9678600D02*
D03*
D27*
X10980000Y9079500D02*
D03*
X10751000D02*
D03*
X10170000Y9077000D02*
D03*
X9941000D02*
D03*
X15617200Y9678600D02*
D03*
X15846201D02*
D03*
D28*
X10980000Y8420500D02*
D03*
X10170000Y8418000D02*
D03*
X15617200Y10337600D02*
D03*
D29*
X16411501Y7350000D02*
D03*
Y7300000D02*
D03*
Y7250000D02*
D03*
Y7200000D02*
D03*
Y7150000D02*
D03*
Y7100000D02*
D03*
Y7050000D02*
D03*
Y7000000D02*
D03*
Y6950000D02*
D03*
Y6900000D02*
D03*
Y6850000D02*
D03*
Y6800000D02*
D03*
Y6750000D02*
D03*
Y6700000D02*
D03*
Y6650000D02*
D03*
Y6600000D02*
D03*
Y6550000D02*
D03*
Y6500000D02*
D03*
Y6450000D02*
D03*
Y6400000D02*
D03*
D30*
X13980000Y7810000D02*
D03*
Y7890000D02*
D03*
Y7970000D02*
D03*
Y8050000D02*
D03*
Y8130000D02*
D03*
Y8210000D02*
D03*
Y8290000D02*
D03*
Y8370000D02*
D03*
Y8450000D02*
D03*
Y8530000D02*
D03*
Y8610000D02*
D03*
X15120000D02*
D03*
Y8530000D02*
D03*
Y8450000D02*
D03*
Y8370000D02*
D03*
Y8290000D02*
D03*
Y8210000D02*
D03*
Y8130000D02*
D03*
Y8050000D02*
D03*
Y7970000D02*
D03*
Y7890000D02*
D03*
Y7810000D02*
D03*
D31*
X14150000Y8780000D02*
D03*
X14230000D02*
D03*
X14310001D02*
D03*
X14389999D02*
D03*
X14470000D02*
D03*
X14550000D02*
D03*
X14630000D02*
D03*
X14710001D02*
D03*
X14789999D02*
D03*
X14870000D02*
D03*
X14950000D02*
D03*
Y7640000D02*
D03*
X14870000D02*
D03*
X14789999D02*
D03*
X14710001D02*
D03*
X14630000D02*
D03*
X14550000D02*
D03*
X14470000D02*
D03*
X14389999D02*
D03*
X14310001D02*
D03*
X14230000D02*
D03*
X14150000D02*
D03*
D32*
X12110000Y8820000D02*
D03*
X12190000D02*
D03*
X12270000D02*
D03*
X12350000D02*
D03*
X12430000D02*
D03*
X12510000D02*
D03*
X12590000D02*
D03*
X12670000D02*
D03*
X12750000D02*
D03*
X12830000D02*
D03*
X12910001D02*
D03*
X12989999D02*
D03*
X13070000D02*
D03*
X13150000D02*
D03*
X13230000D02*
D03*
X13310001D02*
D03*
X13389999D02*
D03*
X13470000D02*
D03*
X12110000Y8740000D02*
D03*
X12190000D02*
D03*
X12270000D02*
D03*
X12350000D02*
D03*
X12430000D02*
D03*
X12510000D02*
D03*
X12590000D02*
D03*
X12670000D02*
D03*
X12750000D02*
D03*
X12830000D02*
D03*
X12910001D02*
D03*
X12989999D02*
D03*
X13070000D02*
D03*
X13150000D02*
D03*
X13230000D02*
D03*
X13310001D02*
D03*
X13389999D02*
D03*
X13470000D02*
D03*
X12110000Y8660000D02*
D03*
X12190000D02*
D03*
X12270000D02*
D03*
X12350000D02*
D03*
X12430000D02*
D03*
X12510000D02*
D03*
X12590000D02*
D03*
X12670000D02*
D03*
X12750000D02*
D03*
X12830000D02*
D03*
X12910001D02*
D03*
X12989999D02*
D03*
X13070000D02*
D03*
X13150000D02*
D03*
X13230000D02*
D03*
X13310001D02*
D03*
X13389999D02*
D03*
X13470000D02*
D03*
X12110000Y8580000D02*
D03*
X12190000D02*
D03*
X12270000D02*
D03*
X12350000D02*
D03*
X12430000D02*
D03*
X12510000D02*
D03*
X12590000D02*
D03*
X12670000D02*
D03*
X12750000D02*
D03*
X12830000D02*
D03*
X12910001D02*
D03*
X12989999D02*
D03*
X13070000D02*
D03*
X13150000D02*
D03*
X13230000D02*
D03*
X13310001D02*
D03*
X13389999D02*
D03*
X13470000D02*
D03*
X12110000Y8500000D02*
D03*
X12190000D02*
D03*
X12270000D02*
D03*
X12350000D02*
D03*
X12430000D02*
D03*
X12510000D02*
D03*
X12590000D02*
D03*
X12670000D02*
D03*
X12750000D02*
D03*
X12830000D02*
D03*
X12910001D02*
D03*
X12989999D02*
D03*
X13070000D02*
D03*
X13150000D02*
D03*
X13230000D02*
D03*
X13310001D02*
D03*
X13389999D02*
D03*
X13470000D02*
D03*
X12110000Y8420000D02*
D03*
X12190000D02*
D03*
X12270000D02*
D03*
X12350000D02*
D03*
X12430000D02*
D03*
X12510000D02*
D03*
X12590000D02*
D03*
X12670000D02*
D03*
X12750000D02*
D03*
X12830000D02*
D03*
X12910001D02*
D03*
X12989999D02*
D03*
X13070000D02*
D03*
X13150000D02*
D03*
X13230000D02*
D03*
X13310001D02*
D03*
X13389999D02*
D03*
X13470000D02*
D03*
X12110000Y8340000D02*
D03*
X12190000D02*
D03*
X12270000D02*
D03*
X12350000D02*
D03*
X12430000D02*
D03*
X12510000D02*
D03*
X12590000D02*
D03*
X12670000D02*
D03*
X12750000D02*
D03*
X12830000D02*
D03*
X12910001D02*
D03*
X12989999D02*
D03*
X13070000D02*
D03*
X13150000D02*
D03*
X13230000D02*
D03*
X13310001D02*
D03*
X13389999D02*
D03*
X13470000D02*
D03*
X12110000Y8260000D02*
D03*
X12190000D02*
D03*
X12270000D02*
D03*
X12350000D02*
D03*
X12430000D02*
D03*
X12510000D02*
D03*
X12590000D02*
D03*
X12670000D02*
D03*
X12750000D02*
D03*
X12830000D02*
D03*
X12910001D02*
D03*
X12989999D02*
D03*
X13070000D02*
D03*
X13150000D02*
D03*
X13230000D02*
D03*
X13310001D02*
D03*
X13389999D02*
D03*
X13470000D02*
D03*
X12110000Y8180000D02*
D03*
X12190000D02*
D03*
X12270000D02*
D03*
X12350000D02*
D03*
X12430000D02*
D03*
X12510000D02*
D03*
X12590000D02*
D03*
X12670000D02*
D03*
X12750000D02*
D03*
X12830000D02*
D03*
X12910001D02*
D03*
X12989999D02*
D03*
X13070000D02*
D03*
X13150000D02*
D03*
X13230000D02*
D03*
X13310001D02*
D03*
X13389999D02*
D03*
X13470000D02*
D03*
X12110000Y8100000D02*
D03*
X12190000D02*
D03*
X12270000D02*
D03*
X12350000D02*
D03*
X12430000D02*
D03*
X12510000D02*
D03*
X12590000D02*
D03*
X12670000D02*
D03*
X12750000D02*
D03*
X12830000D02*
D03*
X12910001D02*
D03*
X12989999D02*
D03*
X13070000D02*
D03*
X13150000D02*
D03*
X13230000D02*
D03*
X13310001D02*
D03*
X13389999D02*
D03*
X13470000D02*
D03*
X12110000Y8020000D02*
D03*
X12190000D02*
D03*
X12270000D02*
D03*
X12350000D02*
D03*
X12430000D02*
D03*
X12510000D02*
D03*
X12590000D02*
D03*
X12670000D02*
D03*
X12750000D02*
D03*
X12830000D02*
D03*
X12910001D02*
D03*
X12989999D02*
D03*
X13070000D02*
D03*
X13150000D02*
D03*
X13230000D02*
D03*
X13310001D02*
D03*
X13389999D02*
D03*
X13470000D02*
D03*
X12110000Y7940000D02*
D03*
X12190000D02*
D03*
X12270000D02*
D03*
X12350000D02*
D03*
X12430000D02*
D03*
X12510000D02*
D03*
X12590000D02*
D03*
X12670000D02*
D03*
X12750000D02*
D03*
X12830000D02*
D03*
X12910001D02*
D03*
X12989999D02*
D03*
X13070000D02*
D03*
X13150000D02*
D03*
X13230000D02*
D03*
X13310001D02*
D03*
X13389999D02*
D03*
X13470000D02*
D03*
X12110000Y7860000D02*
D03*
X12190000D02*
D03*
X12270000D02*
D03*
X12350000D02*
D03*
X12430000D02*
D03*
X12510000D02*
D03*
X12590000D02*
D03*
X12670000D02*
D03*
X12750000D02*
D03*
X12830000D02*
D03*
X12910001D02*
D03*
X12989999D02*
D03*
X13070000D02*
D03*
X13150000D02*
D03*
X13230000D02*
D03*
X13310001D02*
D03*
X13389999D02*
D03*
X13470000D02*
D03*
X12110000Y7780000D02*
D03*
X12190000D02*
D03*
X12270000D02*
D03*
X12350000D02*
D03*
X12430000D02*
D03*
X12510000D02*
D03*
X12590000D02*
D03*
X12670000D02*
D03*
X12750000D02*
D03*
X12830000D02*
D03*
X12910001D02*
D03*
X12989999D02*
D03*
X13070000D02*
D03*
X13150000D02*
D03*
X13230000D02*
D03*
X13310001D02*
D03*
X13389999D02*
D03*
X13470000D02*
D03*
X12110000Y7700000D02*
D03*
X12190000D02*
D03*
X12270000D02*
D03*
X12350000D02*
D03*
X12430000D02*
D03*
X12510000D02*
D03*
X12590000D02*
D03*
X12670000D02*
D03*
X12750000D02*
D03*
X12830000D02*
D03*
X12910001D02*
D03*
X12989999D02*
D03*
X13070000D02*
D03*
X13150000D02*
D03*
X13230000D02*
D03*
X13310001D02*
D03*
X13389999D02*
D03*
X13470000D02*
D03*
X12110000Y7620000D02*
D03*
X12190000D02*
D03*
X12270000D02*
D03*
X12350000D02*
D03*
X12430000D02*
D03*
X12510000D02*
D03*
X12590000D02*
D03*
X12670000D02*
D03*
X12750000D02*
D03*
X12830000D02*
D03*
X12910001D02*
D03*
X12989999D02*
D03*
X13070000D02*
D03*
X13150000D02*
D03*
X13230000D02*
D03*
X13310001D02*
D03*
X13389999D02*
D03*
X13470000D02*
D03*
X12110000Y7540000D02*
D03*
X12190000D02*
D03*
X12270000D02*
D03*
X12350000D02*
D03*
X12430000D02*
D03*
X12510000D02*
D03*
X12590000D02*
D03*
X12670000D02*
D03*
X12750000D02*
D03*
X12830000D02*
D03*
X12910001D02*
D03*
X12989999D02*
D03*
X13070000D02*
D03*
X13150000D02*
D03*
X13230000D02*
D03*
X13310001D02*
D03*
X13389999D02*
D03*
X13470000D02*
D03*
X12110000Y7460000D02*
D03*
X12190000D02*
D03*
X12270000D02*
D03*
X12350000D02*
D03*
X12430000D02*
D03*
X12510000D02*
D03*
X12590000D02*
D03*
X12670000D02*
D03*
X12750000D02*
D03*
X12830000D02*
D03*
X12910001D02*
D03*
X12989999D02*
D03*
X13070000D02*
D03*
X13150000D02*
D03*
X13230000D02*
D03*
X13310001D02*
D03*
X13389999D02*
D03*
X13470000D02*
D03*
D33*
X14420000Y6970000D02*
D03*
Y6920000D02*
D03*
X14370000Y6970000D02*
D03*
Y6920000D02*
D03*
X14320000Y6970000D02*
D03*
Y6920000D02*
D03*
D34*
X11177300Y10387100D02*
D03*
X11277300D02*
D03*
X11377300D02*
D03*
X11677300D02*
D03*
X11777300D02*
D03*
X12077300D02*
D03*
X11977300D02*
D03*
X11877300D02*
D03*
X11577300D02*
D03*
X11477300D02*
D03*
X11077300D02*
D03*
X10977300D02*
D03*
X11807500Y5300000D02*
D03*
X11707500D02*
D03*
X11607500D02*
D03*
X11307500D02*
D03*
X11207500D02*
D03*
X10907500D02*
D03*
X11007500D02*
D03*
X11107500D02*
D03*
X11407500D02*
D03*
X11507500D02*
D03*
X11907500D02*
D03*
X12007500D02*
D03*
X14210001Y5295000D02*
D03*
X14110001D02*
D03*
X14010001D02*
D03*
X13710001D02*
D03*
X13610001D02*
D03*
X13310001D02*
D03*
X13410001D02*
D03*
X13510001D02*
D03*
X13810001D02*
D03*
X13910001D02*
D03*
X14310001D02*
D03*
X14410001D02*
D03*
X13539500Y10387100D02*
D03*
X13639500D02*
D03*
X13739500D02*
D03*
X14039500D02*
D03*
X14139500D02*
D03*
X14439500D02*
D03*
X14339500D02*
D03*
X14239500D02*
D03*
X13939500D02*
D03*
X13839500D02*
D03*
X13439500D02*
D03*
X13339500D02*
D03*
D35*
X12337300Y10627100D02*
D03*
X10717300D02*
D03*
X10647500Y5060000D02*
D03*
X12267500D02*
D03*
X13050000Y5055000D02*
D03*
X14670000D02*
D03*
X14699500Y10627100D02*
D03*
X13079500D02*
D03*
D36*
X11516600Y5802700D02*
D03*
X11391201D02*
D03*
X11516600Y5993200D02*
D03*
X11391201D02*
D03*
X15717300Y8460000D02*
D03*
X15842699D02*
D03*
X15717300Y8260000D02*
D03*
X15842699D02*
D03*
X15717300Y8060000D02*
D03*
X15842699D02*
D03*
X15717300Y7860000D02*
D03*
X15842699D02*
D03*
X15717300Y7660000D02*
D03*
X15842699D02*
D03*
X14330101Y6753300D02*
D03*
X14455499D02*
D03*
X14330000Y6550000D02*
D03*
X14455399D02*
D03*
X14327301Y6350000D02*
D03*
X14452699D02*
D03*
X14327301Y6150000D02*
D03*
X14452699D02*
D03*
X14327301Y5950000D02*
D03*
X14452699D02*
D03*
X14327301Y5750000D02*
D03*
X14452699D02*
D03*
D37*
X11707900Y5813992D02*
D03*
Y5969208D02*
D03*
X15530000Y7682392D02*
D03*
Y7837608D02*
D03*
D38*
X11610000Y8180000D02*
D03*
Y7980000D02*
D03*
X11600000Y9080000D02*
D03*
Y8880000D02*
D03*
Y8440000D02*
D03*
Y8640000D02*
D03*
D39*
X9830500Y6089000D02*
D03*
X12810001Y5661000D02*
D03*
X14300500Y9739000D02*
D03*
X9900500Y7289000D02*
D03*
X14760500Y7189000D02*
D03*
D40*
X9830500Y5860000D02*
D03*
Y5631000D02*
D03*
X12810001Y5890000D02*
D03*
Y6119000D02*
D03*
X14300500Y9510000D02*
D03*
Y9281000D02*
D03*
X9900500Y7060000D02*
D03*
Y6831000D02*
D03*
X14760500Y6960000D02*
D03*
Y6731000D02*
D03*
D41*
X10489500Y5860000D02*
D03*
X12151000Y5890000D02*
D03*
X14959500Y9510000D02*
D03*
X10559500Y7060000D02*
D03*
X15419501Y6960000D02*
D03*
D42*
X13070000Y6616000D02*
D03*
Y7124000D02*
D03*
X13450000D02*
D03*
Y6616000D02*
D03*
X13070000Y6870000D02*
D03*
X13450000D02*
D03*
D43*
X10170000Y8720000D02*
Y9077000D01*
Y8418000D02*
Y8720000D01*
X10190000Y8700000D01*
X10310000D01*
X9820500Y7910500D02*
X9985991D01*
X9820000Y7910000D02*
X9820500Y7910500D01*
X10985000Y7880000D02*
Y8125000D01*
Y7771000D02*
Y7880000D01*
X10730000D02*
X10985000D01*
X10580000Y7730000D02*
X10730000Y7880000D01*
X14542500Y8672500D02*
Y8772500D01*
X14500000Y8630000D02*
X14542500Y8672500D01*
X14750000Y6350000D02*
X16860001D01*
X16939999Y6430000D01*
Y7900000D01*
X15320000Y8810000D02*
X15670000D01*
X15675000Y8815000D01*
X16025000D01*
X16939999Y7900000D01*
X15920000Y8707500D02*
Y8760000D01*
X15862500Y8650000D02*
X15920000Y8707500D01*
X15063499Y9066500D02*
X15320000Y8810000D01*
X15063499Y9066500D02*
Y9281000D01*
X12810001Y5661000D02*
X12919000D01*
X12920000Y5660000D01*
X12284844Y6250000D02*
X13146568D01*
X13196500Y6123217D02*
Y6185275D01*
X13146568Y6250000D02*
X13170000Y6226568D01*
Y6211775D02*
X13196500Y6185275D01*
X13170000Y6211775D02*
Y6226568D01*
X12004052Y5969208D02*
X12284844Y6250000D01*
X13196500Y6065005D02*
Y6123217D01*
X11737061Y6460000D02*
X12812852D01*
X12908852Y6556000D01*
X13010001D01*
X13070000Y6616000D01*
X11274361Y5997300D02*
X11737061Y6460000D01*
X14382500Y8205000D02*
X14470000Y8117500D01*
Y7850000D02*
Y8117500D01*
X14387500Y8210000D02*
X15120000D01*
X15419501Y6908412D02*
Y6960000D01*
Y6908412D02*
X15447913Y6880000D01*
X15530000D01*
X15710709Y6091700D02*
X15908299D01*
X15910001Y6090000D01*
X13434000Y7174000D02*
X13530000Y7270000D01*
X12410000Y6917301D02*
X12607301D01*
X12610000D01*
X12510000Y6820000D02*
X12607301Y6917301D01*
X12480000Y6820000D02*
X12510000D01*
X9418500Y8548069D02*
X9441932Y8571500D01*
X9513888D02*
X9517388Y8575000D01*
X9441932Y8571500D02*
X9513888D01*
X9418500Y8118500D02*
Y8548069D01*
X9585500Y8575000D02*
X9595500Y8585000D01*
X9517388Y8575000D02*
X9585500D01*
X10141208Y7910500D02*
X10152500Y7899208D01*
X10140000Y7911708D02*
X10141208Y7910500D01*
X10140000Y7911708D02*
Y8010000D01*
X10045000Y8105000D02*
X10140000Y8010000D01*
X9595500Y8105000D02*
X10045000D01*
X9583000Y7097500D02*
X9593000Y7107500D01*
X9533074Y7097500D02*
X9583000D01*
X9505574Y7070000D02*
X9533074Y7097500D01*
X9350000Y7070000D02*
X9505574D01*
X9350000D02*
Y8050000D01*
Y6806967D02*
Y7070000D01*
X9585500Y8115000D02*
X9595500Y8105000D01*
X9517388Y8115000D02*
X9585500D01*
X9513888Y8118500D02*
X9517388Y8115000D01*
X9418500Y8118500D02*
X9513888D01*
X9350000Y8050000D02*
X9418500Y8118500D01*
X9350000Y6806967D02*
X9519467Y6637500D01*
X9583000D01*
X9593000Y6627500D01*
X9800000Y7510000D02*
X9870000Y7440000D01*
X9800000Y7680000D02*
X9830000Y7710000D01*
X9800000Y7510000D02*
Y7680000D01*
X9907108Y7060000D02*
X10559500D01*
X9959300Y7710000D02*
X9962000Y7707300D01*
X9830000Y7710000D02*
X9959300D01*
X10020000Y7172892D02*
Y7416569D01*
X9996569Y7440000D02*
X10020000Y7416569D01*
X9870000Y7440000D02*
X9996569D01*
X9900500Y7060000D02*
X9907108D01*
X10020000Y7172892D01*
X14470000Y7640000D02*
Y7850000D01*
X14557500Y7757500D02*
X14600000Y7800000D01*
X11170000Y7650000D02*
Y7839146D01*
X11165500Y7843645D02*
Y8005355D01*
X11170000Y8009854D01*
X11165500Y7843645D02*
X11170000Y7839146D01*
Y8009854D02*
Y8280000D01*
X11075000Y8157932D02*
Y8175500D01*
X11065500Y8148432D02*
X11075000Y8157932D01*
X11008431Y8148432D02*
X11065500D01*
X10985000Y8125000D02*
X11008431Y8148432D01*
X10985000Y7771000D02*
X11075000Y7681000D01*
X16392500Y9230000D02*
Y9285000D01*
X16342500Y9180000D02*
X16392500Y9230000D01*
X16239999Y9180000D02*
X16342500D01*
X15320000Y6960000D02*
X15419501D01*
X15717300Y7154908D02*
Y7660000D01*
X10555000Y9415000D02*
X10890500Y9079500D01*
X10559500Y6792206D02*
Y7060000D01*
X10550000Y6782706D02*
X10559500Y6792206D01*
X10550000Y6780000D02*
Y6782706D01*
X10460000Y6140000D02*
Y6380000D01*
X10550000Y6470000D01*
X10605399Y5994601D02*
X10740000D01*
X10460000Y6140000D02*
X10605399Y5994601D01*
X10560000Y6120000D02*
X10740000D01*
X17485001Y9095000D02*
X17662500D01*
X16830000Y9750000D02*
X17485001Y9095000D01*
X16230000Y9720000D02*
X16260001Y9750000D01*
X16830000D01*
X16230000Y9330000D02*
Y9720000D01*
X15880000Y8980000D02*
X16230000Y9330000D01*
X15560001Y8980000D02*
X15880000D01*
X15463393Y9106400D02*
X15475784D01*
X15508694Y9073489D01*
Y9031306D02*
Y9073489D01*
Y9031306D02*
X15560001Y8980000D01*
X15463393Y9106400D02*
Y9277209D01*
X15442099Y9298501D02*
X15463393Y9277209D01*
X15439400Y9298501D02*
X15442099D01*
X11391201Y5993200D02*
Y5995900D01*
Y5802700D02*
Y5993200D01*
Y5995900D02*
X11565301Y6170000D01*
X11870000D01*
X10555000Y9415000D02*
X10597301Y9457301D01*
X10232642Y9092642D02*
X10555000Y9415000D01*
X10890500Y9079500D02*
X10980000D01*
X11265000Y8175500D02*
Y8315000D01*
X11320000Y8370000D01*
X10751000Y9061000D02*
Y9079500D01*
X10580000Y8890000D02*
X10751000Y9061000D01*
X9823000Y9077000D02*
X9941000D01*
X9820000Y9080000D02*
X9823000Y9077000D01*
X11265000Y7619000D02*
Y7650000D01*
X11170000Y7524000D02*
X11265000Y7619000D01*
X11170000Y7520000D02*
Y7524000D01*
X9830500Y5631000D02*
X9831500Y5630000D01*
X10180000D01*
X9900500Y6831000D02*
X10199000D01*
X10200000Y6830000D01*
X10559500Y7060000D02*
X10576801Y7042700D01*
X11010000D01*
X9883413Y7271913D02*
X9900500Y7289000D01*
X9761913Y7271913D02*
X9883413D01*
X9760000Y7270000D02*
X9761913Y7271913D01*
X9760000Y7267294D02*
Y7270000D01*
X9707000Y7214294D02*
X9760000Y7267294D01*
X9707000Y7187500D02*
Y7214294D01*
X14550000Y7640000D02*
X14557500Y7647500D01*
Y7757500D01*
X14760500Y7189000D02*
X14849001D01*
X14850000Y7190000D01*
X14542500Y8772500D02*
X14550000Y8780000D01*
X15120000Y8290000D02*
X15239999D01*
X15289999Y8340000D01*
X11209000Y9079500D02*
X11599500D01*
X11600000Y9080000D01*
X15430000Y9433300D02*
X15439400Y9423900D01*
X15430000Y9433300D02*
Y9490000D01*
X15388200Y9671992D02*
Y9678600D01*
X15364594Y9648385D02*
X15388200Y9671992D01*
X15357985Y9648385D02*
X15364594D01*
X15309599Y9600000D02*
X15357985Y9648385D01*
X15139999Y9600000D02*
X15309599D01*
X15439400Y9423900D02*
X15439799Y9423500D01*
X15642200D01*
X15642599Y9423100D01*
X16382500Y9590000D02*
X16470000D01*
X14862500Y5757500D02*
X15064999D01*
X14860001Y5760000D02*
X14862500Y5757500D01*
X15275000Y5922500D02*
Y6025000D01*
X15270000Y6030000D02*
X15275000Y6025000D01*
X15547192Y6100000D02*
X15555492Y6091700D01*
X15120000Y6100000D02*
X15547192D01*
X15064999Y5922500D02*
Y6045000D01*
X15120000Y6100000D01*
X9574250Y7187500D02*
X9593000D01*
X9564250Y7197500D02*
X9574250Y7187500D01*
X9564250Y7197500D02*
Y7271784D01*
X9536533Y7299500D02*
X9564250Y7271784D01*
X9535500Y7299500D02*
X9536533D01*
X9595500Y8025000D02*
X9605500Y8015000D01*
X9675000D01*
X9700000Y7990000D01*
X9595500Y8665000D02*
X9623000D01*
X9688000Y8730000D01*
X9710000D01*
X9576750Y8665000D02*
X9595500D01*
X9566750Y8675000D02*
X9576750Y8665000D01*
X9566750Y8675000D02*
Y8749283D01*
X9539033Y8777000D02*
X9566750Y8749283D01*
X9538000Y8777000D02*
X9539033D01*
X9538000Y7913000D02*
X9539033D01*
X9566750Y7940717D01*
Y8015000D01*
X9576750Y8025000D01*
X9595500D01*
X12530000Y9750000D02*
X12656000D01*
X12490000Y9790000D02*
X12530000Y9750000D01*
X13587300Y9660000D02*
X13589999D01*
X13497301Y9750000D02*
X13587300Y9660000D01*
X13450000Y9750000D02*
X13497301D01*
X13789999Y9662699D02*
X13792700D01*
X13869000Y9739000D01*
X14300500D01*
X13788651Y9661350D02*
X13789999Y9662699D01*
X13591348Y9661350D02*
X13788651D01*
X13589999Y9660000D02*
X13591348Y9661350D01*
X14699500Y10627100D02*
X14837100D01*
X14839999Y10630000D01*
X12708400Y10627100D02*
X13079500D01*
X12337300D02*
X12708400D01*
X13339500Y10387100D02*
Y10467100D01*
X13329500Y10477100D02*
X13339500Y10467100D01*
X13189500Y10477100D02*
X13329500D01*
X13079500Y10587100D02*
X13189500Y10477100D01*
X13079500Y10587100D02*
Y10627100D01*
X14439500Y10387100D02*
Y10467100D01*
X14449500Y10477100D01*
X14589500D01*
X14699500Y10587100D01*
Y10627100D01*
X13339500Y10387100D02*
X13439500D01*
X14339500D02*
X14439500D01*
X11600000Y9080000D02*
Y9200000D01*
X10399000Y9077000D02*
Y9083608D01*
X10475392Y9160000D01*
X10520000D01*
X10432699Y9582699D02*
X10600000D01*
X10430000Y9580000D02*
X10432699Y9582699D01*
X10152500Y7492500D02*
Y7581101D01*
X10150000Y7490000D02*
X10152500Y7492500D01*
X9593000Y7187500D02*
X9707000D01*
X9721000Y6089000D02*
X9830500D01*
X9720000Y6090000D02*
X9721000Y6089000D01*
X9574250Y6547500D02*
X9593000D01*
X9564250Y6537500D02*
X9574250Y6547500D01*
X9564250Y6463217D02*
Y6537500D01*
X9536533Y6435500D02*
X9564250Y6463217D01*
X9535500Y6435500D02*
X9536533D01*
X10740000Y6120000D02*
X10741350Y6121350D01*
X10948650D01*
X10950000Y6122699D01*
X10520000Y5060000D02*
X10647500D01*
X10440000Y4980000D02*
X10520000Y5060000D01*
X13069501Y6123217D02*
Y6123434D01*
X13062935Y6130000D02*
X13069501Y6123434D01*
X13020000Y6130000D02*
X13062935D01*
X12272500Y5055000D02*
X13050000D01*
X12267500Y5060000D02*
X12272500Y5055000D01*
X13050000D02*
X13070000Y5075000D01*
Y5260000D01*
X13105000Y5295000D02*
X13310001D01*
X13070000Y5260000D02*
X13105000Y5295000D01*
X13310001D02*
X13410001D01*
X14650000Y5075001D02*
X14670000Y5055000D01*
X14650000Y5075001D02*
Y5230000D01*
X14410001Y5295000D02*
X14585001D01*
X14650000Y5230000D01*
X14310001Y5295000D02*
X14410001D01*
X14670000Y5055000D02*
Y5095000D01*
X14739999Y5165000D01*
X14780000D01*
X14814999Y5200000D01*
X14850000D01*
X14452699Y6350000D02*
X14539999D01*
X15707301Y6857300D02*
X15710001D01*
X15620000Y6770000D02*
X15707301Y6857300D01*
X15570000Y6770000D02*
X15620000D01*
X15710001Y6857300D02*
X15711349Y6855951D01*
X15908650D01*
X15910001Y6854601D01*
X15275000Y5655000D02*
Y5757500D01*
Y5655000D02*
X15280000Y5650000D01*
X15275000Y5757500D02*
X15283751Y5766251D01*
X15522749D01*
X15531500Y5775001D01*
X17659413Y8878087D02*
X17662500Y8875000D01*
X17531914Y8878087D02*
X17659413D01*
X17530000Y8880000D02*
X17531914Y8878087D01*
X16392500Y8795000D02*
X16397501Y8790000D01*
X16500000D01*
X17612500Y8445000D02*
X17620000Y8437500D01*
Y8350000D02*
Y8437500D01*
X17612500Y9780000D02*
Y9937500D01*
X17610001Y9940000D02*
X17612500Y9937500D01*
X10977300Y10387100D02*
Y10467100D01*
X10967300Y10477100D02*
X10977300Y10467100D01*
X10827300Y10477100D02*
X10967300D01*
X10717300Y10587100D02*
X10827300Y10477100D01*
X10717300Y10587100D02*
Y10627100D01*
X11077300Y10387100D02*
X11177300D01*
X10977300D02*
X11077300D01*
X12087300Y10440000D02*
X12286569D01*
X12310000Y10599800D02*
X12337300Y10627100D01*
X12310000Y10463431D02*
Y10599800D01*
X12286569Y10440000D02*
X12310000Y10463431D01*
X12077300Y10387100D02*
Y10430000D01*
X12087300Y10440000D01*
X11977300Y10387100D02*
X12077300D01*
X16075000Y9727401D02*
Y10261569D01*
X15617200Y10337600D02*
X15998969D01*
X16075000Y10261569D01*
X15642599Y9297701D02*
X15645299D01*
X16075000Y9727401D01*
X15846201Y9663700D02*
Y9678600D01*
X15747501Y9565000D02*
X15846201Y9663700D01*
X15063499Y9281000D02*
X15347501Y9565000D01*
X15747501D01*
X14300500Y9281000D02*
X15063499D01*
X14352499Y8235000D02*
X14382500Y8205000D01*
X14387500Y8210000D01*
X14297501Y8290000D02*
X14352499Y8235000D01*
X14630000Y8512500D02*
Y8780000D01*
X14352499Y8235000D02*
X14630000Y8512500D01*
X13980000Y8290000D02*
X14297501D01*
X15588956Y6982699D02*
X15710001D01*
X15566257Y6960000D02*
X15588956Y6982699D01*
X15419501Y6960000D02*
X15566257D01*
X15419501Y7027008D02*
X15447913Y7055420D01*
X15617812D01*
X15717300Y7154908D01*
X15419501Y6960000D02*
Y7027008D01*
X11592500Y7555000D02*
X11597500Y7560000D01*
X11522500Y7555000D02*
X11592500D01*
X11410000Y7442500D02*
X11522500Y7555000D01*
X11410000Y7042700D02*
Y7442500D01*
X11010000Y6917301D02*
X11210000D01*
X11410000D01*
X11610000D01*
X11810000D01*
X12010000D01*
X12210000D01*
X12410000D01*
X12210000Y7042700D02*
X12410000D01*
X12610000D01*
X12010000D02*
X12210000D01*
X11810000D02*
X12010000D01*
X11610000D02*
X11810000D01*
X11410000D02*
X11610000D01*
X11210000D02*
X11410000D01*
X11010000D02*
X11210000D01*
X11075000Y7650000D02*
Y7681000D01*
X11762500Y7297500D02*
X11770000Y7290000D01*
X11762500Y7297500D02*
Y7560000D01*
X15617200Y9678600D02*
Y10337600D01*
X14300500Y9510000D02*
X14959500D01*
X13770000Y9350000D02*
Y9519393D01*
X13787907Y9537301D01*
X13789999D01*
X14253816D01*
X14281116Y9510000D01*
X14300500D01*
X13614784Y9350000D02*
Y9512517D01*
X13592700Y9534601D02*
X13614784Y9512517D01*
X13589999Y9534601D02*
X13592700D01*
X13164000Y9370000D02*
X13184000Y9350000D01*
X13614784D01*
X13323500Y5656783D02*
Y5938005D01*
X13196500Y6065005D02*
X13323500Y5938005D01*
Y5656783D02*
X13450500D01*
X11707900Y5969208D02*
X12004052D01*
X11537892D02*
X11707900D01*
X11516600Y5990501D02*
X11537892Y5969208D01*
X11516600Y5990501D02*
Y5993200D01*
X12151000Y5842404D02*
Y5890000D01*
X12122589Y5813992D02*
X12151000Y5842404D01*
X11707900Y5813992D02*
X12122589D01*
X12151000Y5890000D02*
X12810001D01*
X10950000Y5997300D02*
X11274361D01*
X10950000Y5832392D02*
Y5997300D01*
X10927608Y5810000D02*
X10950000Y5832392D01*
X10740000Y5842392D02*
Y5994601D01*
Y5842392D02*
X10772392Y5810000D01*
X10784784D01*
X10817695Y5777089D01*
Y5699805D02*
Y5777089D01*
Y5699805D02*
X10847500Y5670000D01*
X11516600Y5800001D02*
Y5802700D01*
X11386599Y5670000D02*
X11516600Y5800001D01*
X10847500Y5670000D02*
X11386599D01*
X11696608Y5802700D02*
X11707900Y5813992D01*
X11516600Y5802700D02*
X11696608D01*
X10489500Y5860000D02*
X10710000D01*
X10760000Y5810000D01*
X10772392D01*
X9830500Y5860000D02*
X10489500D01*
X9962000Y7581902D02*
X9962400Y7581501D01*
X10152099D01*
X10152500Y7581101D01*
X9962000Y7707300D02*
Y7886508D01*
X9985991Y7910500D01*
X10152500Y7706500D02*
Y7899208D01*
X10980000Y8420500D02*
Y9079500D01*
X10597301Y9457301D02*
X10600000D01*
X10185642Y9092642D02*
X10232642D01*
X10170000Y9077000D02*
X10185642Y9092642D01*
X12000000Y9585399D02*
X12001350Y9584049D01*
X12198650D01*
X12200000Y9582699D01*
X11800000D02*
X11801350Y9584049D01*
X11998650D01*
X12000000Y9585399D01*
X11600000Y9582699D02*
X11800000D01*
X11400000D02*
X11600000D01*
X11200000D02*
X11400000D01*
X11000000D02*
X11200000D01*
X10800000D02*
X11000000D01*
X10600000D02*
X10800000D01*
X12000000Y9460000D02*
X12001350Y9458650D01*
X12198650D01*
X12200000Y9457301D01*
X11800000D02*
X11801350Y9458650D01*
X11998650D01*
X12000000Y9460000D01*
X11600000Y9457301D02*
X11800000D01*
X11400000D02*
X11600000D01*
X11200000D02*
X11400000D01*
X11000000D02*
X11200000D01*
X10800000D02*
X11000000D01*
X10600000D02*
X10800000D01*
X15910001Y6980000D02*
Y7140000D01*
X15889999Y7160000D02*
X15910001Y7140000D01*
X15618608Y9106400D02*
Y9276408D01*
X15639900Y9297701D01*
X15642599D01*
X14452699Y5747300D02*
Y5750000D01*
X14330000Y6550000D02*
X14330051Y6550050D01*
Y6753249D01*
X14327301Y6350000D02*
X14328650Y6351350D01*
Y6548650D01*
X14330000Y6550000D01*
X14327301Y6150000D02*
Y6350000D01*
Y5950000D02*
Y6150000D01*
Y5750000D02*
Y5950000D01*
X14455399Y6550000D02*
X14455449Y6550050D01*
Y6753249D01*
X14455499Y6753300D01*
X14452699Y6350000D02*
X14454050Y6351350D01*
Y6548650D01*
X14455399Y6550000D01*
X14452699Y6150000D02*
Y6350000D01*
Y5950000D02*
Y6150000D01*
Y5750000D02*
Y5950000D01*
X15064999Y5757500D02*
Y5922500D01*
X15531500Y5900400D02*
Y6067708D01*
X15555492Y6091700D01*
X15734700Y5900400D02*
Y6067708D01*
X15710709Y6091700D02*
X15734700Y6067708D01*
X15531500Y5775001D02*
X15734700D01*
X15707401Y8469900D02*
X15717300Y8460000D01*
X15707401Y8469900D02*
Y8640100D01*
X15697501Y8650000D02*
X15707401Y8640100D01*
X15717300Y8260000D02*
Y8460000D01*
Y8060000D02*
Y8260000D01*
Y7860000D02*
Y8060000D01*
X15530000Y7837608D02*
X15552393Y7860000D01*
X15717300D01*
X15552393Y7660000D02*
X15717300D01*
X15530000Y7682392D02*
X15552393Y7660000D01*
X15842699D02*
Y7860000D01*
Y8060000D01*
Y8260000D01*
Y8460000D01*
X15862500Y8482500D02*
Y8650000D01*
D44*
X12590000Y8020000D02*
X12590000D01*
X12550000Y8060000D02*
X12590000Y8020000D01*
X12470000Y7980000D02*
X12510000Y7940000D01*
Y7700000D02*
Y7700000D01*
X12470000Y7660000D02*
X12510000Y7700000D01*
X12590000Y7934059D02*
Y7940000D01*
X12566265Y7910324D02*
X12590000Y7934059D01*
X12566265Y7906265D02*
Y7910324D01*
X12493431Y8460000D02*
X12550000D01*
X12470000Y8436569D02*
X12493431Y8460000D01*
X12432426Y8422426D02*
X12461213D01*
X12470000Y8431213D01*
Y8436569D01*
X12390000Y8380000D02*
X12432426Y8422426D01*
X12390000Y8460000D02*
X12446568D01*
X12480828Y8494260D01*
X12504260D02*
X12510000Y8500000D01*
X12550000Y8540000D01*
X12480828Y8494260D02*
X12504260D01*
X12430000Y8500000D02*
X12430000D01*
X12584260Y8665740D02*
X12590000Y8660000D01*
X12430000Y8500000D02*
Y8580000D01*
X12390000Y8540000D02*
X12430000Y8500000D01*
X12470000Y8380000D02*
X12510000Y8420000D01*
Y8420000D01*
X12670000Y8100000D02*
X12710000Y8140000D01*
X12590000Y7858161D02*
X12630000Y7818161D01*
Y7816321D02*
Y7818161D01*
X12590000Y7858161D02*
Y7860000D01*
X12631701Y7891701D02*
Y7895760D01*
X12670000Y7934059D02*
Y7940000D01*
X12631701Y7895760D02*
X12670000Y7934059D01*
X12710000Y7660000D02*
X12750000Y7620000D01*
X12750000D01*
X12515104Y7625104D02*
X12538536D01*
X12510000Y7620000D02*
X12515104Y7625104D01*
X12538536D02*
X12573432Y7660000D01*
X12662781Y7700000D02*
X12670000D01*
X12646213Y7683431D02*
X12662781Y7700000D01*
X12630000Y7683431D02*
X12646213D01*
X12606568Y7660000D02*
X12630000Y7683431D01*
X12390000Y8780000D02*
X12430000Y8740000D01*
X12390000Y8700000D02*
X12430000Y8660000D01*
X12390000Y8620000D02*
X12390000D01*
X12350000Y8580000D02*
X12390000Y8620000D01*
X12642221Y8471211D02*
X12653431Y8460000D01*
X12686568D01*
X12624850Y8471211D02*
X12642221D01*
X12661882Y8420000D02*
X12670000D01*
X12590000D02*
X12598118D01*
X12646042Y8435841D02*
X12661882Y8420000D01*
X12634159Y8435841D02*
X12646042D01*
X12630000Y8440000D02*
X12634159Y8435841D01*
X12598118Y8420000D02*
X12613958Y8435841D01*
X12625889D01*
X12596061Y8500000D02*
X12624850Y8471211D01*
X12625889Y8435841D02*
X12628759Y8438711D01*
X12590000Y8500000D02*
X12596061D01*
X12550000Y8460000D02*
X12590000Y8500000D01*
X12710000Y8483432D02*
Y8540000D01*
X12670000Y8500000D02*
Y8500000D01*
X12641265Y8528735D02*
X12670000Y8500000D01*
X12686568Y8460000D02*
X12710000Y8483432D01*
X12721265Y8448735D02*
X12750000Y8420000D01*
X12870000Y8563432D02*
Y8620000D01*
Y8563432D02*
X12893431Y8540000D01*
X13086568D01*
X13107803Y8561235D01*
X13123117D01*
X13141882Y8580000D02*
X13150000D01*
X13123117Y8561235D02*
X13141882Y8580000D01*
X13121265Y8528735D02*
X13150000Y8500000D01*
X12830000Y8660000D02*
X12870000Y8620000D01*
X13030000Y8460000D02*
X13070000Y8500000D01*
X13110001Y8460000D01*
X12989999Y8580000D02*
X12989999D01*
X13030000Y8620000D01*
X12910001Y8340000D02*
X12910001D01*
X12950000Y8380000D01*
X12310000Y8356568D02*
X12333432Y8380000D01*
X12310000Y8300000D02*
Y8356568D01*
X12270000Y8260000D02*
X12310000Y8300000D01*
X12333432Y8380000D02*
X12390000D01*
X12190000Y8260000D02*
X12191658D01*
X12230000Y8221658D01*
X12230000Y8220000D02*
X12270000Y8180000D01*
X12230000Y8221658D02*
X12231658D01*
X12148342Y8138342D02*
X12190000Y8180000D01*
X11990000Y8310000D02*
X12060000Y8380000D01*
X12230000D01*
X12270000Y8420000D01*
X14950000Y7592500D02*
Y7640000D01*
Y7592500D02*
X14970000Y7572500D01*
X15357500D01*
X15460001Y7470000D01*
X14748055Y7430000D02*
X15121213D01*
X15130000Y7421213D01*
Y7041021D02*
Y7421213D01*
X12670000Y8820000D02*
X12710000Y8860000D01*
X12910001Y8740000D02*
X12910001D01*
X12750000D02*
X12790000Y8780000D01*
X12790000D02*
X12830000Y8740000D01*
X12790000Y8780000D02*
X12790000D01*
X12989999Y8660000D02*
X13030000Y8700000D01*
X12470000D02*
X12510000Y8660000D01*
X12430000Y8580000D02*
X12470000Y8620000D01*
X12550000D01*
X12590000Y8580000D01*
X13189999Y8540000D02*
Y8620000D01*
X13150000Y8660000D02*
X13189999Y8620000D01*
X13230000Y8500000D02*
X13270000Y8460000D01*
X13189999Y8540000D02*
X13230000Y8500000D01*
X12606568Y8540000D02*
X12630000Y8563432D01*
X12550000Y8540000D02*
X12606568D01*
X12630000Y8596569D02*
X12653432Y8620000D01*
X12630000Y8563432D02*
Y8596569D01*
X12653432Y8620000D02*
X12790000D01*
X12413432Y7580000D02*
X12475355D01*
X12510000Y7540000D02*
Y7545355D01*
X12475355Y7580000D02*
X12510000Y7545355D01*
X12390000Y7603432D02*
X12413432Y7580000D01*
X12390000Y7603432D02*
Y7660000D01*
X12430000Y7700000D01*
X12270000Y7620000D02*
X12350000D01*
X12190000D02*
X12270000D01*
X12110000D02*
X12190000D01*
X12000000D02*
X12110000D01*
X12000000Y7620000D02*
X12000000Y7620000D01*
X12430000Y7540000D02*
Y7540000D01*
Y7540000D02*
X12470000Y7500000D01*
X13430000Y7580000D02*
X13470000Y7620000D01*
X13470000Y7620000D02*
X13520000Y7570000D01*
X13470000Y7620000D02*
X13470000D01*
X13520000Y7570000D02*
X13630000D01*
X12790000Y7660000D02*
X12830000Y7620000D01*
X12710000Y7740000D02*
X12710000D01*
X12670000Y7700000D02*
X12710000Y7740000D01*
X12750000Y7540000D02*
Y7620000D01*
X13150000Y7700000D02*
X13189999Y7740000D01*
X13189999D01*
X14112500Y7547500D02*
X14263033D01*
X14030000Y7630000D02*
X14112500Y7547500D01*
X14336464Y7463432D02*
Y7474069D01*
X14263033Y7547500D02*
X14336464Y7474069D01*
X14372395Y7427500D02*
X14745554D01*
X14748055Y7430000D01*
X14336464Y7463432D02*
X14372395Y7427500D01*
X14285001Y7472500D02*
X14595000Y7162500D01*
X15468166Y6667500D02*
X15902499D01*
X15070000Y7065666D02*
X15468166Y6667500D01*
X15927145Y6727500D02*
X15989822Y6790177D01*
X15443521Y6727500D02*
X15927145D01*
X15130000Y7041021D02*
X15443521Y6727500D01*
X15070000Y7065666D02*
Y7370000D01*
X15989822Y6790177D02*
Y6902877D01*
X15910001Y6980000D02*
X15912700D01*
X15989822Y6902877D01*
X13473033Y8100000D02*
X13690533Y7882500D01*
X13470000Y7780000D02*
X13670000D01*
X13679008Y7860000D02*
X14138254Y7400754D01*
X13470000Y8100000D02*
X13473033D01*
X13470000Y7780000D02*
X13470000Y7780000D01*
X13660001Y7700000D02*
X14110001Y7250000D01*
Y5295000D02*
Y7250000D01*
X14210001Y5295000D02*
Y7240000D01*
X13709541Y7882500D02*
X14533105Y7058935D01*
X13690533Y7882500D02*
X13709541D01*
X14533105Y6711820D02*
Y7058935D01*
X13470000Y7700000D02*
X13660001D01*
X13670000Y7780000D02*
X14210001Y7240000D01*
X14595000Y6735000D02*
Y7162500D01*
X13110001Y8380000D02*
X13150000Y8420000D01*
X13110001Y8380000D02*
Y8380000D01*
X13150000Y8260000D02*
X13150000D01*
X13110001Y8300000D02*
X13150000Y8260000D01*
X13070000Y8420000D02*
Y8420000D01*
X13030000Y8380000D02*
X13070000Y8420000D01*
X14260001Y8230000D02*
X14380000Y8110000D01*
X14150000Y8230000D02*
X14260001D01*
X14310001Y7640000D02*
Y7873750D01*
X14380000Y7943750D01*
Y8110000D01*
X14760001Y8600000D02*
X14817500D01*
X14758342Y8601658D02*
X14760001Y8600000D01*
X11610000Y7980000D02*
X11740000D01*
X12470000Y7900000D02*
X12510000Y7860000D01*
X12550000Y7820000D02*
Y7870000D01*
X12550000Y7870000D02*
X12550000Y7870000D01*
X12526568Y7900000D02*
X12550000Y7876568D01*
Y7870000D02*
Y7876568D01*
X12510000Y7940000D02*
X12512426Y7937574D01*
Y7908787D02*
Y7937574D01*
Y7908787D02*
X12521213Y7900000D01*
X12526568D01*
X12550000Y7820000D02*
X12590000Y7780000D01*
X12710000Y7500000D02*
X12750000Y7460000D01*
X12610000Y7042700D02*
Y7320000D01*
X12750000Y7460000D01*
X12750000D01*
X13041466Y8814896D02*
X13064896D01*
X13070000Y8820000D01*
X13006567Y8780000D02*
X13041466Y8814896D01*
X14167500Y7750000D02*
X14230000Y7687500D01*
X13912750Y7750000D02*
X14167500D01*
X13887500Y7775251D02*
X13912750Y7750000D01*
X14150000Y7640000D02*
Y7667500D01*
X14130000Y7687500D02*
X14150000Y7667500D01*
X13939896Y7687500D02*
X14130000D01*
X13681567Y7945828D02*
X13939896Y7687500D01*
X13681567Y7945828D02*
Y7960577D01*
X13470000Y8172145D02*
X13681567Y7960577D01*
X13887500Y7775251D02*
Y7790000D01*
X13607500Y7890000D02*
X13610001Y7892500D01*
X13470000Y7860000D02*
X13679008D01*
X13520000Y7890000D02*
X13607500D01*
X14230000Y7640000D02*
Y7687500D01*
X13630000Y8047500D02*
X13887500Y7790000D01*
X13470000Y8172145D02*
Y8180000D01*
X13630000Y8047500D02*
Y8390000D01*
X13430000Y7980000D02*
X13539999D01*
X13470000Y7940000D02*
X13520000Y7890000D01*
X13470000Y7940000D02*
Y7940000D01*
X13539999Y7980000D02*
X13580000Y7940000D01*
X12510000Y8100000D02*
X12550000Y8140000D01*
X12550000D01*
X12710000D02*
X12750000Y8180000D01*
X13389999Y7620000D02*
X13389999D01*
X13310001Y7540000D02*
X13350000Y7580000D01*
X13430000D01*
X12989999Y8340000D02*
X12989999D01*
X13350000Y7660000D02*
X13389999Y7620000D01*
X13323500Y6123217D02*
Y6183964D01*
X13270000Y6237465D02*
X13323500Y6183964D01*
X13270000Y6237465D02*
Y6240000D01*
X13196500Y5656783D02*
Y5714995D01*
X13239999Y5758495D01*
Y5880000D01*
X11570000Y7290000D02*
Y7400000D01*
X12150000Y7500000D02*
X12190000Y7540000D01*
X11900000Y7500000D02*
X12150000D01*
X11860000Y7460000D02*
X11900000Y7500000D01*
X13450500Y6123217D02*
Y6250500D01*
X13510001Y6310000D01*
X11007500Y5300000D02*
Y5475000D01*
X12270000Y7780000D02*
Y7780000D01*
X12230000Y7740000D02*
X12270000Y7780000D01*
X12150000Y7683432D02*
Y7740000D01*
X12173432Y7660000D02*
X12230000D01*
X12150000Y7683432D02*
X12173432Y7660000D01*
X12230000D02*
X12270000Y7700000D01*
X12150000Y7740000D02*
X12190000Y7780000D01*
X12910001Y8658850D02*
X12950000Y8618850D01*
Y8617700D02*
Y8618850D01*
X12910001Y8658850D02*
Y8660000D01*
X13230000Y8580000D02*
X13310001Y8660000D01*
X13110001Y8620000D02*
Y8620000D01*
X13070000Y8580000D02*
X13110001Y8620000D01*
X12670000Y8580000D02*
X12710000Y8540000D01*
X12790000D01*
Y8620000D02*
X12830000Y8660000D01*
X14725000Y6605000D02*
X15939999D01*
X16235001Y6900000D01*
X14595000Y6735000D02*
X14725000Y6605000D01*
X13389999Y8500000D02*
X13430000Y8540000D01*
X14950000Y8732500D02*
Y8780000D01*
X14817500Y8600000D02*
X14950000Y8732500D01*
X12510000Y8580000D02*
Y8580000D01*
X12470000Y8540000D02*
X12510000Y8580000D01*
X12863342Y8133342D02*
Y8133342D01*
X12830000Y8100000D02*
X12863342Y8133342D01*
X12870000Y8140000D01*
X12790000Y8220000D02*
X12830000Y8260000D01*
X12870000Y8140000D02*
X12910001Y8180000D01*
X12870000Y8140000D02*
Y8140000D01*
X12989999Y8100000D02*
X13030000Y8140000D01*
X14320000Y6870000D02*
Y6920000D01*
X9657749Y6675000D02*
X9802749Y6530000D01*
X9665000Y6935000D02*
X9890000Y6710000D01*
X9643000Y6683787D02*
Y6685000D01*
X9665000Y6835000D02*
X9890000Y6610000D01*
X12550000Y6660000D02*
X12760000Y6870000D01*
X9890000Y6710000D02*
X12540000D01*
X9517500Y6692500D02*
X9635500D01*
X9890000Y6610000D02*
X12590000D01*
X12540000Y6710000D02*
X12750000Y6920000D01*
X12620000Y6570000D02*
X12790000Y6740000D01*
X9890000Y6660000D02*
X12550000D01*
X9880000Y6570000D02*
X12620000D01*
X12590000Y6610000D02*
X12800000Y6820000D01*
X9802749Y6530000D02*
X12740000D01*
X9643000Y6683787D02*
X9651787Y6675000D01*
X9635500Y6692500D02*
X9643000Y6685000D01*
X9665000Y6885000D02*
X9890000Y6660000D01*
X9665000Y6785000D02*
X9880000Y6570000D01*
X12740000Y6530000D02*
X12930000Y6720000D01*
X9651787Y6675000D02*
X9657749D01*
X12930000Y6720000D02*
Y6984000D01*
X13070000Y7124000D01*
X12550000Y7740000D02*
X12590000Y7700000D01*
X12390000Y7740000D02*
X12550000D01*
X12595740Y7625740D02*
X12613195D01*
X12620176Y7632721D01*
X12624235D01*
X12590000Y7620000D02*
X12595740Y7625740D01*
X12573432Y7660000D02*
X12606568D01*
X12446568Y7820000D02*
X12480828Y7785740D01*
X12390000Y7820000D02*
X12446568D01*
X12480828Y7785740D02*
X12504260D01*
X12510000Y7780000D01*
X12350000Y7940000D02*
X12430000Y8020000D01*
X12350000Y7860000D02*
Y7940000D01*
X11814467Y7900000D02*
X12230000D01*
X11351717Y7437250D02*
X11814467Y7900000D01*
X13510001Y5295000D02*
Y5420000D01*
X13430000Y5500000D02*
X13510001Y5420000D01*
X13350111Y7385851D02*
X13352982Y7382981D01*
X13339999Y7290000D02*
Y7350000D01*
X13230000Y7460000D02*
X13339999Y7350000D01*
X13350111Y7385851D02*
Y7419889D01*
X13310001Y7460000D02*
X13350111Y7419889D01*
X13230000Y7540000D02*
Y7540000D01*
Y7540000D02*
X13270000Y7500000D01*
X13389999Y7370000D02*
Y7460000D01*
Y7370000D02*
X13430000Y7330000D01*
X13070000Y7460000D02*
X13110001Y7420000D01*
Y7394059D02*
Y7420000D01*
X13112869Y7376929D02*
X13113786Y7377846D01*
X13110001Y7394059D02*
X13113786Y7390272D01*
Y7377846D02*
Y7390272D01*
X13110001Y7340000D02*
X13112869Y7342870D01*
Y7376929D01*
X13110001Y7500000D02*
X13150000Y7460000D01*
X13150000D02*
X13152499Y7457500D01*
X13110001Y7500000D02*
Y7580000D01*
X13150000Y7540000D02*
X13189999Y7500000D01*
X13430000Y7330000D02*
X13480000D01*
X13530000Y7270000D02*
Y7400000D01*
X13070000Y7124000D02*
Y7403432D01*
X13030000Y7443432D02*
X13070000Y7403432D01*
X13230000Y7620000D02*
Y7620000D01*
X13189999Y7580000D02*
X13230000Y7620000D01*
X12750000Y6920000D02*
X12897501D01*
X13110001Y7820000D02*
X13150000Y7860000D01*
X13150000D01*
X12989999Y7700000D02*
X12989999D01*
X13030000Y7740000D01*
X12989999Y7620000D02*
X12995103Y7625104D01*
X13018536D01*
X13053432Y7660000D01*
X13086568D01*
X13070000Y7780000D02*
X13110001Y7740000D01*
Y7683432D02*
Y7740000D01*
X13086568Y7660000D02*
X13110001Y7683432D01*
X13030000Y7443432D02*
Y7580000D01*
X12989999Y7620000D02*
X13030000Y7580000D01*
X13110001Y8140000D02*
X13150000Y8100000D01*
X13189999Y7900000D02*
X13230000Y7860000D01*
Y7940000D01*
X13430000Y8060000D02*
Y8220000D01*
Y8060000D02*
X13470000Y8020000D01*
X13347002Y8140000D02*
X13387001Y8100000D01*
X13344003Y8140000D02*
X13347002D01*
X13387001Y8100000D02*
X13389999D01*
X13310001Y8097002D02*
X13350000Y8057002D01*
Y8054004D02*
Y8057002D01*
X13310001Y8097002D02*
Y8100000D01*
X13850000Y8210000D02*
X13980000D01*
X13470000Y8260000D02*
X13470000D01*
X13430000Y8220000D02*
X13470000Y8260000D01*
X13430000Y8300000D02*
X13470000Y8260000D01*
X13389999Y7780000D02*
X13430000Y7820000D01*
Y7900000D01*
X13389999Y7940000D02*
X13430000Y7900000D01*
X12110000Y7780000D02*
X12190000D01*
X12230000Y7820000D01*
X12190000Y7940000D02*
X12190000D01*
X12110000D02*
X12190000D01*
X12150000Y7980000D02*
X12190000Y7940000D01*
X12230000Y7820000D02*
X12270000Y7860000D01*
X12310000Y7980000D02*
Y8116568D01*
X12270000Y7940000D02*
X12310000Y7980000D01*
X12344260Y8150828D02*
Y8174260D01*
X12310000Y8116568D02*
X12344260Y8150828D01*
Y8174260D02*
X12350000Y8180000D01*
X12270000Y8100000D02*
X12275740Y8105740D01*
X11286448Y7437250D02*
X11351717D01*
X12230000Y7900000D02*
X12270000Y7940000D01*
X11265000Y7415802D02*
X11286448Y7437250D01*
X11265000Y7399000D02*
Y7415802D01*
X12910001Y7460000D02*
X12950000Y7420000D01*
X12830000Y7860000D02*
X12831250D01*
X12873750Y7817500D01*
X12875000D01*
X12989999Y7354059D02*
Y7460000D01*
Y7354059D02*
X13000000Y7344059D01*
Y7340000D02*
Y7344059D01*
X12270000Y8580000D02*
X12270000D01*
X12310000Y8620000D01*
X11265000Y7924500D02*
Y8060941D01*
X11270000Y8065941D01*
Y8070000D01*
X12230000Y8140000D02*
X12270000Y8100000D01*
X13150000D02*
X13189999Y8140000D01*
Y8220000D01*
X13230000Y8260000D01*
X13189999Y8380000D02*
X13230000Y8420000D01*
X13189999Y8300000D02*
Y8380000D01*
Y8300000D02*
X13230000Y8260000D01*
X13110001Y8460000D02*
X13189999D01*
X13230000Y8420000D01*
X12989999Y8740000D02*
X13070000D01*
X12989999D02*
X13030000Y8700000D01*
X12220000Y8930000D02*
X12270000Y8880000D01*
Y8820000D02*
Y8880000D01*
X12223587Y8986413D02*
X12310000Y8900000D01*
X12188587Y8986413D02*
X12223587D01*
X12187500Y8987500D02*
X12188587Y8986413D01*
X12310000Y8780000D02*
Y8900000D01*
X12230000Y8780000D02*
Y8840000D01*
X12154736Y8937236D02*
X12161432Y8930539D01*
Y8908568D02*
Y8930539D01*
Y8908568D02*
X12230000Y8840000D01*
X12430000Y8820000D02*
Y8820000D01*
X12470000Y8860000D01*
X12430000Y8820000D02*
X12510000D01*
X11600000Y8880000D02*
X11780000D01*
X12510000Y8020000D02*
X12510000D01*
X12470000Y8060000D02*
X12510000Y8020000D01*
X14533105Y6711820D02*
X14698714Y6546213D01*
X17030000Y9620000D02*
X17335001Y9315000D01*
X17662500D01*
X16810001Y9670000D02*
X17489999Y8990000D01*
X17657500D01*
X17270963Y9425000D02*
X17662500D01*
X17117981Y9577981D02*
X17270963Y9425000D01*
X16989999Y8860000D02*
X17195000Y8655000D01*
X17662500D01*
X12989999Y8420000D02*
X12989999D01*
X12950000Y8460000D02*
X12989999Y8420000D01*
X12750000D02*
X12750000D01*
X12710000Y8380000D02*
X12750000Y8420000D01*
X12550000Y8380000D02*
X12710000D01*
X12510000Y8340000D02*
X12550000Y8380000D01*
Y8300000D02*
X12590000Y8340000D01*
X12656000Y8966000D02*
Y9370000D01*
X12630000Y8940000D02*
X12656000Y8966000D01*
X13430000Y7500000D02*
X13470000Y7540000D01*
X9593000Y6792500D02*
X9600500Y6785000D01*
X9665000D01*
X9600500Y6835000D02*
X9665000D01*
X9593000Y6842500D02*
X9600500Y6835000D01*
X9593000Y6892500D02*
X9600500Y6885000D01*
X9665000D01*
X9593000Y6942500D02*
X9600500Y6935000D01*
X9665000D01*
X13070000Y7124000D02*
X13070000Y7124000D01*
X13070000Y7620000D02*
X13110001Y7580000D01*
X13470000Y7460000D02*
X13530000Y7400000D01*
X14700000Y6547500D02*
X15989999D01*
X14698714Y6546213D02*
X14700000Y6547500D01*
X13310001Y8820000D02*
Y8915941D01*
X13300200Y8925741D02*
X13310001Y8915941D01*
X13300200Y8925741D02*
Y8929800D01*
X13150000Y8740000D02*
X13189999Y8780000D01*
X13230000Y8740000D02*
X13270000Y8780000D01*
Y8780000D01*
X13230000Y8820000D02*
X13270000Y8780000D01*
X13389999Y8820000D02*
X13430000Y8780000D01*
X13389999Y8820000D02*
Y8820000D01*
X13310001Y8580000D02*
X13350000Y8620000D01*
X13389999Y8500000D02*
Y8580000D01*
X17225000Y8765000D02*
X17662500D01*
X17220000Y8770000D02*
X17225000Y8765000D01*
X17657500Y8990000D02*
X17662500Y8985000D01*
X9466213Y6756213D02*
X9470000Y6760000D01*
X9466213Y6743787D02*
X9517500Y6692500D01*
X9466213Y6743787D02*
Y6756213D01*
X9470000Y6760000D02*
Y6940000D01*
X9585500Y6985000D02*
X9593000Y6992500D01*
X9515000Y6985000D02*
X9585500D01*
X9470000Y6940000D02*
X9515000Y6985000D01*
X12350000Y7460000D02*
Y7460000D01*
Y7460000D02*
X12390000Y7420000D01*
X12110000Y7540000D02*
Y7620000D01*
X12350000Y7460000D02*
X12510000D01*
X12630000Y7420000D02*
X12670000Y7460000D01*
X12550000Y7420000D02*
X12630000D01*
X12510000Y7460000D02*
X12550000Y7420000D01*
X12750000Y8020000D02*
Y8020000D01*
Y8020000D02*
X12790000Y7980000D01*
X12110000Y8740000D02*
X12150000Y8780000D01*
X12533118Y8725000D02*
X12536924D01*
X12510000Y8740000D02*
X12518118D01*
X12533118Y8725000D01*
X12561924Y8700000D02*
X12710000D01*
X12536924Y8725000D02*
X12561924Y8700000D01*
X12470000Y8220000D02*
X12510000Y8260000D01*
X12510000Y8180000D02*
X12590000D01*
X12670000Y8260000D02*
X12750000Y8180000D01*
X12910001Y8020000D02*
Y8020000D01*
Y8020000D02*
X12950000Y7980000D01*
X12989999Y8260000D02*
Y8260000D01*
Y8260000D02*
X13030000Y8220000D01*
X12830000Y7540000D02*
X12910001Y7620000D01*
Y7620000D01*
X12750000Y7540000D02*
X12830000D01*
X12750000Y7780000D02*
Y7860000D01*
Y7780000D02*
X12910001Y7620000D01*
X12590000Y8580000D02*
Y8660000D01*
X12430000Y8740000D02*
X12430000D01*
X12270000Y8500000D02*
X12350000D01*
Y8420000D02*
Y8500000D01*
X12390000Y8540000D01*
X12270000Y8660000D02*
X12350000D01*
X12270000Y8580000D02*
Y8660000D01*
X12190000D02*
X12270000D01*
X12110000Y8580000D02*
X12190000D01*
Y8580000D01*
X12230000Y8620000D01*
X12670000Y8740000D02*
X12710000Y8780000D01*
X12670000Y8820000D02*
Y8820000D01*
Y8820000D02*
X12710000Y8780000D01*
X12710000D02*
X12750000Y8740000D01*
X12710000Y8780000D02*
X12710000D01*
X12870000Y8780000D02*
X12910001Y8740000D01*
X12830000D02*
X12870000Y8780000D01*
Y8780000D01*
X12830000Y8820000D02*
Y8820000D01*
Y8820000D02*
X12870000Y8780000D01*
X13389999Y8340000D02*
X13430000Y8300000D01*
Y8300000D02*
Y8300000D01*
Y8300000D02*
X13430000D01*
X13389999Y8180000D02*
X13430000Y8220000D01*
X12989999Y7780000D02*
X13030000Y7820000D01*
X12989999Y7940000D02*
Y7940000D01*
Y7940000D02*
X13030000Y7900000D01*
X13389999Y8820000D02*
X13470000D01*
Y8740000D02*
Y8820000D01*
X13310001Y8660000D02*
Y8660000D01*
X12190000Y7940000D02*
Y7940000D01*
X12110000Y8100000D02*
X12190000D01*
X12270000Y8020000D01*
X12190000Y7940000D02*
X12270000Y8020000D01*
Y8020000D01*
Y7860000D02*
X12350000D01*
Y8100000D02*
X12430000Y8020000D01*
X12430000D01*
X12470000Y8220000D02*
X12510000Y8180000D01*
X12470000Y8220000D02*
Y8220000D01*
X12430000Y8180000D02*
X12470000Y8220000D01*
X12390000Y8300000D02*
X12390000D01*
X12350000Y8340000D02*
X12390000Y8300000D01*
X12350000Y8340000D02*
Y8340000D01*
Y8260000D02*
X12390000Y8300000D01*
X12430000Y8260000D02*
X12430000D01*
X12390000Y8300000D02*
X12430000Y8260000D01*
X12430000D02*
Y8340000D01*
X12190000Y8260000D02*
X12270000Y8340000D01*
X12110000Y8260000D02*
X12190000D01*
X12110000Y8420000D02*
X12190000D01*
X12230000Y8460000D01*
Y8460000D01*
X12750000Y8340000D02*
X12830000Y8420000D01*
Y8500000D01*
X12910001Y8420000D02*
Y8500000D01*
Y8340000D02*
Y8420000D01*
X12830000D02*
X12910001D01*
X12830000Y8500000D02*
Y8580000D01*
X12750000Y8500000D02*
X12830000D01*
X13150000Y8260000D02*
Y8340000D01*
X11972499Y7702499D02*
X12046906D01*
X12049405Y7700000D01*
X11970000D02*
X11972499Y7702499D01*
X12049405Y7700000D02*
X12110000D01*
X12190000Y7860000D02*
X12190000D01*
X12150000Y7820000D02*
X12190000Y7860000D01*
X11980000D02*
X12110000D01*
X12110000Y8020000D02*
X12110000Y8020000D01*
X11980000Y8020000D02*
X12110000D01*
X12101882Y8180000D02*
X12110000D01*
X12071882Y8210000D02*
X12101882Y8180000D01*
X11980000Y8210000D02*
X12071882D01*
X10410000Y8170000D02*
X10530000Y8290000D01*
X9595500Y8170000D02*
X10410000D01*
X10320000Y8270000D02*
X10430000Y8380000D01*
Y8390000D01*
X9595500Y8270000D02*
X10320000D01*
X9595500Y8320000D02*
X10120000D01*
X9595500Y8370000D02*
X9910000D01*
X9940000Y8400000D01*
X9595500Y8420000D02*
X9880000D01*
X9950000Y8490000D01*
X9595500Y8470000D02*
X9830000D01*
X12790000Y7900000D02*
X12830000Y7940000D01*
X12710000Y7900000D02*
X12750000Y7940000D01*
X12550000Y7500000D02*
X12590000Y7540000D01*
X12190000Y7337500D02*
X12190000Y7337500D01*
Y7460000D01*
X12272500Y7352500D02*
X12275000Y7350000D01*
X12272500Y7352500D02*
Y7457500D01*
X12270000Y7460000D02*
X12272500Y7457500D01*
X12350000Y7695000D02*
Y7700000D01*
X12315000Y7660000D02*
X12350000Y7695000D01*
Y7778750D02*
Y7780000D01*
X12312500Y7741250D02*
X12350000Y7778750D01*
X12312500Y7740000D02*
Y7741250D01*
X10907500Y5300000D02*
Y5467500D01*
X10927500Y5487500D01*
X11107500Y5300000D02*
Y5517500D01*
X11135000Y5545000D01*
X11207500Y5300000D02*
Y5527500D01*
X11235000Y5555000D01*
X11307500Y5300000D02*
Y5547500D01*
X11335000Y5575000D01*
X11407500Y5300000D02*
Y5570000D01*
X11445000Y5607500D01*
X11507500Y5300000D02*
Y5577500D01*
X11545000Y5615000D01*
X11607500Y5300000D02*
Y5567500D01*
X11675000Y5635000D01*
X11707500Y5300000D02*
Y5557500D01*
X11800000Y5650000D01*
X11807500Y5300000D02*
Y5542500D01*
X11880000Y5615000D01*
X11907500Y5510000D02*
X11977500Y5580000D01*
X11907500Y5300000D02*
Y5510000D01*
X12007500Y5300000D02*
Y5505001D01*
X12047500Y5545000D01*
X16177499Y7200000D02*
X16411501D01*
X16175000Y7250000D02*
X16411501D01*
X16175000Y7250000D02*
X16175000Y7250000D01*
X13310001Y8020000D02*
Y8020000D01*
Y8020000D02*
X13350000Y7980000D01*
X15895000Y7350000D02*
X16411501D01*
X15847501Y7302500D02*
X15895000Y7350000D01*
X16111287Y7050000D02*
X16411501D01*
X16102499Y7058787D02*
X16111287Y7050000D01*
X16102499Y7058787D02*
Y7150000D01*
X16062500Y7190000D02*
X16102499Y7150000D01*
X15989999Y6547500D02*
X16242500Y6800000D01*
X15902499Y6667500D02*
X16185001Y6950000D01*
X16411501D01*
X16182500Y7105000D02*
X16185001Y7102500D01*
X16409000D01*
X16411501Y7100000D01*
X13389999Y8020000D02*
X13430000Y7980000D01*
X16235001Y6900000D02*
X16411501D01*
X16242500Y6800000D02*
X16411501D01*
X11965000Y8805000D02*
Y9192500D01*
Y8805000D02*
X12110000Y8660000D01*
X12230000Y8780000D02*
X12270000Y8740000D01*
X12310000Y8780000D02*
X12350000Y8740000D01*
Y8957500D02*
X12352479Y8959979D01*
X12350000Y8820000D02*
Y8957500D01*
X13382500Y8982500D02*
X13385001D01*
X13350000Y8950000D02*
X13382500Y8982500D01*
X13350000Y8780000D02*
Y8950000D01*
X13270000Y8700000D02*
X13350000Y8780000D01*
X12950000Y8723432D02*
Y8756568D01*
X12973431Y8780000D02*
X13006567D01*
X12790000Y8700000D02*
X12926569D01*
X12950000Y8723432D01*
Y8756568D02*
X12973431Y8780000D01*
X12750000Y8660000D02*
X12790000Y8700000D01*
X12710000D02*
X12750000Y8660000D01*
X12510000Y7540000D02*
X12550000Y7580000D01*
X12630000D01*
X12670000Y7620000D01*
X12710000Y7580000D01*
Y7500000D02*
Y7580000D01*
X12750000Y7460000D02*
X12790000Y7500000D01*
X12870000D01*
X12910001Y7940000D02*
Y7940000D01*
X12830000Y8020000D02*
X12910001Y7940000D01*
Y7940000D02*
X12950000Y7900000D01*
X12870000Y7500000D02*
X12950000Y7580000D01*
Y7900000D01*
X13230000Y7700000D02*
X13270000Y7660000D01*
Y7580000D02*
Y7660000D01*
Y7580000D02*
X13310001Y7540000D01*
X13230000Y7700000D02*
X13270000Y7740000D01*
Y7900000D01*
X13310001Y7940000D01*
X12910001Y8260000D02*
X12989999Y8180000D01*
X12910001Y8260000D02*
X12989999Y8340000D01*
X12830000Y8180000D02*
X12910001Y8260000D01*
X12830000Y8180000D02*
Y8180000D01*
Y8340000D02*
X12910001Y8260000D01*
X12750000D02*
X12830000Y8340000D01*
X12670000D02*
X12750000Y8260000D01*
X12750000D01*
X12590000D02*
X12670000Y8340000D01*
Y8180000D02*
Y8180000D01*
X12590000Y8260000D02*
X12670000Y8180000D01*
X12590000Y8100000D02*
X12670000Y8180000D01*
X12590000Y8100000D02*
X12670000Y8020000D01*
X12670000D02*
X12750000Y8100000D01*
X12670000Y8020000D02*
X12670000D01*
X12830000D02*
X12830000D01*
X12750000Y8100000D02*
X12830000Y8020000D01*
X12830000D02*
X12910001Y8100000D01*
X12989999Y8020000D02*
X12989999D01*
X12910001Y8100000D02*
X12989999Y8020000D01*
X12989999D02*
X13030000Y8060000D01*
X13189999D01*
X13230000Y8100000D01*
X13270000Y7980000D02*
X13310001Y7940000D01*
X13270000Y7980000D02*
Y8060000D01*
X13230000Y8100000D02*
X13270000Y8060000D01*
X13230000Y8100000D02*
X13270000Y8140000D01*
Y8300000D01*
X13310001Y8340000D01*
X13430000Y8380000D02*
X13470000Y8420000D01*
X13310001Y8340000D02*
X13350000Y8380000D01*
X13430000D01*
X13270000Y8380000D02*
X13310001Y8340000D01*
X13270000Y8380000D02*
Y8460000D01*
X13110001Y8700000D02*
X13150000Y8660000D01*
X13110001Y8700000D02*
Y8780000D01*
X13070000Y8820000D02*
X13110001Y8780000D01*
X13150000Y8660000D02*
Y8665000D01*
X13185001Y8700000D02*
X13270000D01*
X13150000Y8665000D02*
X13185001Y8700000D01*
X12515000Y8992500D02*
X12550000Y8957500D01*
Y8780000D02*
Y8957500D01*
Y8780000D02*
X12590000Y8740000D01*
Y8820000D02*
Y8990000D01*
D45*
X16380000Y7480000D02*
X16489999D01*
X14448283Y7001716D02*
X14480000Y6970000D01*
X14448283Y7001716D02*
Y7018284D01*
X14336568Y7130000D02*
X14448283Y7018284D01*
X14260001Y7130000D02*
X14336568D01*
X15120000Y7640000D02*
X15200000D01*
X15400000Y7840000D01*
X14910001Y7850000D02*
X15120000Y7640000D01*
X12816608Y6119000D02*
X12970000Y5965608D01*
Y5290000D02*
Y5965608D01*
X12788430Y6119000D02*
X12816608D01*
X15113432Y7816568D02*
X15120000Y7810000D01*
X15000000Y7816568D02*
X15113432D01*
X14756567Y8060000D02*
X15000000Y7816568D01*
X14630000Y8060000D02*
X14756567D01*
X14370000Y6970000D02*
Y6980000D01*
X14400000Y7010000D01*
X15120000Y8130000D02*
X15167500D01*
X15195000Y8102500D01*
X15205354D01*
X15260001Y8047855D01*
Y7830000D02*
Y8047855D01*
X12733257Y6063827D02*
X12788430Y6119000D01*
X12713827Y6063827D02*
X12733257D01*
X12710000Y6060000D02*
X12713827Y6063827D01*
X15527608Y7840000D02*
X15530000Y7837608D01*
X15400000Y7840000D02*
X15527608D01*
X14470000Y7850000D02*
X14910001D01*
X11265000Y8175500D02*
X11350000Y8090500D01*
X11265000Y7650000D02*
X11350000Y7735000D01*
Y8090500D01*
X14760500Y6960000D02*
X15120000D01*
X14750500Y6970000D02*
X14760500Y6960000D01*
X14639999Y6970000D02*
X14750500D01*
X14430000Y6920000D02*
X14480000Y6970000D01*
X14420000Y6920000D02*
X14420000Y6920000D01*
X14430000D01*
X16411501Y7000000D02*
X16411501Y7000000D01*
X16560001D01*
X16589999Y7030000D02*
Y7120000D01*
X16560001Y7000000D02*
X16589999Y7030000D01*
X16411501Y7150000D02*
X16560001D01*
X16589999Y7120000D01*
X16170000Y7000000D02*
X16411501D01*
X16170000Y7000000D02*
X16170000Y7000000D01*
X16589999Y6700000D02*
X16620000Y6730000D01*
X16411501Y6700000D02*
X16589999D01*
X16620000Y6730000D02*
Y6790000D01*
X16411501Y6850000D02*
X16560001D01*
X16620000Y6790000D01*
Y7350000D02*
X16670000Y7400000D01*
X16570000Y7300000D02*
X16620000Y7350000D01*
X16489999Y7480000D02*
X16620000Y7350000D01*
X16220000Y6680000D02*
X16239999Y6700000D01*
X16220000Y6580000D02*
Y6680000D01*
X16239999Y6700000D02*
X16411501D01*
X16239999Y6600000D02*
X16411501D01*
X16220000Y6580000D02*
X16239999Y6600000D01*
X16670000Y7623500D02*
X16671500Y7625000D01*
X16670000Y7400000D02*
Y7623500D01*
X16411501Y7300000D02*
X16570000D01*
X13864999Y8560074D02*
Y8977500D01*
X13730000Y8562145D02*
Y8977500D01*
X14387500Y8782500D02*
Y8995000D01*
X14385001Y8997500D02*
X14387500Y8995000D01*
X13882574Y8542500D02*
X13967500D01*
X13864999Y8560074D02*
X13882574Y8542500D01*
X11687500Y10252500D02*
X12315000Y9625000D01*
X11687500Y10252500D02*
Y10376900D01*
X11677300Y10387100D02*
X11687500Y10376900D01*
X13622501Y9217500D02*
X13724927D01*
X13742500Y9322500D02*
X13770000Y9350000D01*
X13742500Y9235074D02*
Y9322500D01*
X13724927Y9217500D02*
X13742500Y9235074D01*
X13414999Y9010000D02*
X13622501Y9217500D01*
X12375000Y9205000D02*
Y9647500D01*
Y9205000D02*
X12555000Y9025000D01*
X11777300Y10245200D02*
X12375000Y9647500D01*
X11777300Y10245200D02*
Y10387100D01*
X14147501Y8782500D02*
X14150000Y8780000D01*
X14147501Y8782500D02*
Y9012500D01*
X14145000Y9015000D02*
X14147501Y9012500D01*
X14305000Y9005000D02*
X14307500Y9002500D01*
Y8782500D02*
Y9002500D01*
Y8782500D02*
X14310001Y8780000D01*
X14228751Y8781250D02*
X14230000Y8780000D01*
X14228751Y8781250D02*
Y9003750D01*
X14227499Y9005000D02*
X14228751Y9003750D01*
X14387500Y8782500D02*
X14389999Y8780000D01*
X13730000Y8562145D02*
X13894646Y8397500D01*
X13797501Y8560000D02*
Y8980000D01*
X13932500Y8370000D02*
X13980000D01*
X13905000Y8397500D02*
X13932500Y8370000D01*
X13894646Y8397500D02*
X13905000D01*
X13797501Y8560000D02*
X13895000Y8462500D01*
X13967500D02*
X13980000Y8450000D01*
X13895000Y8462500D02*
X13967500D01*
Y8542500D02*
X13980000Y8530000D01*
Y8610000D02*
Y8965000D01*
X13962500Y8982500D02*
X13980000Y8965000D01*
D46*
X12830000Y7620000D02*
X12830000D01*
X14280000Y7970000D02*
X14310001Y8000000D01*
Y8100000D01*
X13389999Y8260000D02*
X13389999D01*
X13350000Y8300000D02*
X13389999Y8260000D01*
X13069501Y5606368D02*
Y5656783D01*
X13021245Y5580000D02*
X13034303Y5593058D01*
X13056190D02*
X13069501Y5606368D01*
X13020000Y5580000D02*
X13021245D01*
X13034303Y5593058D02*
X13056190D01*
X14760001Y6650000D02*
X14760249Y6650250D01*
Y6730750D02*
X14760500Y6731000D01*
X14760249Y6650250D02*
Y6730750D01*
X13600880Y5304120D02*
X13610001Y5295000D01*
X13600000Y6700000D02*
X13600880Y6699120D01*
Y5304120D02*
Y6699120D01*
X14280000Y7050000D02*
X14320000Y7010000D01*
Y6970000D02*
Y7010000D01*
X11900000Y7984879D02*
Y8140000D01*
Y7984879D02*
X11914879Y7970000D01*
X11960000D01*
X11980000Y7950000D01*
X11600000Y8440000D02*
X11612500D01*
X11659800Y8392700D01*
Y8380200D02*
Y8392700D01*
Y8380200D02*
X11900000Y8140000D01*
X11600000Y8640000D02*
X11612500D01*
X11772500Y8480000D01*
X11920000D01*
X14019119Y7179120D02*
X14020000Y7180000D01*
X14019119Y5304120D02*
Y7179120D01*
X13700795Y5304205D02*
X13710001Y5295000D01*
X13700795Y5304205D02*
Y6729205D01*
X13699915Y6730085D02*
X13700795Y6729205D01*
X13910001Y5295000D02*
Y7098755D01*
X13889999Y7118755D02*
X13910001Y7098755D01*
X13889999Y7118755D02*
Y7120000D01*
X14010001Y5295000D02*
X14019119Y5304120D01*
X13810001Y5295000D02*
Y6730000D01*
X13770000Y6770000D02*
X13810001Y6730000D01*
X13980000Y7970000D02*
X14280000D01*
X14710001Y7470000D02*
Y7640000D01*
X14389999Y7640000D02*
X14389999Y7640000D01*
X14389999Y7470000D02*
Y7640000D01*
X13189999Y7980000D02*
X13230000Y8020000D01*
X11477300Y10387100D02*
X11478650Y10385750D01*
Y10211350D02*
Y10385750D01*
Y10211350D02*
X11480000Y10210000D01*
X11275500Y10385300D02*
X11277300Y10387100D01*
X11275500Y10215500D02*
Y10385300D01*
X11273700Y10213700D02*
X11275500Y10215500D01*
X11377300Y10387100D02*
X11378650Y10385750D01*
Y10213850D02*
Y10385750D01*
Y10213850D02*
X11380000Y10212500D01*
X11577300Y10387100D02*
X11577400Y10387000D01*
Y10202600D02*
Y10387000D01*
Y10202600D02*
X11577500Y10202500D01*
X11877300Y10387100D02*
X11879900Y10384500D01*
Y10240100D02*
Y10384500D01*
Y10240100D02*
X11882500Y10237500D01*
X14239500Y10387100D02*
X14241000Y10385600D01*
Y10164000D02*
Y10385600D01*
Y10164000D02*
X14242500Y10162500D01*
X14139500Y10387100D02*
X14142250Y10384350D01*
Y10167750D02*
Y10384350D01*
Y10167750D02*
X14145000Y10165000D01*
X14039500Y10387100D02*
X14042250Y10384350D01*
Y10172750D02*
Y10384350D01*
Y10172750D02*
X14045000Y10170000D01*
X13939500Y10387100D02*
X13942250Y10384350D01*
Y10175250D02*
Y10384350D01*
Y10175250D02*
X13945000Y10172500D01*
X13839500Y10387100D02*
X13841000Y10385600D01*
Y10171500D02*
Y10385600D01*
Y10171500D02*
X13842500Y10170000D01*
X13739500Y10387100D02*
X13743500Y10383100D01*
Y10166500D02*
Y10383100D01*
Y10166500D02*
X13747501Y10162500D01*
X13639500Y10387100D02*
X13645293Y10381307D01*
Y10169707D02*
Y10381307D01*
Y10169707D02*
X13650000Y10165000D01*
X13539500Y10192157D02*
Y10387100D01*
Y10192157D02*
X13552499Y10179157D01*
Y10172500D02*
Y10179157D01*
D47*
X11820000Y7170000D02*
X12110000Y7460000D01*
X11490000Y7170000D02*
X11820000D01*
X14270000Y6920000D02*
X14320000Y6970000D01*
X14270000Y6771716D02*
Y6920000D01*
X14311584Y6771716D02*
X14330051Y6753249D01*
X14270000Y6771716D02*
X14311584D01*
X14455499Y6753300D02*
Y6755999D01*
X14370000Y6841499D02*
X14455499Y6755999D01*
X14370000Y6841499D02*
Y6920000D01*
X13385001Y8982500D02*
X13412500Y9010000D01*
X13414999D01*
X12315000Y9192500D02*
X12515000Y8992500D01*
X12315000Y9192500D02*
Y9625000D01*
X12555000Y9025000D02*
X12590000Y8990000D01*
D48*
X9485500Y7156500D02*
D03*
Y6578500D02*
D03*
X9488000Y8634000D02*
D03*
Y8056000D02*
D03*
D49*
X9535500Y6435500D02*
D03*
Y7299500D02*
D03*
X9538000Y7913000D02*
D03*
Y8777000D02*
D03*
D50*
X9117500Y6435500D02*
D03*
Y7299500D02*
D03*
X9120000Y7913000D02*
D03*
Y8777000D02*
D03*
D51*
X16671500Y5975000D02*
D03*
Y7625000D02*
D03*
D52*
X17349500Y5975000D02*
D03*
Y7625000D02*
D03*
D53*
X17439500Y6800000D02*
D03*
D54*
X9820000Y7910000D02*
D03*
X10310000Y8700000D02*
D03*
X14500000Y8630000D02*
D03*
X14760001Y6650000D02*
D03*
X14750000Y6350000D02*
D03*
X15920000Y8760000D02*
D03*
X12919000Y5661000D02*
D03*
X15910001Y6090000D02*
D03*
X15530000Y6880000D02*
D03*
X12710000Y6060000D02*
D03*
X13530000Y7270000D02*
D03*
X10550000Y6780000D02*
D03*
Y6470000D02*
D03*
X10560000Y6120000D02*
D03*
X15289999Y8340000D02*
D03*
X11170000Y8280000D02*
D03*
X15430000Y9490000D02*
D03*
X15139999Y9600000D02*
D03*
X16470000Y9590000D02*
D03*
X13864999Y8977500D02*
D03*
X13730000D02*
D03*
X14385001Y8997500D02*
D03*
X13020000Y6130000D02*
D03*
X14389999Y7470000D02*
D03*
X14710001D02*
D03*
X15275000Y6025000D02*
D03*
X14860001Y5760000D02*
D03*
X9710000Y8730000D02*
D03*
X9700000Y7990000D02*
D03*
X15570000Y6770000D02*
D03*
X14839999Y10630000D02*
D03*
X12490000Y9790000D02*
D03*
X13450000Y9750000D02*
D03*
X14539999Y6350000D02*
D03*
X15280000Y5650000D02*
D03*
X14850000Y5200000D02*
D03*
X12661250Y5055000D02*
D03*
X10440000Y4980000D02*
D03*
X9720000Y6090000D02*
D03*
X9760000Y7270000D02*
D03*
X10152500Y7492500D02*
D03*
X10430000Y9580000D02*
D03*
X10520000Y9160000D02*
D03*
X11600000Y9200000D02*
D03*
X17530000Y8880000D02*
D03*
X16500000Y8790000D02*
D03*
X17620000Y8350000D02*
D03*
X17610001Y9940000D02*
D03*
X12286569Y10440000D02*
D03*
X10827300Y10477100D02*
D03*
X12708400Y10627100D02*
D03*
X12154736Y8937236D02*
D03*
X12187500Y8987500D02*
D03*
X12352479Y8959979D02*
D03*
X11882500Y10237500D02*
D03*
X14242500Y10162500D02*
D03*
X14145000Y10165000D02*
D03*
X14045000Y10170000D02*
D03*
X13945000Y10172500D02*
D03*
X13842500Y10170000D02*
D03*
X13747501Y10162500D02*
D03*
X13650000Y10165000D02*
D03*
X13552499Y10172500D02*
D03*
X14145000Y9015000D02*
D03*
X14305000Y9005000D02*
D03*
X14227499D02*
D03*
X13797501Y8980000D02*
D03*
X13962500Y8982500D02*
D03*
D55*
X12470000Y7980000D02*
D03*
X12550000Y8060000D02*
D03*
X12470000Y7660000D02*
D03*
X12566265Y7906265D02*
D03*
X12390000Y8460000D02*
D03*
Y8540000D02*
D03*
X12470000Y8380000D02*
D03*
X12710000Y8140000D02*
D03*
X12630000Y7816321D02*
D03*
X12631701Y7891701D02*
D03*
X12710000Y7660000D02*
D03*
X12390000Y8780000D02*
D03*
Y8700000D02*
D03*
Y8620000D02*
D03*
X12628759Y8438711D02*
D03*
X12641265Y8528735D02*
D03*
X12721265Y8448735D02*
D03*
X13121265Y8528735D02*
D03*
X13030000Y8460000D02*
D03*
Y8620000D02*
D03*
X12950000Y8380000D02*
D03*
X12231658Y8221658D02*
D03*
X12148342Y8138342D02*
D03*
X11990000Y8310000D02*
D03*
X15460001Y7470000D02*
D03*
X16380000Y7480000D02*
D03*
X12470000Y8700000D02*
D03*
X12710000Y8860000D02*
D03*
Y8780000D02*
D03*
X12790000D02*
D03*
X13030000Y8700000D02*
D03*
X12000000Y7620000D02*
D03*
X12470000Y7500000D02*
D03*
X13630000Y7570000D02*
D03*
X14260001Y7130000D02*
D03*
X12790000Y7660000D02*
D03*
X12710000Y7740000D02*
D03*
X13189999D02*
D03*
X14030000Y7630000D02*
D03*
X13110001Y8380000D02*
D03*
X14150000Y8230000D02*
D03*
X13110001Y8300000D02*
D03*
X13030000Y8380000D02*
D03*
X14758342Y8601658D02*
D03*
X14310001Y8100000D02*
D03*
X11740000Y7980000D02*
D03*
X12470000Y7900000D02*
D03*
X10580000Y7730000D02*
D03*
X12550000Y8300000D02*
D03*
X13610001Y7892500D02*
D03*
X13350000Y8300000D02*
D03*
X13630000Y8390000D02*
D03*
X12550000Y8140000D02*
D03*
X13350000Y7660000D02*
D03*
X13270000Y6240000D02*
D03*
X13239999Y5880000D02*
D03*
X13020000Y5580000D02*
D03*
X12970000Y5290000D02*
D03*
X11570000Y7400000D02*
D03*
X11860000Y7460000D02*
D03*
X13510001Y6310000D02*
D03*
X11007500Y5475000D02*
D03*
X10927500Y5487500D02*
D03*
X12230000Y7740000D02*
D03*
X11490000Y7170000D02*
D03*
X12950000Y8617700D02*
D03*
X13270000Y8620000D02*
D03*
X13110001D02*
D03*
X12790000Y8540000D02*
D03*
X13430000D02*
D03*
X12470000D02*
D03*
X12863342Y8133342D02*
D03*
X12790000Y8220000D02*
D03*
X13030000Y8140000D02*
D03*
X14630000Y8060000D02*
D03*
X14400000Y7010000D02*
D03*
X14320000Y6870000D02*
D03*
X15260001Y7830000D02*
D03*
X14280000Y7050000D02*
D03*
X12624235Y7632721D02*
D03*
X12390000Y7820000D02*
D03*
Y7740000D02*
D03*
X12390000Y7980000D02*
D03*
X11980000Y7950000D02*
D03*
X11920000Y8480000D02*
D03*
X14020000Y7180000D02*
D03*
X13430000Y5500000D02*
D03*
X13699915Y6730085D02*
D03*
X13339999Y7290000D02*
D03*
X13352982Y7382981D02*
D03*
X13600000Y6700000D02*
D03*
X13270000Y7500000D02*
D03*
X13110001Y7340000D02*
D03*
X13889999Y7120000D02*
D03*
X13770000Y6770000D02*
D03*
X13110001Y7500000D02*
D03*
X13189999D02*
D03*
X13480000Y7330000D02*
D03*
X13189999Y7580000D02*
D03*
X12897501Y6920000D02*
D03*
X13110001Y7820000D02*
D03*
X13030000Y7740000D02*
D03*
X13110001Y8140000D02*
D03*
X13189999Y7900000D02*
D03*
X13430000Y7820000D02*
D03*
X13850000Y8210000D02*
D03*
X12150000Y7980000D02*
D03*
X12230000Y7820000D02*
D03*
X12950000Y7420000D02*
D03*
X12875000Y7817500D02*
D03*
X11270000Y8070000D02*
D03*
X12230000Y8140000D02*
D03*
X13000000Y7340000D02*
D03*
X12220000Y8930000D02*
D03*
X12470000Y8860000D02*
D03*
X12480000Y6820000D02*
D03*
X11780000Y8880000D02*
D03*
X12470000Y8060000D02*
D03*
X16239999Y9180000D02*
D03*
X15320000Y6960000D02*
D03*
X15120000D02*
D03*
X14639999Y6970000D02*
D03*
X14480000D02*
D03*
X17117981Y9577981D02*
D03*
X17030000Y9620000D02*
D03*
X16989999Y8860000D02*
D03*
X12630000Y8940000D02*
D03*
X12950000Y8460000D02*
D03*
X13430000Y7500000D02*
D03*
X12800000Y6820000D02*
D03*
X12760000Y6870000D02*
D03*
X12790000Y6740000D02*
D03*
X16170000Y7000000D02*
D03*
X16220000Y6580000D02*
D03*
X13300200Y8929800D02*
D03*
X16810001Y9670000D02*
D03*
X13189999Y8780000D02*
D03*
X13270000D02*
D03*
X13430000D02*
D03*
X13350000Y8620000D02*
D03*
X17220000Y8770000D02*
D03*
X12390000Y7420000D02*
D03*
X12790000Y7980000D02*
D03*
X12950000D02*
D03*
X13030000Y8220000D02*
D03*
X12310000Y8620000D02*
D03*
X13030000Y7900000D02*
D03*
Y7820000D02*
D03*
X13430000Y8300000D02*
D03*
Y8220000D02*
D03*
X12870000Y8780000D02*
D03*
X12150000D02*
D03*
X12470000Y8220000D02*
D03*
X12390000Y8300000D02*
D03*
X12230000Y8460000D02*
D03*
Y8620000D02*
D03*
X11970000Y7700000D02*
D03*
X12150000Y7820000D02*
D03*
X11980000Y7860000D02*
D03*
Y8020000D02*
D03*
Y8210000D02*
D03*
X10530000Y8290000D02*
D03*
X10430000Y8390000D02*
D03*
X10120000Y8320000D02*
D03*
X9940000Y8400000D02*
D03*
X9950000Y8490000D02*
D03*
X9830000Y8470000D02*
D03*
X12710000Y7900000D02*
D03*
X12550000Y7500000D02*
D03*
X12190000Y7337500D02*
D03*
X12275000Y7350000D02*
D03*
X12790000Y7900000D02*
D03*
X12312500Y7740000D02*
D03*
X12315000Y7660000D02*
D03*
X11135000Y5545000D02*
D03*
X11235000Y5555000D02*
D03*
X11335000Y5575000D02*
D03*
X11445000Y5607500D02*
D03*
X11545000Y5615000D02*
D03*
X11675000Y5635000D02*
D03*
X11800000Y5650000D02*
D03*
X11880000Y5615000D02*
D03*
X11977500Y5580000D02*
D03*
X12047500Y5545000D02*
D03*
X13189999Y7980000D02*
D03*
X16177499Y7200000D02*
D03*
X16175000Y7250000D02*
D03*
D56*
X14285001Y7472500D02*
D03*
X14138254Y7400754D02*
D03*
X13580000Y7940000D02*
D03*
X13344003Y8140000D02*
D03*
X13350000Y8054004D02*
D03*
X14600000Y7800000D02*
D03*
X11870000Y6170000D02*
D03*
X9820000Y9080000D02*
D03*
X10580000Y8890000D02*
D03*
X11320000Y8370000D02*
D03*
X11170000Y7520000D02*
D03*
X10200000Y6830000D02*
D03*
X10180000Y5630000D02*
D03*
X14850000Y7190000D02*
D03*
X15070000Y7370000D02*
D03*
X13350000Y7980000D02*
D03*
X15847501Y7302500D02*
D03*
X16062500Y7190000D02*
D03*
X16182500Y7105000D02*
D03*
X11480000Y10210000D02*
D03*
X11965000Y9192500D02*
D03*
X11273700Y10213700D02*
D03*
X11380000Y10212500D02*
D03*
X11577500Y10202500D02*
D03*
D57*
X17150000Y5290000D02*
D03*
X9500000Y5210000D02*
D03*
X9510000Y10490000D02*
D03*
X17160001Y10540000D02*
D03*
%TF.MD5,181e551bc10eae5a67128372b35f5a0e*%
M02*
