%TF.GenerationSoftware,Altium Limited,Altium Designer,23.4.1 (23)*%
G04 Layer_Color=8388736*
%FSLAX45Y45*%
%MOMM*%
%TF.SameCoordinates,C80D94D6-ACD9-4930-820E-424AA932BAC3*%
%TF.FilePolarity,Negative*%
%TF.FileFunction,Soldermask,Top*%
%TF.Part,Single*%
G01*
G75*
%TA.AperFunction,SMDPad,CuDef*%
%ADD15R,0.54213X1.70637*%
G04:AMPARAMS|DCode=16|XSize=1.70637mm|YSize=0.54213mm|CornerRadius=0.27107mm|HoleSize=0mm|Usage=FLASHONLY|Rotation=270.000|XOffset=0mm|YOffset=0mm|HoleType=Round|Shape=RoundedRectangle|*
%AMROUNDEDRECTD16*
21,1,1.70637,0.00000,0,0,270.0*
21,1,1.16424,0.54213,0,0,270.0*
1,1,0.54213,0.00000,-0.58212*
1,1,0.54213,0.00000,0.58212*
1,1,0.54213,0.00000,0.58212*
1,1,0.54213,0.00000,-0.58212*
%
%ADD16ROUNDEDRECTD16*%
%ADD17R,0.80000X0.80000*%
%ADD18R,1.20000X1.20000*%
%ADD19R,1.40000X2.70000*%
%ADD20R,2.00000X0.70000*%
%ADD21R,2.60000X1.50000*%
%ADD22R,2.60000X1.00000*%
%ADD23R,0.81213X0.75814*%
%ADD24R,1.30606X1.05822*%
%ADD25R,1.30000X1.10000*%
%ADD26R,0.87213X1.00429*%
G04:AMPARAMS|DCode=27|XSize=1.00429mm|YSize=0.87213mm|CornerRadius=0.43606mm|HoleSize=0mm|Usage=FLASHONLY|Rotation=270.000|XOffset=0mm|YOffset=0mm|HoleType=Round|Shape=RoundedRectangle|*
%AMROUNDEDRECTD27*
21,1,1.00429,0.00000,0,0,270.0*
21,1,0.13216,0.87213,0,0,270.0*
1,1,0.87213,0.00000,-0.06608*
1,1,0.87213,0.00000,0.06608*
1,1,0.87213,0.00000,0.06608*
1,1,0.87213,0.00000,-0.06608*
%
%ADD27ROUNDEDRECTD27*%
G04:AMPARAMS|DCode=28|XSize=1.00429mm|YSize=3.18213mm|CornerRadius=0.43687mm|HoleSize=0mm|Usage=FLASHONLY|Rotation=270.000|XOffset=0mm|YOffset=0mm|HoleType=Round|Shape=RoundedRectangle|*
%AMROUNDEDRECTD28*
21,1,1.00429,2.30840,0,0,270.0*
21,1,0.13056,3.18213,0,0,270.0*
1,1,0.87373,-1.15420,-0.06528*
1,1,0.87373,-1.15420,0.06528*
1,1,0.87373,1.15420,0.06528*
1,1,0.87373,1.15420,-0.06528*
%
%ADD28ROUNDEDRECTD28*%
%TA.AperFunction,ConnectorPad*%
%ADD29R,2.40000X0.28000*%
%TA.AperFunction,SMDPad,CuDef*%
%ADD30R,1.50000X0.55000*%
%ADD31R,0.55000X1.50000*%
%ADD36R,0.75814X0.81213*%
%ADD37R,1.05822X1.30606*%
%ADD39R,1.00429X0.87213*%
G04:AMPARAMS|DCode=40|XSize=1.00429mm|YSize=0.87213mm|CornerRadius=0.43606mm|HoleSize=0mm|Usage=FLASHONLY|Rotation=0.000|XOffset=0mm|YOffset=0mm|HoleType=Round|Shape=RoundedRectangle|*
%AMROUNDEDRECTD40*
21,1,1.00429,0.00000,0,0,0.0*
21,1,0.13216,0.87213,0,0,0.0*
1,1,0.87213,0.06608,0.00000*
1,1,0.87213,-0.06608,0.00000*
1,1,0.87213,-0.06608,0.00000*
1,1,0.87213,0.06608,0.00000*
%
%ADD40ROUNDEDRECTD40*%
G04:AMPARAMS|DCode=41|XSize=1.00429mm|YSize=3.18213mm|CornerRadius=0.43687mm|HoleSize=0mm|Usage=FLASHONLY|Rotation=0.000|XOffset=0mm|YOffset=0mm|HoleType=Round|Shape=RoundedRectangle|*
%AMROUNDEDRECTD41*
21,1,1.00429,2.30840,0,0,0.0*
21,1,0.13056,3.18213,0,0,0.0*
1,1,0.87373,0.06528,-1.15420*
1,1,0.87373,-0.06528,-1.15420*
1,1,0.87373,-0.06528,1.15420*
1,1,0.87373,0.06528,1.15420*
%
%ADD41ROUNDEDRECTD41*%
%TA.AperFunction,ComponentPad*%
G04:AMPARAMS|DCode=51|XSize=1.2mm|YSize=2.8mm|CornerRadius=0.6mm|HoleSize=0mm|Usage=FLASHONLY|Rotation=90.000|XOffset=0mm|YOffset=0mm|HoleType=Round|Shape=RoundedRectangle|*
%AMROUNDEDRECTD51*
21,1,1.20000,1.60000,0,0,90.0*
21,1,0.00000,2.80000,0,0,90.0*
1,1,1.20000,0.80000,0.00000*
1,1,1.20000,0.80000,0.00000*
1,1,1.20000,-0.80000,0.00000*
1,1,1.20000,-0.80000,0.00000*
%
%ADD51ROUNDEDRECTD51*%
G04:AMPARAMS|DCode=52|XSize=1.2mm|YSize=2.3mm|CornerRadius=0.6mm|HoleSize=0mm|Usage=FLASHONLY|Rotation=90.000|XOffset=0mm|YOffset=0mm|HoleType=Round|Shape=RoundedRectangle|*
%AMROUNDEDRECTD52*
21,1,1.20000,1.10000,0,0,90.0*
21,1,0.00000,2.30000,0,0,90.0*
1,1,1.20000,0.55000,0.00000*
1,1,1.20000,0.55000,0.00000*
1,1,1.20000,-0.55000,0.00000*
1,1,1.20000,-0.55000,0.00000*
%
%ADD52ROUNDEDRECTD52*%
%ADD53C,1.40000*%
%TA.AperFunction,SMDPad,CuDef*%
G04:AMPARAMS|DCode=63|XSize=1.4132mm|YSize=0.7932mm|CornerRadius=0.2491mm|HoleSize=0mm|Usage=FLASHONLY|Rotation=270.000|XOffset=0mm|YOffset=0mm|HoleType=Round|Shape=RoundedRectangle|*
%AMROUNDEDRECTD63*
21,1,1.41320,0.29500,0,0,270.0*
21,1,0.91500,0.79320,0,0,270.0*
1,1,0.49820,-0.14750,-0.45750*
1,1,0.49820,-0.14750,0.45750*
1,1,0.49820,0.14750,0.45750*
1,1,0.49820,0.14750,-0.45750*
%
%ADD63ROUNDEDRECTD63*%
%ADD64R,1.40320X1.65320*%
%TA.AperFunction,BGAPad,CuDef*%
%ADD65R,1.80320X1.80320*%
%TA.AperFunction,ConnectorPad*%
%ADD66R,1.35320X0.50320*%
%ADD67R,1.35320X0.80320*%
%TA.AperFunction,BGAPad,CuDef*%
%ADD68C,0.65320*%
%ADD69C,0.45320*%
%TA.AperFunction,ConnectorPad*%
%ADD70R,0.80320X2.40320*%
%ADD71R,2.00320X2.80320*%
%TA.AperFunction,SMDPad,CuDef*%
%ADD72R,1.65320X1.40320*%
%TA.AperFunction,BGAPad,CuDef*%
%ADD73R,1.80320X1.80320*%
%TA.AperFunction,ComponentPad*%
%ADD74C,0.85320*%
%ADD75O,2.30320X1.20320*%
G04:AMPARAMS|DCode=76|XSize=2.0032mm|YSize=1.2032mm|CornerRadius=0.3516mm|HoleSize=0mm|Usage=FLASHONLY|Rotation=0.000|XOffset=0mm|YOffset=0mm|HoleType=Round|Shape=RoundedRectangle|*
%AMROUNDEDRECTD76*
21,1,2.00320,0.50000,0,0,0.0*
21,1,1.30000,1.20320,0,0,0.0*
1,1,0.70320,0.65000,-0.25000*
1,1,0.70320,-0.65000,-0.25000*
1,1,0.70320,-0.65000,0.25000*
1,1,0.70320,0.65000,0.25000*
%
%ADD76ROUNDEDRECTD76*%
%TA.AperFunction,ViaPad*%
%ADD77C,0.70320*%
%ADD78C,0.50320*%
%ADD79C,0.60320*%
%ADD80C,5.20320*%
D15*
X13450500Y6123217D02*
D03*
D16*
X13323500D02*
D03*
X13196500D02*
D03*
X13069501D02*
D03*
Y5656783D02*
D03*
X13196500D02*
D03*
X13323500D02*
D03*
X13450500D02*
D03*
D17*
X11762500Y7560000D02*
D03*
X11597500D02*
D03*
X15862500Y8650000D02*
D03*
X15697501D02*
D03*
D18*
X16382500Y9590000D02*
D03*
D19*
X16392500Y8795000D02*
D03*
Y9285000D02*
D03*
D20*
X17662500Y9425000D02*
D03*
Y9315000D02*
D03*
Y9205000D02*
D03*
Y9095000D02*
D03*
Y8985000D02*
D03*
Y8875000D02*
D03*
Y8765000D02*
D03*
Y8655000D02*
D03*
D21*
X17612500Y9780000D02*
D03*
D22*
Y8445000D02*
D03*
D23*
X12200000Y9582699D02*
D03*
Y9457301D02*
D03*
X10740000Y5994601D02*
D03*
Y6120000D02*
D03*
X10950000Y5997300D02*
D03*
Y6122699D02*
D03*
X13789999Y9537301D02*
D03*
Y9662699D02*
D03*
X13589999Y9534601D02*
D03*
Y9660000D02*
D03*
X15734700Y5900400D02*
D03*
Y5775001D02*
D03*
X15531500Y5900400D02*
D03*
Y5775001D02*
D03*
X10152500Y7706500D02*
D03*
Y7581101D02*
D03*
X9962000Y7707300D02*
D03*
Y7581902D02*
D03*
X15439400Y9298501D02*
D03*
Y9423900D02*
D03*
X15642599Y9297701D02*
D03*
Y9423100D02*
D03*
X15910001Y6980000D02*
D03*
Y6854601D02*
D03*
X15710001Y6982699D02*
D03*
Y6857300D02*
D03*
X11010000Y6917301D02*
D03*
Y7042700D02*
D03*
X11210000Y6917301D02*
D03*
Y7042700D02*
D03*
X11410000Y6917301D02*
D03*
Y7042700D02*
D03*
X11610000Y6917301D02*
D03*
Y7042700D02*
D03*
X11810000Y6917301D02*
D03*
Y7042700D02*
D03*
X10600000Y9582699D02*
D03*
Y9457301D02*
D03*
X12010000Y6917301D02*
D03*
Y7042700D02*
D03*
X10800000Y9582699D02*
D03*
Y9457301D02*
D03*
X12210000Y6917301D02*
D03*
Y7042700D02*
D03*
X11000000Y9582699D02*
D03*
Y9457301D02*
D03*
X12410000Y6917301D02*
D03*
Y7042700D02*
D03*
X11200000Y9582699D02*
D03*
Y9457301D02*
D03*
X12610000Y6917301D02*
D03*
Y7042700D02*
D03*
X11400000Y9582699D02*
D03*
Y9457301D02*
D03*
X11600000Y9582699D02*
D03*
Y9457301D02*
D03*
X11800000Y9582699D02*
D03*
Y9457301D02*
D03*
X12000000Y9585399D02*
D03*
Y9460000D02*
D03*
D24*
X15889999Y7160000D02*
D03*
X15734784D02*
D03*
X10772392Y5810000D02*
D03*
X10927608D02*
D03*
X13770000Y9350000D02*
D03*
X13614784D02*
D03*
X15710709Y6091700D02*
D03*
X15555492D02*
D03*
X9985991Y7910500D02*
D03*
X10141208D02*
D03*
X15618608Y9106400D02*
D03*
X15463393D02*
D03*
D25*
X15064999Y5757500D02*
D03*
X15275000D02*
D03*
Y5922500D02*
D03*
X15064999D02*
D03*
D26*
X11209000Y9079500D02*
D03*
X10399000Y9077000D02*
D03*
X15388200Y9678600D02*
D03*
D27*
X10980000Y9079500D02*
D03*
X10751000D02*
D03*
X10170000Y9077000D02*
D03*
X9941000D02*
D03*
X15617200Y9678600D02*
D03*
X15846201D02*
D03*
D28*
X10980000Y8420500D02*
D03*
X10170000Y8418000D02*
D03*
X15617200Y10337600D02*
D03*
D29*
X16411501Y7350000D02*
D03*
Y7300000D02*
D03*
Y7250000D02*
D03*
Y7200000D02*
D03*
Y7150000D02*
D03*
Y7100000D02*
D03*
Y7050000D02*
D03*
Y7000000D02*
D03*
Y6950000D02*
D03*
Y6900000D02*
D03*
Y6850000D02*
D03*
Y6800000D02*
D03*
Y6750000D02*
D03*
Y6700000D02*
D03*
Y6650000D02*
D03*
Y6600000D02*
D03*
Y6550000D02*
D03*
Y6500000D02*
D03*
Y6450000D02*
D03*
Y6400000D02*
D03*
D30*
X13980000Y7810000D02*
D03*
Y7890000D02*
D03*
Y7970000D02*
D03*
Y8050000D02*
D03*
Y8130000D02*
D03*
Y8210000D02*
D03*
Y8290000D02*
D03*
Y8370000D02*
D03*
Y8450000D02*
D03*
Y8530000D02*
D03*
Y8610000D02*
D03*
X15120000D02*
D03*
Y8530000D02*
D03*
Y8450000D02*
D03*
Y8370000D02*
D03*
Y8290000D02*
D03*
Y8210000D02*
D03*
Y8130000D02*
D03*
Y8050000D02*
D03*
Y7970000D02*
D03*
Y7890000D02*
D03*
Y7810000D02*
D03*
D31*
X14150000Y8780000D02*
D03*
X14230000D02*
D03*
X14310001D02*
D03*
X14389999D02*
D03*
X14470000D02*
D03*
X14550000D02*
D03*
X14630000D02*
D03*
X14710001D02*
D03*
X14789999D02*
D03*
X14870000D02*
D03*
X14950000D02*
D03*
Y7640000D02*
D03*
X14870000D02*
D03*
X14789999D02*
D03*
X14710001D02*
D03*
X14630000D02*
D03*
X14550000D02*
D03*
X14470000D02*
D03*
X14389999D02*
D03*
X14310001D02*
D03*
X14230000D02*
D03*
X14150000D02*
D03*
D36*
X11516600Y5802700D02*
D03*
X11391201D02*
D03*
X11516600Y5993200D02*
D03*
X11391201D02*
D03*
X15717300Y8460000D02*
D03*
X15842699D02*
D03*
X15717300Y8260000D02*
D03*
X15842699D02*
D03*
X15717300Y8060000D02*
D03*
X15842699D02*
D03*
X15717300Y7860000D02*
D03*
X15842699D02*
D03*
X15717300Y7660000D02*
D03*
X15842699D02*
D03*
X14330101Y6753300D02*
D03*
X14455499D02*
D03*
X14330000Y6550000D02*
D03*
X14455399D02*
D03*
X14327301Y6350000D02*
D03*
X14452699D02*
D03*
X14327301Y6150000D02*
D03*
X14452699D02*
D03*
X14327301Y5950000D02*
D03*
X14452699D02*
D03*
X14327301Y5750000D02*
D03*
X14452699D02*
D03*
D37*
X11707900Y5813992D02*
D03*
Y5969208D02*
D03*
X15530000Y7682392D02*
D03*
Y7837608D02*
D03*
D39*
X9830500Y6089000D02*
D03*
X12810001Y5661000D02*
D03*
X14300500Y9739000D02*
D03*
X9900500Y7289000D02*
D03*
X14760500Y7189000D02*
D03*
D40*
X9830500Y5860000D02*
D03*
Y5631000D02*
D03*
X12810001Y5890000D02*
D03*
Y6119000D02*
D03*
X14300500Y9510000D02*
D03*
Y9281000D02*
D03*
X9900500Y7060000D02*
D03*
Y6831000D02*
D03*
X14760500Y6960000D02*
D03*
Y6731000D02*
D03*
D41*
X10489500Y5860000D02*
D03*
X12151000Y5890000D02*
D03*
X14959500Y9510000D02*
D03*
X10559500Y7060000D02*
D03*
X15419501Y6960000D02*
D03*
D51*
X16671500Y5975000D02*
D03*
Y7625000D02*
D03*
D52*
X17349500Y5975000D02*
D03*
Y7625000D02*
D03*
D53*
X17439500Y6800000D02*
D03*
D63*
X11265000Y7924500D02*
D03*
X11075000D02*
D03*
Y8175500D02*
D03*
X11170000D02*
D03*
X11265000D02*
D03*
Y7399000D02*
D03*
X11075000D02*
D03*
Y7650000D02*
D03*
X11170000D02*
D03*
X11265000D02*
D03*
D64*
X11770000Y7290000D02*
D03*
X11570000D02*
D03*
D65*
X13164000Y9370000D02*
D03*
X12656000D02*
D03*
Y9750000D02*
D03*
X13164000D02*
D03*
X12910001Y9370000D02*
D03*
Y9750000D02*
D03*
D66*
X9593000Y7042500D02*
D03*
Y6992500D02*
D03*
Y6942500D02*
D03*
Y6692500D02*
D03*
Y6742500D02*
D03*
Y6792500D02*
D03*
Y6892500D02*
D03*
Y6842500D02*
D03*
X9595500Y8520000D02*
D03*
Y8470000D02*
D03*
Y8420000D02*
D03*
Y8170000D02*
D03*
Y8220000D02*
D03*
Y8270000D02*
D03*
Y8370000D02*
D03*
Y8320000D02*
D03*
D67*
X9593000Y6627500D02*
D03*
Y7107500D02*
D03*
Y6547500D02*
D03*
Y7187500D02*
D03*
X9595500Y8105000D02*
D03*
Y8585000D02*
D03*
Y8025000D02*
D03*
Y8665000D02*
D03*
D68*
X12110000Y8820000D02*
D03*
X12190000D02*
D03*
X12270000D02*
D03*
X12350000D02*
D03*
X12430000D02*
D03*
X12510000D02*
D03*
X12590000D02*
D03*
X12670000D02*
D03*
X12750000D02*
D03*
X12830000D02*
D03*
X12910001D02*
D03*
X12989999D02*
D03*
X13070000D02*
D03*
X13150000D02*
D03*
X13230000D02*
D03*
X13310001D02*
D03*
X13389999D02*
D03*
X13470000D02*
D03*
X12110000Y8740000D02*
D03*
X12190000D02*
D03*
X12270000D02*
D03*
X12350000D02*
D03*
X12430000D02*
D03*
X12510000D02*
D03*
X12590000D02*
D03*
X12670000D02*
D03*
X12750000D02*
D03*
X12830000D02*
D03*
X12910001D02*
D03*
X12989999D02*
D03*
X13070000D02*
D03*
X13150000D02*
D03*
X13230000D02*
D03*
X13310001D02*
D03*
X13389999D02*
D03*
X13470000D02*
D03*
X12110000Y8660000D02*
D03*
X12190000D02*
D03*
X12270000D02*
D03*
X12350000D02*
D03*
X12430000D02*
D03*
X12510000D02*
D03*
X12590000D02*
D03*
X12670000D02*
D03*
X12750000D02*
D03*
X12830000D02*
D03*
X12910001D02*
D03*
X12989999D02*
D03*
X13070000D02*
D03*
X13150000D02*
D03*
X13230000D02*
D03*
X13310001D02*
D03*
X13389999D02*
D03*
X13470000D02*
D03*
X12110000Y8580000D02*
D03*
X12190000D02*
D03*
X12270000D02*
D03*
X12350000D02*
D03*
X12430000D02*
D03*
X12510000D02*
D03*
X12590000D02*
D03*
X12670000D02*
D03*
X12750000D02*
D03*
X12830000D02*
D03*
X12910001D02*
D03*
X12989999D02*
D03*
X13070000D02*
D03*
X13150000D02*
D03*
X13230000D02*
D03*
X13310001D02*
D03*
X13389999D02*
D03*
X13470000D02*
D03*
X12110000Y8500000D02*
D03*
X12190000D02*
D03*
X12270000D02*
D03*
X12350000D02*
D03*
X12430000D02*
D03*
X12510000D02*
D03*
X12590000D02*
D03*
X12670000D02*
D03*
X12750000D02*
D03*
X12830000D02*
D03*
X12910001D02*
D03*
X12989999D02*
D03*
X13070000D02*
D03*
X13150000D02*
D03*
X13230000D02*
D03*
X13310001D02*
D03*
X13389999D02*
D03*
X13470000D02*
D03*
X12110000Y8420000D02*
D03*
X12190000D02*
D03*
X12270000D02*
D03*
X12350000D02*
D03*
X12430000D02*
D03*
X12510000D02*
D03*
X12590000D02*
D03*
X12670000D02*
D03*
X12750000D02*
D03*
X12830000D02*
D03*
X12910001D02*
D03*
X12989999D02*
D03*
X13070000D02*
D03*
X13150000D02*
D03*
X13230000D02*
D03*
X13310001D02*
D03*
X13389999D02*
D03*
X13470000D02*
D03*
X12110000Y8340000D02*
D03*
X12190000D02*
D03*
X12270000D02*
D03*
X12350000D02*
D03*
X12430000D02*
D03*
X12510000D02*
D03*
X12590000D02*
D03*
X12670000D02*
D03*
X12750000D02*
D03*
X12830000D02*
D03*
X12910001D02*
D03*
X12989999D02*
D03*
X13070000D02*
D03*
X13150000D02*
D03*
X13230000D02*
D03*
X13310001D02*
D03*
X13389999D02*
D03*
X13470000D02*
D03*
X12110000Y8260000D02*
D03*
X12190000D02*
D03*
X12270000D02*
D03*
X12350000D02*
D03*
X12430000D02*
D03*
X12510000D02*
D03*
X12590000D02*
D03*
X12670000D02*
D03*
X12750000D02*
D03*
X12830000D02*
D03*
X12910001D02*
D03*
X12989999D02*
D03*
X13070000D02*
D03*
X13150000D02*
D03*
X13230000D02*
D03*
X13310001D02*
D03*
X13389999D02*
D03*
X13470000D02*
D03*
X12110000Y8180000D02*
D03*
X12190000D02*
D03*
X12270000D02*
D03*
X12350000D02*
D03*
X12430000D02*
D03*
X12510000D02*
D03*
X12590000D02*
D03*
X12670000D02*
D03*
X12750000D02*
D03*
X12830000D02*
D03*
X12910001D02*
D03*
X12989999D02*
D03*
X13070000D02*
D03*
X13150000D02*
D03*
X13230000D02*
D03*
X13310001D02*
D03*
X13389999D02*
D03*
X13470000D02*
D03*
X12110000Y8100000D02*
D03*
X12190000D02*
D03*
X12270000D02*
D03*
X12350000D02*
D03*
X12430000D02*
D03*
X12510000D02*
D03*
X12590000D02*
D03*
X12670000D02*
D03*
X12750000D02*
D03*
X12830000D02*
D03*
X12910001D02*
D03*
X12989999D02*
D03*
X13070000D02*
D03*
X13150000D02*
D03*
X13230000D02*
D03*
X13310001D02*
D03*
X13389999D02*
D03*
X13470000D02*
D03*
X12110000Y8020000D02*
D03*
X12190000D02*
D03*
X12270000D02*
D03*
X12350000D02*
D03*
X12430000D02*
D03*
X12510000D02*
D03*
X12590000D02*
D03*
X12670000D02*
D03*
X12750000D02*
D03*
X12830000D02*
D03*
X12910001D02*
D03*
X12989999D02*
D03*
X13070000D02*
D03*
X13150000D02*
D03*
X13230000D02*
D03*
X13310001D02*
D03*
X13389999D02*
D03*
X13470000D02*
D03*
X12110000Y7940000D02*
D03*
X12190000D02*
D03*
X12270000D02*
D03*
X12350000D02*
D03*
X12430000D02*
D03*
X12510000D02*
D03*
X12590000D02*
D03*
X12670000D02*
D03*
X12750000D02*
D03*
X12830000D02*
D03*
X12910001D02*
D03*
X12989999D02*
D03*
X13070000D02*
D03*
X13150000D02*
D03*
X13230000D02*
D03*
X13310001D02*
D03*
X13389999D02*
D03*
X13470000D02*
D03*
X12110000Y7860000D02*
D03*
X12190000D02*
D03*
X12270000D02*
D03*
X12350000D02*
D03*
X12430000D02*
D03*
X12510000D02*
D03*
X12590000D02*
D03*
X12670000D02*
D03*
X12750000D02*
D03*
X12830000D02*
D03*
X12910001D02*
D03*
X12989999D02*
D03*
X13070000D02*
D03*
X13150000D02*
D03*
X13230000D02*
D03*
X13310001D02*
D03*
X13389999D02*
D03*
X13470000D02*
D03*
X12110000Y7780000D02*
D03*
X12190000D02*
D03*
X12270000D02*
D03*
X12350000D02*
D03*
X12430000D02*
D03*
X12510000D02*
D03*
X12590000D02*
D03*
X12670000D02*
D03*
X12750000D02*
D03*
X12830000D02*
D03*
X12910001D02*
D03*
X12989999D02*
D03*
X13070000D02*
D03*
X13150000D02*
D03*
X13230000D02*
D03*
X13310001D02*
D03*
X13389999D02*
D03*
X13470000D02*
D03*
X12110000Y7700000D02*
D03*
X12190000D02*
D03*
X12270000D02*
D03*
X12350000D02*
D03*
X12430000D02*
D03*
X12510000D02*
D03*
X12590000D02*
D03*
X12670000D02*
D03*
X12750000D02*
D03*
X12830000D02*
D03*
X12910001D02*
D03*
X12989999D02*
D03*
X13070000D02*
D03*
X13150000D02*
D03*
X13230000D02*
D03*
X13310001D02*
D03*
X13389999D02*
D03*
X13470000D02*
D03*
X12110000Y7620000D02*
D03*
X12190000D02*
D03*
X12270000D02*
D03*
X12350000D02*
D03*
X12430000D02*
D03*
X12510000D02*
D03*
X12590000D02*
D03*
X12670000D02*
D03*
X12750000D02*
D03*
X12830000D02*
D03*
X12910001D02*
D03*
X12989999D02*
D03*
X13070000D02*
D03*
X13150000D02*
D03*
X13230000D02*
D03*
X13310001D02*
D03*
X13389999D02*
D03*
X13470000D02*
D03*
X12110000Y7540000D02*
D03*
X12190000D02*
D03*
X12270000D02*
D03*
X12350000D02*
D03*
X12430000D02*
D03*
X12510000D02*
D03*
X12590000D02*
D03*
X12670000D02*
D03*
X12750000D02*
D03*
X12830000D02*
D03*
X12910001D02*
D03*
X12989999D02*
D03*
X13070000D02*
D03*
X13150000D02*
D03*
X13230000D02*
D03*
X13310001D02*
D03*
X13389999D02*
D03*
X13470000D02*
D03*
X12110000Y7460000D02*
D03*
X12190000D02*
D03*
X12270000D02*
D03*
X12350000D02*
D03*
X12430000D02*
D03*
X12510000D02*
D03*
X12590000D02*
D03*
X12670000D02*
D03*
X12750000D02*
D03*
X12830000D02*
D03*
X12910001D02*
D03*
X12989999D02*
D03*
X13070000D02*
D03*
X13150000D02*
D03*
X13230000D02*
D03*
X13310001D02*
D03*
X13389999D02*
D03*
X13470000D02*
D03*
D69*
X14420000Y6970000D02*
D03*
Y6920000D02*
D03*
X14370000Y6970000D02*
D03*
Y6920000D02*
D03*
X14320000Y6970000D02*
D03*
Y6920000D02*
D03*
D70*
X11177300Y10387100D02*
D03*
X11277300D02*
D03*
X11377300D02*
D03*
X11677300D02*
D03*
X11777300D02*
D03*
X12077300D02*
D03*
X11977300D02*
D03*
X11877300D02*
D03*
X11577300D02*
D03*
X11477300D02*
D03*
X11077300D02*
D03*
X10977300D02*
D03*
X11807500Y5300000D02*
D03*
X11707500D02*
D03*
X11607500D02*
D03*
X11307500D02*
D03*
X11207500D02*
D03*
X10907500D02*
D03*
X11007500D02*
D03*
X11107500D02*
D03*
X11407500D02*
D03*
X11507500D02*
D03*
X11907500D02*
D03*
X12007500D02*
D03*
X14210001Y5295000D02*
D03*
X14110001D02*
D03*
X14010001D02*
D03*
X13710001D02*
D03*
X13610001D02*
D03*
X13310001D02*
D03*
X13410001D02*
D03*
X13510001D02*
D03*
X13810001D02*
D03*
X13910001D02*
D03*
X14310001D02*
D03*
X14410001D02*
D03*
X13539500Y10387100D02*
D03*
X13639500D02*
D03*
X13739500D02*
D03*
X14039500D02*
D03*
X14139500D02*
D03*
X14439500D02*
D03*
X14339500D02*
D03*
X14239500D02*
D03*
X13939500D02*
D03*
X13839500D02*
D03*
X13439500D02*
D03*
X13339500D02*
D03*
D71*
X12337300Y10627100D02*
D03*
X10717300D02*
D03*
X10647500Y5060000D02*
D03*
X12267500D02*
D03*
X13050000Y5055000D02*
D03*
X14670000D02*
D03*
X14699500Y10627100D02*
D03*
X13079500D02*
D03*
D72*
X11610000Y8180000D02*
D03*
Y7980000D02*
D03*
X11600000Y9080000D02*
D03*
Y8880000D02*
D03*
Y8440000D02*
D03*
Y8640000D02*
D03*
D73*
X13070000Y6616000D02*
D03*
Y7124000D02*
D03*
X13450000D02*
D03*
Y6616000D02*
D03*
X13070000Y6870000D02*
D03*
X13450000D02*
D03*
D74*
X9485500Y7156500D02*
D03*
Y6578500D02*
D03*
X9488000Y8634000D02*
D03*
Y8056000D02*
D03*
D75*
X9535500Y6435500D02*
D03*
Y7299500D02*
D03*
X9538000Y7913000D02*
D03*
Y8777000D02*
D03*
D76*
X9117500Y6435500D02*
D03*
Y7299500D02*
D03*
X9120000Y7913000D02*
D03*
Y8777000D02*
D03*
D77*
X9820000Y7910000D02*
D03*
X10310000Y8700000D02*
D03*
X14500000Y8630000D02*
D03*
X14760001Y6650000D02*
D03*
X14750000Y6350000D02*
D03*
X15920000Y8760000D02*
D03*
X12919000Y5661000D02*
D03*
X15910001Y6090000D02*
D03*
X15530000Y6880000D02*
D03*
X12710000Y6060000D02*
D03*
X13530000Y7270000D02*
D03*
X10550000Y6780000D02*
D03*
Y6470000D02*
D03*
X10560000Y6120000D02*
D03*
X15289999Y8340000D02*
D03*
X11170000Y8280000D02*
D03*
X15430000Y9490000D02*
D03*
X15139999Y9600000D02*
D03*
X16470000Y9590000D02*
D03*
X13864999Y8977500D02*
D03*
X13730000D02*
D03*
X14385001Y8997500D02*
D03*
X13020000Y6130000D02*
D03*
X14389999Y7470000D02*
D03*
X14710001D02*
D03*
X15275000Y6025000D02*
D03*
X14860001Y5760000D02*
D03*
X9710000Y8730000D02*
D03*
X9700000Y7990000D02*
D03*
X15570000Y6770000D02*
D03*
X14839999Y10630000D02*
D03*
X12490000Y9790000D02*
D03*
X13450000Y9750000D02*
D03*
X14539999Y6350000D02*
D03*
X15280000Y5650000D02*
D03*
X14850000Y5200000D02*
D03*
X12661250Y5055000D02*
D03*
X10440000Y4980000D02*
D03*
X9720000Y6090000D02*
D03*
X9760000Y7270000D02*
D03*
X10152500Y7492500D02*
D03*
X10430000Y9580000D02*
D03*
X10520000Y9160000D02*
D03*
X11600000Y9200000D02*
D03*
X17530000Y8880000D02*
D03*
X16500000Y8790000D02*
D03*
X17620000Y8350000D02*
D03*
X17610001Y9940000D02*
D03*
X12286569Y10440000D02*
D03*
X10827300Y10477100D02*
D03*
X12708400Y10627100D02*
D03*
X12154736Y8937236D02*
D03*
X12187500Y8987500D02*
D03*
X12352479Y8959979D02*
D03*
X11882500Y10237500D02*
D03*
X14242500Y10162500D02*
D03*
X14145000Y10165000D02*
D03*
X14045000Y10170000D02*
D03*
X13945000Y10172500D02*
D03*
X13842500Y10170000D02*
D03*
X13747501Y10162500D02*
D03*
X13650000Y10165000D02*
D03*
X13552499Y10172500D02*
D03*
X14145000Y9015000D02*
D03*
X14305000Y9005000D02*
D03*
X14227499D02*
D03*
X13797501Y8980000D02*
D03*
X13962500Y8982500D02*
D03*
D78*
X12470000Y7980000D02*
D03*
X12550000Y8060000D02*
D03*
X12470000Y7660000D02*
D03*
X12566265Y7906265D02*
D03*
X12390000Y8460000D02*
D03*
Y8540000D02*
D03*
X12470000Y8380000D02*
D03*
X12710000Y8140000D02*
D03*
X12630000Y7816321D02*
D03*
X12631701Y7891701D02*
D03*
X12710000Y7660000D02*
D03*
X12390000Y8780000D02*
D03*
Y8700000D02*
D03*
Y8620000D02*
D03*
X12628759Y8438711D02*
D03*
X12641265Y8528735D02*
D03*
X12721265Y8448735D02*
D03*
X13121265Y8528735D02*
D03*
X13030000Y8460000D02*
D03*
Y8620000D02*
D03*
X12950000Y8380000D02*
D03*
X12231658Y8221658D02*
D03*
X12148342Y8138342D02*
D03*
X11990000Y8310000D02*
D03*
X15460001Y7470000D02*
D03*
X16380000Y7480000D02*
D03*
X12470000Y8700000D02*
D03*
X12710000Y8860000D02*
D03*
Y8780000D02*
D03*
X12790000D02*
D03*
X13030000Y8700000D02*
D03*
X12000000Y7620000D02*
D03*
X12470000Y7500000D02*
D03*
X13630000Y7570000D02*
D03*
X14260001Y7130000D02*
D03*
X12790000Y7660000D02*
D03*
X12710000Y7740000D02*
D03*
X13189999D02*
D03*
X14030000Y7630000D02*
D03*
X13110001Y8380000D02*
D03*
X14150000Y8230000D02*
D03*
X13110001Y8300000D02*
D03*
X13030000Y8380000D02*
D03*
X14758342Y8601658D02*
D03*
X14310001Y8100000D02*
D03*
X11740000Y7980000D02*
D03*
X12470000Y7900000D02*
D03*
X10580000Y7730000D02*
D03*
X12550000Y8300000D02*
D03*
X13610001Y7892500D02*
D03*
X13350000Y8300000D02*
D03*
X13630000Y8390000D02*
D03*
X12550000Y8140000D02*
D03*
X13350000Y7660000D02*
D03*
X13270000Y6240000D02*
D03*
X13239999Y5880000D02*
D03*
X13020000Y5580000D02*
D03*
X12970000Y5290000D02*
D03*
X11570000Y7400000D02*
D03*
X11860000Y7460000D02*
D03*
X13510001Y6310000D02*
D03*
X11007500Y5475000D02*
D03*
X10927500Y5487500D02*
D03*
X12230000Y7740000D02*
D03*
X11490000Y7170000D02*
D03*
X12950000Y8617700D02*
D03*
X13270000Y8620000D02*
D03*
X13110001D02*
D03*
X12790000Y8540000D02*
D03*
X13430000D02*
D03*
X12470000D02*
D03*
X12863342Y8133342D02*
D03*
X12790000Y8220000D02*
D03*
X13030000Y8140000D02*
D03*
X14630000Y8060000D02*
D03*
X14400000Y7010000D02*
D03*
X14320000Y6870000D02*
D03*
X15260001Y7830000D02*
D03*
X14280000Y7050000D02*
D03*
X12624235Y7632721D02*
D03*
X12390000Y7820000D02*
D03*
Y7740000D02*
D03*
X12390000Y7980000D02*
D03*
X11980000Y7950000D02*
D03*
X11920000Y8480000D02*
D03*
X14020000Y7180000D02*
D03*
X13430000Y5500000D02*
D03*
X13699915Y6730085D02*
D03*
X13339999Y7290000D02*
D03*
X13352982Y7382981D02*
D03*
X13600000Y6700000D02*
D03*
X13270000Y7500000D02*
D03*
X13110001Y7340000D02*
D03*
X13889999Y7120000D02*
D03*
X13770000Y6770000D02*
D03*
X13110001Y7500000D02*
D03*
X13189999D02*
D03*
X13480000Y7330000D02*
D03*
X13189999Y7580000D02*
D03*
X12897501Y6920000D02*
D03*
X13110001Y7820000D02*
D03*
X13030000Y7740000D02*
D03*
X13110001Y8140000D02*
D03*
X13189999Y7900000D02*
D03*
X13430000Y7820000D02*
D03*
X13850000Y8210000D02*
D03*
X12150000Y7980000D02*
D03*
X12230000Y7820000D02*
D03*
X12950000Y7420000D02*
D03*
X12875000Y7817500D02*
D03*
X11270000Y8070000D02*
D03*
X12230000Y8140000D02*
D03*
X13000000Y7340000D02*
D03*
X12220000Y8930000D02*
D03*
X12470000Y8860000D02*
D03*
X12480000Y6820000D02*
D03*
X11780000Y8880000D02*
D03*
X12470000Y8060000D02*
D03*
X16239999Y9180000D02*
D03*
X15320000Y6960000D02*
D03*
X15120000D02*
D03*
X14639999Y6970000D02*
D03*
X14480000D02*
D03*
X17117981Y9577981D02*
D03*
X17030000Y9620000D02*
D03*
X16989999Y8860000D02*
D03*
X12630000Y8940000D02*
D03*
X12950000Y8460000D02*
D03*
X13430000Y7500000D02*
D03*
X12800000Y6820000D02*
D03*
X12760000Y6870000D02*
D03*
X12790000Y6740000D02*
D03*
X16170000Y7000000D02*
D03*
X16220000Y6580000D02*
D03*
X13300200Y8929800D02*
D03*
X16810001Y9670000D02*
D03*
X13189999Y8780000D02*
D03*
X13270000D02*
D03*
X13430000D02*
D03*
X13350000Y8620000D02*
D03*
X17220000Y8770000D02*
D03*
X12390000Y7420000D02*
D03*
X12790000Y7980000D02*
D03*
X12950000D02*
D03*
X13030000Y8220000D02*
D03*
X12310000Y8620000D02*
D03*
X13030000Y7900000D02*
D03*
Y7820000D02*
D03*
X13430000Y8300000D02*
D03*
Y8220000D02*
D03*
X12870000Y8780000D02*
D03*
X12150000D02*
D03*
X12470000Y8220000D02*
D03*
X12390000Y8300000D02*
D03*
X12230000Y8460000D02*
D03*
Y8620000D02*
D03*
X11970000Y7700000D02*
D03*
X12150000Y7820000D02*
D03*
X11980000Y7860000D02*
D03*
Y8020000D02*
D03*
Y8210000D02*
D03*
X10530000Y8290000D02*
D03*
X10430000Y8390000D02*
D03*
X10120000Y8320000D02*
D03*
X9940000Y8400000D02*
D03*
X9950000Y8490000D02*
D03*
X9830000Y8470000D02*
D03*
X12710000Y7900000D02*
D03*
X12550000Y7500000D02*
D03*
X12190000Y7337500D02*
D03*
X12275000Y7350000D02*
D03*
X12790000Y7900000D02*
D03*
X12312500Y7740000D02*
D03*
X12315000Y7660000D02*
D03*
X11135000Y5545000D02*
D03*
X11235000Y5555000D02*
D03*
X11335000Y5575000D02*
D03*
X11445000Y5607500D02*
D03*
X11545000Y5615000D02*
D03*
X11675000Y5635000D02*
D03*
X11800000Y5650000D02*
D03*
X11880000Y5615000D02*
D03*
X11977500Y5580000D02*
D03*
X12047500Y5545000D02*
D03*
X13189999Y7980000D02*
D03*
X16177499Y7200000D02*
D03*
X16175000Y7250000D02*
D03*
D79*
X14285001Y7472500D02*
D03*
X14138254Y7400754D02*
D03*
X13580000Y7940000D02*
D03*
X13344003Y8140000D02*
D03*
X13350000Y8054004D02*
D03*
X14600000Y7800000D02*
D03*
X11870000Y6170000D02*
D03*
X9820000Y9080000D02*
D03*
X10580000Y8890000D02*
D03*
X11320000Y8370000D02*
D03*
X11170000Y7520000D02*
D03*
X10200000Y6830000D02*
D03*
X10180000Y5630000D02*
D03*
X14850000Y7190000D02*
D03*
X15070000Y7370000D02*
D03*
X13350000Y7980000D02*
D03*
X15847501Y7302500D02*
D03*
X16062500Y7190000D02*
D03*
X16182500Y7105000D02*
D03*
X11480000Y10210000D02*
D03*
X11965000Y9192500D02*
D03*
X11273700Y10213700D02*
D03*
X11380000Y10212500D02*
D03*
X11577500Y10202500D02*
D03*
D80*
X17150000Y5290000D02*
D03*
X9500000Y5210000D02*
D03*
X9510000Y10490000D02*
D03*
X17160001Y10540000D02*
D03*
%TF.MD5,ef2ccf07d0fcebcc40b4c49390fbdfad*%
M02*
