%TF.GenerationSoftware,Altium Limited,Altium Designer,23.4.1 (23)*%
G04 Layer_Color=0*
%FSLAX45Y45*%
%MOMM*%
%TF.SameCoordinates,C80D94D6-ACD9-4930-820E-424AA932BAC3*%
%TF.FilePolarity,Positive*%
%TF.FileFunction,Plated,1,3,Blind,Drill*%
%TF.Part,Single*%
G01*
G75*
%TA.AperFunction,ViaDrill,NotFilled*%
%ADD88C,0.15000*%
%ADD89C,0.20000*%
%ADD90C,0.30000*%
D88*
X12470000Y7660000D02*
D03*
X12566265Y7906265D02*
D03*
X12390000Y8460000D02*
D03*
X12630000Y7816321D02*
D03*
X12390000Y8700000D02*
D03*
Y8620000D02*
D03*
X13030000Y8460000D02*
D03*
X12148342Y8138342D02*
D03*
X15460001Y7470000D02*
D03*
X12470000Y8700000D02*
D03*
X13630000Y7570000D02*
D03*
X14260001Y7130000D02*
D03*
X12790000Y7660000D02*
D03*
X12710000Y7740000D02*
D03*
X13189999D02*
D03*
X14030000Y7630000D02*
D03*
X13110001Y8380000D02*
D03*
X14150000Y8230000D02*
D03*
X14758342Y8601658D02*
D03*
X11740000Y7980000D02*
D03*
X12470000Y7900000D02*
D03*
X10580000Y7730000D02*
D03*
X13610001Y7892500D02*
D03*
X13270000Y6240000D02*
D03*
X13020000Y5580000D02*
D03*
X12970000Y5290000D02*
D03*
X11860000Y7460000D02*
D03*
X11007500Y5475000D02*
D03*
X10927500Y5487500D02*
D03*
X11490000Y7170000D02*
D03*
X12950000Y8617700D02*
D03*
X13110001Y8620000D02*
D03*
X12790000Y8540000D02*
D03*
X12470000D02*
D03*
X14630000Y8060000D02*
D03*
X14400000Y7010000D02*
D03*
X14320000Y6870000D02*
D03*
X15260001Y7830000D02*
D03*
X14020000Y7180000D02*
D03*
X13430000Y5500000D02*
D03*
X13699915Y6730085D02*
D03*
X13339999Y7290000D02*
D03*
X13352982Y7382981D02*
D03*
X13600000Y6700000D02*
D03*
X13270000Y7500000D02*
D03*
X13889999Y7120000D02*
D03*
X13770000Y6770000D02*
D03*
X13189999Y7500000D02*
D03*
X13480000Y7330000D02*
D03*
X13189999Y7580000D02*
D03*
X13030000Y7740000D02*
D03*
X17117981Y9577981D02*
D03*
X17030000Y9620000D02*
D03*
X11970000Y7700000D02*
D03*
X12150000Y7820000D02*
D03*
X11980000Y7860000D02*
D03*
Y8020000D02*
D03*
Y8210000D02*
D03*
X10530000Y8290000D02*
D03*
X10430000Y8390000D02*
D03*
X10120000Y8320000D02*
D03*
X9940000Y8400000D02*
D03*
X9950000Y8490000D02*
D03*
X9830000Y8470000D02*
D03*
X12190000Y7337500D02*
D03*
X12275000Y7350000D02*
D03*
X12312500Y7740000D02*
D03*
X12315000Y7660000D02*
D03*
X11135000Y5545000D02*
D03*
X11235000Y5555000D02*
D03*
X11335000Y5575000D02*
D03*
X11445000Y5607500D02*
D03*
X11545000Y5615000D02*
D03*
X11675000Y5635000D02*
D03*
X11800000Y5650000D02*
D03*
X11880000Y5615000D02*
D03*
X11977500Y5580000D02*
D03*
X12047500Y5545000D02*
D03*
X13189999Y7980000D02*
D03*
X16177499Y7200000D02*
D03*
X16175000Y7250000D02*
D03*
D89*
X14310001Y8100000D02*
D03*
X16239999Y9180000D02*
D03*
D90*
X14760001Y6650000D02*
D03*
X14750000Y6350000D02*
D03*
X14389999Y7470000D02*
D03*
X14710001D02*
D03*
X15275000Y6025000D02*
D03*
X14860001Y5760000D02*
D03*
%TF.MD5,e049a31d76f220f9c618c809f19da85f*%
M02*
